SplineFontDB: 3.0
FontName: Nuvenon
FullName: Nuvenon
FamilyName: Nuvenon
Weight: Medium
Copyright: Invented in April 2004 by Carsten Becker to write his invented language, Ayeri. Created in February 2010 by Rebecca Bettencourt with Adobe Illustrator CS3 and FontForge 2.0. Updated and optimized in July 2022.
UComments: "2010-2-14: Created."
Version: 001.100
ItalicAngle: 0
UnderlinePosition: -200
UnderlineWidth: 100
Ascent: 500
Descent: 500
InvalidEm: 0
LayerCount: 2
Layer: 0 0 "Back" 1
Layer: 1 0 "Fore" 0
XUID: [1021 517 1544451070 15109172]
FSType: 8
OS2Version: 0
OS2_WeightWidthSlopeOnly: 0
OS2_UseTypoMetrics: 1
CreationTime: 1266192730
ModificationTime: 1657409853
PfmFamily: 65
TTFWeight: 500
TTFWidth: 5
LineGap: 0
VLineGap: 0
OS2TypoAscent: 500
OS2TypoAOffset: 0
OS2TypoDescent: -500
OS2TypoDOffset: 0
OS2TypoLinegap: 0
OS2WinAscent: 500
OS2WinAOffset: 0
OS2WinDescent: 500
OS2WinDOffset: 0
HheadAscent: 500
HheadAOffset: 0
HheadDescent: -500
HheadDOffset: 0
OS2FamilyClass: 2575
OS2Vendor: 'KrKo'
MarkAttachClasses: 1
DEI: 91125
LangName: 1033
Encoding: UnicodeFull
UnicodeInterp: none
NameList: Adobe Glyph List
DisplaySize: -36
AntiAlias: 1
FitToEm: 1
WinInfo: 1045328 16 19
BeginPrivate: 0
EndPrivate
TeXData: 1 0 0 346030 173015 115343 0 1048576 115343 783286 444596 497025 792723 393216 433062 380633 303038 157286 324010 404750 52429 2506097 1059062 262144
BeginChars: 1114112 224

StartChar: endash
Encoding: 8211 8211 154
Width: 500
VWidth: 444
Flags: HW
LayerCount: 2
Fore
SplineSet
-7 0 m 0
 -7 1 -7 3 -6 4 c 0
 -6 6 -5 7 -4 8 c 2
 -3 8 -2 9 -1 9 c 2
 0 10 l 1
 501 10 l 2
 502 10 504 9 505 7 c 0
 506 5 507 4 508 2 c 1
 508 0 l 2
 508 -2 507 -4 507 -5 c 0
 506 -6 505 -7 503 -9 c 1
 502 -9 l 1
 502 -9 502 -10 501 -10 c 1
 0 -10 l 2
 -2 -10 -4 -9 -5 -6 c 0
 -7 -4 -7 -2 -7 0 c 0
EndSplineSet
EndChar

StartChar: emdash
Encoding: 8212 8212 155
Width: 1000
VWidth: 444
Flags: HW
LayerCount: 2
Fore
SplineSet
-7 0 m 0
 -7 1 -7 3 -6 4 c 0
 -6 6 -5 7 -4 8 c 2
 -3 8 -2 9 -1 9 c 2
 0 10 l 1
 1001 10 l 2
 1002 10 1004 9 1005 7 c 0
 1006 5 1007 4 1008 2 c 1
 1008 0 l 2
 1008 -2 1007 -4 1007 -5 c 0
 1006 -6 1005 -7 1003 -9 c 1
 1002 -9 l 1
 1002 -9 1002 -10 1001 -10 c 1
 0 -10 l 2
 -2 -10 -4 -9 -5 -6 c 0
 -7 -4 -7 -2 -7 0 c 0
EndSplineSet
EndChar

StartChar: uFF380
Encoding: 1045376 1045376 160
Width: 324
VWidth: 444
Flags: HW
LayerCount: 2
Fore
SplineSet
-78 -69 m 2
 -78 -60 -76 -51 -74 -42 c 0
 -71 -34 -66 -26 -60 -19 c 0
 -53 -11 -46 -5 -38 -1 c 0
 -30 4 -21 7 -11 8 c 0
 -9 9 -7 9 -4 9 c 0
 -2 10 0 10 0 10 c 2
 332 10 l 2
 332 10 334 10 338 11 c 0
 342 11 345 11 348 12 c 0
 368 15 385 23 398 35 c 0
 411 47 418 64 418 86 c 0
 418 94 417 101 415 109 c 0
 413 116 410 124 406 130 c 0
 402 137 398 144 392 149 c 0
 387 155 381 160 374 164 c 0
 364 169 354 172 344 172 c 0
 340 172 337 172 334 171 c 0
 331 171 328 170 324 168 c 0
 320 166 315 164 312 161 c 0
 308 158 304 155 301 151 c 0
 297 147 294 142 291 137 c 0
 288 132 287 126 287 120 c 0
 287 112 289 106 294 101 c 0
 299 96 305 93 312 90 c 0
 316 88 320 87 324 87 c 0
 329 87 334 88 339 90 c 0
 343 92 347 95 350 99 c 0
 351 101 352 102 352 103 c 0
 352 105 351 106 349 106 c 0
 347 107 345 107 342 108 c 0
 339 108 337 109 335 110 c 0
 333 112 332 114 332 118 c 0
 332 125 335 128 342 128 c 0
 349 128 356 126 363 122 c 0
 369 118 373 112 373 104 c 0
 373 98 371 93 368 88 c 0
 365 84 361 80 357 77 c 0
 352 73 347 71 341 69 c 0
 336 67 330 66 325 66 c 0
 319 66 313 67 306 70 c 0
 300 72 294 75 289 78 c 0
 284 82 279 87 275 92 c 0
 271 98 268 103 267 110 c 0
 267 110 267 111 267 112 c 2
 267 113 l 1
 267 121 l 1
 267 128 l 1
 268 137 271 146 277 153 c 0
 282 161 288 168 295 174 c 0
 301 179 309 184 317 188 c 0
 326 191 334 193 343 193 c 0
 353 193 363 191 372 187 c 0
 382 183 390 178 398 172 c 0
 405 166 412 158 418 150 c 0
 423 142 428 133 432 124 c 0
 436 111 438 98 438 85 c 0
 438 65 433 48 424 34 c 0
 415 20 401 9 382 1 c 0
 377 -2 371 -4 365 -5 c 0
 359 -7 353 -8 347 -9 c 0
 345 -9 344 -9 341 -10 c 0
 339 -10 336 -10 334 -10 c 0
 331 -10 329 -11 327 -11 c 0
 325 -11 323 -11 323 -11 c 2
 -3 -11 l 2
 -3 -11 -4 -11 -6 -11 c 0
 -8 -12 -9 -12 -10 -12 c 0
 -24 -15 -36 -22 -44 -32 c 0
 -53 -42 -58 -55 -58 -69 c 0
 -58 -76 -57 -83 -54 -89 c 0
 -51 -95 -48 -101 -44 -106 c 0
 -33 -118 -19 -125 -2 -125 c 0
 3 -125 8 -124 12 -123 c 0
 15 -122 19 -119 22 -115 c 0
 24 -113 25 -112 25 -110 c 0
 25 -108 25 -106 25 -104 c 0
 25 -101 24 -98 24 -95 c 0
 21 -89 17 -83 11 -78 c 0
 5 -73 -1 -71 -8 -71 c 0
 -9 -71 -10 -71 -11 -71 c 0
 -12 -71 -13 -72 -14 -72 c 0
 -15 -73 -16 -74 -16 -75 c 0
 -16 -75 -17 -76 -18 -78 c 1
 -21 -81 l 1
 -22 -82 -24 -82 -27 -82 c 0
 -33 -82 -36 -79 -36 -72 c 0
 -36 -67 -34 -62 -30 -58 c 0
 -25 -55 -20 -52 -15 -51 c 1
 -9 -51 l 2
 2 -51 12 -54 21 -60 c 0
 30 -66 37 -74 41 -84 c 0
 43 -87 44 -91 44 -94 c 0
 45 -98 45 -101 45 -105 c 2
 45 -112 l 2
 45 -115 44 -117 43 -119 c 0
 42 -122 41 -124 40 -126 c 0
 36 -132 32 -136 26 -139 c 0
 20 -142 14 -144 8 -145 c 2
 -2 -145 l 1
 -11 -145 l 2
 -14 -144 -17 -144 -20 -143 c 0
 -24 -142 -27 -141 -30 -140 c 0
 -36 -138 -42 -135 -47 -131 c 0
 -52 -127 -57 -122 -61 -117 c 0
 -65 -111 -69 -106 -72 -100 c 0
 -75 -93 -76 -87 -77 -81 c 0
 -77 -81 -77 -80 -78 -78 c 2
 -78 -77 l 1
 -78 -69 l 2
16 75 m 0
 16 78 16 81 16 83 c 0
 17 86 18 88 20 90 c 0
 22 91 24 91 26 91 c 0
 29 91 29 91 32 91 c 0
 37 91 40 91 42 89 c 0
 44 87 45 84 47 80 c 0
 47 79 48 77 49 75 c 0
 49 73 50 72 50 71 c 2
 50 69 l 2
 50 63 47 59 40 59 c 0
 35 59 30 61 26 63 c 0
 23 65 21 66 19 68 c 0
 17 70 16 72 16 75 c 0
95 64 m 2
 94 64 94 64 93 65 c 0
 92 65 91 66 91 66 c 0
 90 67 89 68 88 69 c 0
 88 71 88 72 87 74 c 0
 87 75 86 76 85 77 c 0
 85 78 84 79 84 81 c 0
 84 86 86 89 90 91 c 0
 94 93 98 94 102 94 c 0
 105 94 108 93 110 91 c 0
 112 90 114 88 115 86 c 0
 116 84 116 83 116 82 c 0
 117 82 117 81 117 79 c 0
 117 78 117 77 116 76 c 0
 116 75 115 74 115 73 c 1
 115 73 114 72 114 70 c 1
 113 66 109 63 104 63 c 2
 103 63 101 63 99 64 c 0
 97 64 95 64 95 64 c 2
144 84 m 0
 144 89 146 92 151 93 c 1
 151 93 151 93 152 93 c 0
 153 93 154 94 154 94 c 1
 156 94 157 95 157 95 c 0
 158 95 159 95 160 95 c 0
 162 95 163 95 164 95 c 0
 165 95 166 94 167 94 c 0
 170 91 172 89 174 86 c 0
 175 83 176 80 176 77 c 0
 176 74 175 72 174 70 c 0
 172 68 170 67 167 66 c 2
 161 66 l 2
 161 66 160 66 159 66 c 0
 158 66 157 66 157 66 c 2
 156 66 l 2
 152 66 149 68 147 73 c 1
 147 73 147 73 146 74 c 0
 146 75 146 75 146 75 c 1
 145 78 145 78 145 79 c 0
 144 81 144 82 144 84 c 0
EndSplineSet
EndChar

StartChar: uFF381
Encoding: 1045377 1045377 161
Width: 284
VWidth: 444
Flags: HW
LayerCount: 2
Fore
SplineSet
-79 -58 m 0
 -79 -46 -76 -35 -70 -25 c 0
 -65 -15 -57 -7 -46 -1 c 1
 -58 7 -67 17 -71 31 c 0
 -72 35 -73 38 -73 40 c 0
 -73 43 -73 46 -73 50 c 2
 -73 57 l 2
 -73 61 -72 65 -70 68 c 0
 -69 72 -67 76 -65 79 c 0
 -59 87 -53 94 -45 99 c 0
 -37 104 -28 108 -19 111 c 0
 -15 112 -11 113 -8 113 c 0
 -4 114 0 114 3 114 c 0
 10 114 17 113 24 111 c 0
 32 109 39 106 46 102 c 0
 52 98 58 93 62 88 c 0
 66 82 68 75 68 67 c 0
 68 61 67 56 65 52 c 0
 57 33 42 24 20 24 c 0
 10 24 0 26 -9 30 c 0
 -19 33 -27 39 -33 47 c 0
 -34 49 -36 51 -37 53 c 0
 -38 54 -38 57 -38 59 c 0
 -38 66 -35 69 -29 69 c 0
 -24 69 -21 68 -20 65 c 0
 -19 62 -17 59 -13 56 c 0
 -9 52 -4 49 2 47 c 0
 7 45 13 44 19 44 c 0
 29 44 37 47 44 54 c 0
 46 58 48 62 48 67 c 2
 48 70 l 2
 48 71 47 72 47 73 c 0
 46 74 46 75 45 75 c 0
 41 81 35 86 27 89 c 0
 18 92 11 94 4 94 c 0
 1 94 -1 93 -3 93 c 0
 -5 93 -7 92 -10 92 c 0
 -15 91 -20 89 -26 87 c 0
 -31 84 -35 82 -39 78 c 0
 -43 74 -47 70 -49 66 c 0
 -51 61 -52 55 -52 50 c 0
 -52 37 -49 28 -42 22 c 0
 -36 17 -27 13 -15 11 c 0
 -15 11 -14 11 -13 11 c 0
 -12 11 -11 11 -11 11 c 0
 -9 11 -7 10 -5 10 c 0
 -2 10 -1 10 0 10 c 2
 284 10 l 2
 298 10 311 12 324 16 c 0
 333 19 342 22 350 26 c 0
 357 30 364 35 370 40 c 0
 375 46 380 53 383 60 c 0
 386 68 388 77 388 87 c 2
 388 94 l 2
 387 97 386 101 385 104 c 0
 384 107 382 110 381 113 c 0
 375 123 367 131 355 136 c 0
 344 141 332 143 321 143 c 0
 307 143 293 139 281 132 c 0
 273 128 268 123 264 116 c 0
 260 109 258 102 258 93 c 0
 258 86 259 79 263 72 c 0
 266 66 271 61 278 58 c 0
 280 57 282 57 284 56 c 0
 287 56 289 56 291 56 c 0
 297 56 303 57 309 60 c 0
 315 62 320 66 324 70 c 1
 324 71 324 71 323 71 c 0
 323 72 322 72 322 72 c 0
 321 72 321 71 320 70 c 0
 319 70 319 69 319 68 c 1
 316 66 313 64 310 64 c 0
 304 64 300 67 300 74 c 0
 300 78 302 81 304 84 c 0
 307 86 309 89 312 91 c 1
 314 93 316 94 318 94 c 256
 321 94 323 93 326 92 c 0
 331 90 335 88 339 85 c 0
 343 81 345 77 345 72 c 0
 345 67 344 63 341 60 c 0
 339 56 335 53 332 50 c 0
 328 47 324 44 320 42 c 0
 315 40 311 39 308 38 c 0
 307 38 305 37 302 37 c 0
 300 36 298 36 298 36 c 2
 291 36 l 1
 283 36 l 2
 281 36 279 37 276 37 c 0
 273 38 273 38 271 39 c 0
 267 41 263 43 260 45 c 0
 257 48 254 51 251 54 c 0
 246 59 243 65 240 72 c 0
 238 79 237 86 237 93 c 0
 237 119 249 139 272 151 c 0
 283 157 294 161 306 162 c 2
 307 163 308 163 309 163 c 0
 310 163 311 163 311 163 c 2
 321 163 l 1
 332 163 l 2
 332 163 333 163 334 163 c 0
 335 163 336 163 336 162 c 2
 347 161 356 158 365 154 c 0
 373 150 381 145 388 138 c 0
 394 132 399 124 403 116 c 0
 407 107 408 98 408 87 c 0
 408 74 406 63 402 52 c 0
 397 42 391 33 384 26 c 0
 376 18 367 11 357 6 c 0
 346 1 335 -2 324 -5 c 2
 322 -6 319 -6 315 -7 c 0
 311 -7 309 -8 308 -8 c 0
 306 -9 305 -9 303 -9 c 0
 301 -9 299 -10 297 -10 c 0
 295 -10 293 -10 291 -10 c 0
 290 -10 289 -10 288 -10 c 2
 3 -10 l 1
 2 -12 1 -12 -1 -12 c 0
 -11 -12 -21 -13 -30 -16 c 0
 -39 -18 -46 -25 -52 -34 c 0
 -56 -42 -58 -50 -58 -58 c 2
 -58 -63 l 2
 -58 -65 -57 -67 -56 -69 c 0
 -56 -71 -55 -73 -54 -74 c 0
 -51 -78 -49 -81 -45 -84 c 0
 -44 -85 -42 -86 -40 -87 c 0
 -38 -88 -36 -89 -34 -90 c 0
 -31 -92 -27 -93 -23 -94 c 0
 -20 -94 -16 -94 -12 -94 c 256
 -8 -94 -4 -94 0 -94 c 0
 4 -93 8 -92 11 -90 c 0
 15 -88 17 -86 20 -83 c 0
 22 -80 23 -75 23 -70 c 0
 23 -67 22 -65 22 -62 c 0
 22 -59 21 -57 19 -54 c 0
 19 -54 18 -53 17 -53 c 0
 16 -53 15 -53 14 -53 c 0
 12 -53 10 -53 7 -54 c 0
 5 -55 3 -57 2 -58 c 0
 1 -59 1 -59 -2 -62 c 0
 -4 -64 -4 -64 -5 -65 c 0
 -8 -68 -9 -70 -10 -73 c 0
 -11 -75 -14 -77 -19 -77 c 0
 -25 -77 -28 -73 -28 -67 c 0
 -28 -64 -28 -62 -26 -60 c 0
 -24 -57 -24 -57 -22 -54 c 0
 -22 -54 -22 -53 -21 -53 c 0
 -21 -52 -21 -52 -20 -52 c 1
 -15 -46 -10 -41 -5 -38 c 0
 1 -34 8 -32 16 -32 c 0
 20 -32 23 -33 27 -35 c 0
 30 -37 33 -40 36 -43 c 0
 39 -46 41 -51 42 -56 c 0
 43 -61 44 -66 44 -70 c 0
 44 -81 41 -89 35 -96 c 0
 29 -103 21 -108 12 -111 c 0
 8 -113 4 -114 0 -114 c 0
 -3 -114 -8 -114 -12 -114 c 2
 -22 -114 l 2
 -25 -114 -28 -114 -32 -113 c 0
 -35 -112 -38 -111 -41 -110 c 0
 -52 -106 -61 -99 -68 -90 c 0
 -75 -80 -79 -70 -79 -58 c 0
88 59 m 2
 88 62 l 1
 88 64 90 66 92 68 c 0
 94 71 96 72 98 73 c 0
 99 74 100 74 100 74 c 0
 101 74 102 74 103 74 c 0
 107 74 110 73 113 70 c 0
 115 68 118 66 120 63 c 0
 122 62 123 59 123 57 c 2
 123 56 l 1
 123 55 123 54 122 52 c 0
 122 50 122 49 122 49 c 2
 122 48 121 48 121 47 c 0
 120 46 120 46 120 46 c 1
 119 44 117 43 114 42 c 0
 112 42 110 42 108 42 c 0
 106 42 105 42 103 42 c 0
 102 42 101 43 100 45 c 1
 100 45 99 45 99 46 c 0
 98 47 98 48 97 48 c 1
 97 49 96 49 96 49 c 0
 95 49 94 49 94 50 c 2
 91 51 90 52 89 54 c 0
 88 55 88 57 88 59 c 2
135 59 m 256
 135 65 137 68 141 69 c 0
 146 70 150 70 155 70 c 0
 158 70 160 69 162 67 c 0
 164 64 164 62 164 59 c 0
 164 57 164 55 164 54 c 1
 164 53 164 53 162 50 c 0
 161 48 161 48 160 47 c 0
 159 44 156 42 152 42 c 2
 149 42 l 2
 144 43 140 44 138 47 c 0
 136 49 135 53 135 59 c 256
170 59 m 0
 170 60 170 61 170 62 c 0
 171 62 171 63 172 64 c 1
 172 64 172 65 173 66 c 0
 174 67 l 1
 176 69 177 71 178 72 c 0
 179 73 181 74 184 74 c 0
 186 74 186 74 188 74 c 256
 189 74 191 74 192 74 c 0
 193 73 195 72 198 69 c 0
 200 66 201 64 201 62 c 1
 201 59 l 2
 201 58 201 56 201 55 c 0
 200 54 199 52 198 51 c 0
 197 50 196 49 194 48 c 0
 193 47 192 46 191 46 c 1
 189 45 188 45 186 45 c 2
 185 45 l 2
 184 45 l 0
 183 45 183 45 182 45 c 1
 181 46 181 46 179 47 c 0
 176 48 176 48 175 49 c 0
 172 51 170 54 170 59 c 0
EndSplineSet
EndChar

StartChar: uFF382
Encoding: 1045378 1045378 162
Width: 16
VWidth: 444
Flags: HW
LayerCount: 2
Fore
SplineSet
434 -160 m 1
 281 -98 l 1
 100 -34 l 1
 79 -29 l 1
 7 -14 l 2
 4 -14 4 -14 1 -14 c 0
 -2 -13 -4 -13 -6 -12 c 0
 -7 -11 -9 -10 -10 -8 c 0
 -12 -7 -12 -5 -12 -2 c 0
 -12 0 -12 2 -10 4 c 0
 -9 5 -8 7 -6 8 c 0
 -5 9 -4 9 -3 10 c 0
 -2 10 -1 10 0 10 c 2
 2 10 l 1
 55 1 l 1
 121 -15 l 1
 462 -130 l 1
 506 -142 l 1
 564 -153 l 2
 565 -153 566 -153 570 -154 c 0
 573 -154 576 -155 580 -155 c 0
 586 -156 586 -156 592 -156 c 0
 595 -157 598 -157 600 -158 c 0
 601 -158 602 -158 604 -158 c 0
 606 -158 608 -158 610 -158 c 0
 612 -158 614 -158 617 -158 c 0
 619 -158 620 -158 621 -158 c 2
 628 -158 l 2
 634 -158 639 -158 644 -158 c 0
 650 -158 655 -157 660 -156 c 0
 661 -156 662 -156 663 -156 c 0
 665 -155 666 -155 668 -155 c 0
 670 -154 672 -154 674 -154 c 0
 676 -153 677 -153 678 -153 c 0
 685 -151 691 -147 695 -141 c 0
 696 -139 696 -138 696 -136 c 0
 696 -135 696 -133 696 -131 c 2
 696 -127 l 2
 696 -126 696 -126 696 -125 c 0
 695 -125 695 -124 694 -124 c 2
 693 -124 l 1
 692 -125 690 -126 688 -127 c 0
 687 -128 685 -129 683 -129 c 0
 679 -129 676 -127 673 -123 c 2
 673 -122 l 1
 673 -115 l 2
 673 -114 674 -112 676 -111 c 0
 678 -109 679 -108 680 -107 c 0
 683 -106 685 -105 688 -104 c 0
 690 -104 692 -103 695 -103 c 0
 703 -103 708 -106 712 -112 c 0
 716 -118 717 -125 717 -131 c 0
 717 -139 716 -145 713 -150 c 0
 710 -155 706 -160 701 -165 c 1
 701 -165 701 -165 700 -165 c 0
 699 -166 699 -166 699 -166 c 1
 693 -169 687 -171 682 -173 c 1
 684 -173 l 2
 685 -173 687 -173 690 -172 c 0
 692 -172 695 -172 699 -172 c 0
 704 -171 704 -171 709 -171 c 0
 713 -171 716 -170 717 -170 c 0
 728 -169 738 -167 748 -165 c 0
 759 -163 769 -161 780 -158 c 0
 781 -157 784 -156 789 -154 c 0
 793 -153 796 -152 798 -151 c 0
 798 -151 799 -151 801 -150 c 0
 804 -149 804 -149 806 -148 c 0
 808 -147 810 -147 812 -146 c 0
 813 -145 815 -145 816 -144 c 0
 816 -144 818 -143 820 -142 c 0
 823 -141 825 -140 826 -139 c 0
 830 -138 834 -135 839 -132 c 0
 845 -129 849 -125 854 -121 c 0
 859 -117 862 -113 866 -108 c 0
 869 -103 870 -98 870 -93 c 0
 870 -89 869 -86 867 -83 c 0
 865 -80 861 -78 857 -78 c 0
 855 -78 854 -78 852 -79 c 0
 851 -79 850 -80 848 -81 c 0
 847 -82 846 -83 845 -83 c 0
 844 -84 842 -84 840 -84 c 0
 837 -84 835 -83 833 -81 c 0
 832 -79 831 -77 831 -74 c 0
 831 -73 831 -73 831 -71 c 0
 831 -70 831 -70 832 -69 c 0
 837 -64 842 -60 848 -58 c 2
 849 -58 849 -58 850 -58 c 2
 851 -58 l 1
 863 -58 l 1
 864 -58 l 2
 865 -58 865 -58 865 -58 c 1
 867 -59 869 -60 872 -60 c 0
 874 -61 875 -62 877 -64 c 0
 878 -65 878 -65 880 -67 c 0
 883 -70 883 -70 884 -71 c 0
 887 -74 888 -77 889 -81 c 0
 890 -85 891 -89 891 -93 c 2
 891 -98 l 1
 890 -101 890 -103 889 -104 c 0
 888 -107 888 -107 888 -110 c 0
 886 -113 885 -116 883 -118 c 0
 882 -121 880 -124 878 -126 c 0
 873 -132 867 -138 861 -142 c 0
 854 -147 848 -151 840 -155 c 0
 816 -168 790 -177 763 -183 c 0
 736 -188 708 -192 681 -194 c 1
 684 -194 688 -194 694 -194 c 0
 700 -194 707 -195 714 -195 c 0
 721 -196 728 -196 734 -196 c 0
 740 -197 744 -197 747 -197 c 2
 760 -197 l 1
 774 -197 l 2
 776 -197 780 -197 784 -196 c 0
 789 -196 794 -196 800 -195 c 0
 805 -195 810 -195 814 -194 c 0
 819 -194 822 -194 824 -194 c 0
 833 -193 842 -193 851 -191 c 0
 860 -190 869 -189 879 -187 c 0
 901 -183 924 -177 946 -167 c 0
 957 -163 967 -159 976 -153 c 0
 986 -148 995 -142 1004 -136 c 0
 1005 -135 1007 -134 1010 -132 c 0
 1014 -129 1014 -129 1016 -128 c 0
 1017 -127 1019 -125 1021 -124 c 0
 1023 -122 1025 -120 1025 -120 c 0
 1026 -119 1026 -119 1028 -118 c 0
 1029 -116 1029 -116 1031 -114 c 0
 1033 -112 1033 -112 1035 -110 c 0
 1037 -108 1037 -108 1038 -107 c 0
 1040 -104 1043 -101 1045 -97 c 0
 1047 -93 1048 -89 1048 -85 c 0
 1048 -82 1047 -79 1045 -75 c 0
 1044 -72 1041 -70 1038 -68 c 0
 1038 -67 1037 -67 1037 -67 c 0
 1036 -67 1036 -67 1036 -66 c 1
 1035 -66 l 1
 1035 -67 1034 -68 1033 -69 c 0
 1032 -70 1031 -70 1031 -71 c 1
 1031 -71 1030 -72 1028 -72 c 0
 1027 -72 1027 -72 1026 -72 c 0
 1022 -72 1019 -71 1015 -69 c 0
 1012 -67 1010 -64 1010 -60 c 0
 1010 -59 1010 -58 1010 -57 c 0
 1009 -57 1010 -56 1010 -55 c 0
 1012 -51 1015 -49 1020 -48 c 0
 1024 -46 1028 -46 1032 -46 c 0
 1038 -46 1043 -47 1047 -49 c 0
 1051 -51 1055 -55 1060 -59 c 0
 1063 -63 1065 -67 1066 -72 c 0
 1067 -76 1068 -81 1068 -85 c 2
 1068 -91 l 2
 1068 -91 1068 -92 1068 -94 c 0
 1067 -95 1067 -96 1067 -97 c 0
 1065 -101 1063 -105 1062 -110 c 0
 1060 -114 1057 -117 1054 -121 c 0
 1044 -131 1034 -140 1023 -148 c 0
 1012 -156 1000 -164 988 -170 c 0
 980 -175 972 -178 964 -182 c 0
 956 -186 948 -189 940 -192 c 0
 928 -196 915 -200 903 -203 c 0
 890 -206 877 -208 864 -210 c 0
 847 -213 829 -214 811 -215 c 0
 794 -216 776 -217 758 -217 c 2
 736 -217 l 1
 648 -211 l 2
 648 -211 645 -211 642 -211 c 0
 639 -210 635 -210 632 -209 c 0
 628 -209 624 -209 621 -208 c 0
 617 -208 615 -208 613 -207 c 0
 611 -207 608 -207 603 -206 c 0
 596 -205 596 -205 589 -203 c 0
 584 -202 580 -202 575 -201 c 0
 569 -199 569 -199 567 -199 c 0
 564 -198 559 -197 554 -196 c 0
 545 -194 545 -194 537 -192 c 0
 528 -190 528 -190 521 -188 c 0
 516 -187 513 -186 512 -185 c 2
 434 -160 l 1
EndSplineSet
EndChar

StartChar: uFF383
Encoding: 1045379 1045379 163
Width: 16
VWidth: 444
Flags: HW
LayerCount: 2
Fore
SplineSet
-4 -10 m 1
 -6 -9 -8 -8 -9 -6 c 0
 -10 -4 -11 -2 -11 0 c 256
 -11 3 -10 5 -8 6 c 0
 -7 8 -5 9 -3 10 c 0
 -3 10 -1 10 0 10 c 256
 2 10 2 10 3 10 c 0
 26 10 48 5 70 -4 c 0
 92 -13 110 -26 126 -42 c 0
 131 -48 136 -54 140 -60 c 0
 144 -66 148 -73 152 -79 c 0
 153 -81 154 -83 156 -87 c 0
 158 -90 159 -92 159 -93 c 1
 188 -159 l 1
 188 -159 188 -160 189 -161 c 0
 189 -163 190 -164 191 -166 c 0
 192 -168 192 -168 193 -170 c 0
 194 -172 194 -172 195 -173 c 0
 195 -174 196 -176 198 -178 c 0
 199 -181 200 -183 202 -186 c 0
 203 -188 205 -190 206 -192 c 0
 207 -195 208 -196 208 -197 c 0
 209 -198 210 -200 212 -203 c 0
 215 -207 215 -207 219 -213 c 0
 222 -218 222 -218 226 -223 c 0
 228 -226 229 -229 230 -230 c 0
 233 -234 236 -238 239 -242 c 0
 244 -247 244 -247 248 -253 c 0
 264 -270 281 -285 300 -297 c 0
 320 -309 341 -318 363 -323 c 0
 371 -325 379 -326 387 -327 c 0
 395 -328 403 -328 412 -328 c 0
 423 -328 434 -328 447 -326 c 0
 459 -325 470 -322 480 -318 c 0
 485 -315 485 -315 489 -313 c 0
 492 -311 495 -309 497 -307 c 1
 480 -307 l 2
 477 -307 475 -306 472 -306 c 0
 468 -304 468 -304 463 -303 c 0
 456 -301 450 -297 445 -291 c 0
 440 -286 436 -280 434 -273 c 0
 434 -271 433 -269 433 -267 c 0
 433 -266 433 -263 433 -261 c 2
 433 -255 l 1
 433 -252 435 -248 436 -244 c 0
 440 -231 449 -222 461 -217 c 1
 461 -217 462 -217 463 -216 c 0
 464 -216 464 -216 464 -216 c 1
 464 -215 l 1
 464 -214 l 2
 463 -214 l 1
 460 -212 457 -209 452 -206 c 0
 447 -204 443 -202 439 -202 c 2
 433 -202 l 2
 429 -202 426 -203 422 -204 c 0
 419 -205 416 -206 413 -209 c 0
 411 -211 408 -214 406 -216 c 0
 404 -219 401 -220 397 -220 c 0
 394 -220 392 -219 390 -217 c 0
 388 -215 387 -213 387 -210 c 0
 387 -207 388 -205 390 -202 c 0
 391 -202 391 -202 395 -198 c 0
 397 -195 399 -194 400 -193 c 0
 404 -189 409 -186 415 -184 c 0
 421 -182 427 -181 432 -181 c 0
 442 -181 452 -184 462 -189 c 0
 472 -194 481 -200 488 -207 c 0
 493 -212 493 -212 498 -217 c 0
 502 -222 502 -222 507 -227 c 1
 507 -226 l 2
 507 -225 507 -224 506 -223 c 0
 506 -221 505 -220 505 -219 c 0
 503 -216 502 -212 500 -209 c 0
 497 -206 495 -203 492 -200 c 2
 484 -192 l 2
 480 -189 480 -189 477 -186 c 0
 475 -184 474 -182 474 -178 c 0
 474 -175 475 -173 476 -171 c 0
 478 -169 481 -168 484 -168 c 0
 486 -168 488 -169 490 -170 c 0
 492 -172 494 -173 496 -175 c 0
 497 -176 497 -176 502 -181 c 0
 505 -184 508 -186 508 -187 c 0
 516 -196 522 -205 526 -216 c 0
 529 -227 531 -238 531 -250 c 0
 531 -257 531 -264 530 -271 c 2
 531 -271 531 -271 533 -270 c 0
 534 -269 535 -268 536 -267 c 0
 539 -264 542 -261 545 -258 c 0
 548 -254 549 -250 549 -246 c 0
 549 -243 549 -241 548 -239 c 0
 546 -237 546 -235 546 -233 c 0
 546 -226 549 -223 556 -223 c 2
 559 -223 l 2
 560 -223 561 -223 562 -224 c 0
 563 -225 563 -226 564 -227 c 0
 566 -229 568 -232 569 -236 c 0
 570 -239 570 -243 570 -246 c 0
 570 -252 569 -257 566 -263 c 0
 564 -268 560 -273 556 -277 c 0
 552 -281 547 -285 542 -288 c 0
 535 -293 535 -293 528 -298 c 0
 527 -298 527 -298 526 -299 c 0
 526 -300 526 -300 526 -301 c 1
 524 -305 524 -305 521 -310 c 0
 520 -313 518 -315 516 -318 c 0
 513 -321 510 -323 507 -326 c 0
 504 -328 500 -331 497 -333 c 0
 484 -339 471 -344 456 -346 c 0
 440 -348 426 -349 412 -349 c 0
 378 -349 346 -342 317 -329 c 0
 287 -315 261 -296 238 -272 c 0
 229 -262 220 -252 213 -241 c 0
 202 -225 202 -225 191 -208 c 1
 191 -207 190 -206 188 -204 c 0
 187 -201 187 -201 185 -197 c 0
 183 -194 183 -194 181 -190 c 0
 179 -188 178 -186 178 -186 c 0
 177 -184 177 -184 175 -181 c 0
 174 -178 174 -178 172 -174 c 0
 171 -172 170 -170 169 -168 c 0
 168 -166 167 -165 167 -164 c 2
 145 -110 l 1
 145 -110 144 -109 143 -108 c 0
 143 -106 142 -104 141 -102 c 0
 139 -99 139 -99 138 -96 c 0
 137 -94 136 -93 135 -92 c 0
 133 -87 130 -82 128 -78 c 0
 125 -74 122 -70 119 -66 c 0
 109 -53 97 -43 82 -34 c 0
 68 -25 53 -19 38 -15 c 0
 31 -14 24 -12 18 -12 c 0
 11 -11 4 -11 -4 -10 c 1
453 -262 m 0
 453 -266 454 -270 457 -273 c 0
 459 -276 462 -279 465 -281 c 0
 469 -283 472 -284 476 -285 c 0
 481 -286 485 -287 488 -287 c 0
 491 -287 495 -287 499 -286 c 0
 503 -286 506 -285 508 -283 c 1
 508 -281 508 -279 508 -277 c 0
 509 -275 509 -273 509 -271 c 0
 509 -268 508 -265 507 -264 c 0
 505 -261 505 -261 503 -257 c 0
 499 -251 495 -246 492 -242 c 0
 488 -237 482 -235 475 -235 c 0
 468 -235 463 -238 459 -244 c 0
 455 -250 453 -256 453 -262 c 0
EndSplineSet
EndChar

StartChar: uFF384
Encoding: 1045380 1045380 164
Width: 22
VWidth: 444
Flags: HW
LayerCount: 2
Fore
SplineSet
-98 71 m 0
 -98 81 -96 89 -92 98 c 0
 -89 106 -84 114 -78 120 c 0
 -72 127 -66 131 -59 135 c 0
 -52 138 -45 140 -36 140 c 0
 -24 140 -13 137 -3 131 c 0
 0 130 3 128 5 126 c 0
 9 122 9 122 12 119 c 0
 15 116 17 113 18 109 c 0
 20 105 21 101 21 99 c 2
 21 93 l 2
 21 74 13 60 -4 53 c 0
 -7 52 -10 51 -12 51 c 0
 -15 50 -17 50 -20 50 c 2
 -27 50 l 2
 -33 50 -38 53 -44 57 c 0
 -50 62 -53 67 -53 74 c 0
 -53 76 -52 79 -52 81 c 0
 -51 84 -49 86 -48 89 c 0
 -46 91 -44 93 -42 95 c 0
 -40 96 -37 97 -35 97 c 0
 -29 97 -25 94 -25 87 c 2
 -25 84 l 1
 -26 82 -27 81 -29 79 c 0
 -31 77 -32 76 -32 74 c 0
 -32 73 -30 72 -27 71 c 0
 -24 71 -22 71 -21 71 c 0
 -14 71 -9 73 -5 77 c 0
 -1 81 1 86 1 93 c 0
 1 97 0 100 -2 103 c 0
 -3 105 -6 108 -8 110 c 0
 -9 112 -11 113 -14 114 c 0
 -16 115 -18 116 -20 117 c 0
 -24 119 -29 120 -35 120 c 0
 -42 120 -47 118 -52 115 c 0
 -59 111 -66 105 -70 97 c 0
 -75 88 -78 80 -78 71 c 0
 -78 66 -77 60 -74 55 c 0
 -73 51 -71 48 -70 46 c 0
 -68 43 -66 41 -64 39 c 0
 -56 30 -47 23 -35 19 c 0
 -23 14 -11 12 0 11 c 0
 1 11 1 11 4 11 c 0
 6 11 9 11 11 11 c 0
 14 11 16 11 18 11 c 0
 22 11 22 11 23 11 c 0
 36 10 49 7 62 3 c 0
 75 -2 87 -8 97 -17 c 0
 101 -20 105 -24 109 -28 c 0
 115 -34 115 -34 120 -41 c 0
 124 -46 128 -51 132 -56 c 0
 135 -61 139 -66 142 -72 c 0
 142 -73 143 -74 144 -76 c 0
 145 -78 145 -78 147 -80 c 0
 148 -82 148 -83 149 -85 c 0
 150 -86 150 -86 150 -87 c 1
 181 -151 l 2
 181 -152 182 -153 184 -156 c 0
 185 -159 187 -161 187 -161 c 0
 200 -181 214 -198 231 -213 c 0
 248 -228 267 -241 288 -250 c 0
 289 -251 290 -251 292 -252 c 0
 294 -253 294 -253 297 -254 c 0
 299 -255 301 -256 303 -257 c 0
 304 -258 306 -258 307 -258 c 0
 314 -261 322 -263 330 -264 c 0
 337 -265 345 -265 353 -265 c 0
 373 -265 392 -262 409 -256 c 2
 410 -256 411 -255 412 -255 c 0
 413 -254 l 1
 413 -254 411 -253 408 -252 c 0
 405 -252 403 -251 402 -250 c 1
 402 -250 401 -250 400 -250 c 0
 398 -249 398 -249 397 -249 c 1
 394 -247 394 -247 390 -245 c 0
 387 -243 385 -242 382 -241 c 0
 375 -236 370 -230 366 -223 c 0
 362 -216 360 -208 360 -199 c 0
 360 -189 363 -179 368 -171 c 0
 374 -164 382 -157 392 -153 c 0
 395 -152 398 -151 402 -150 c 0
 405 -150 409 -149 412 -149 c 2
 420 -149 l 2
 421 -149 422 -150 423 -150 c 0
 424 -150 425 -150 426 -151 c 0
 430 -152 434 -154 437 -155 c 0
 440 -157 443 -159 447 -162 c 1
 447 -161 l 2
 447 -161 446 -160 445 -159 c 0
 444 -156 444 -156 443 -154 c 0
 440 -149 437 -144 433 -140 c 0
 429 -135 424 -131 418 -129 c 2
 418 -128 417 -128 416 -128 c 0
 415 -128 414 -128 411 -128 c 0
 409 -128 407 -128 406 -128 c 1
 405 -127 404 -127 403 -126 c 0
 402 -125 402 -125 401 -124 c 0
 400 -123 400 -122 400 -121 c 0
 400 -119 400 -119 400 -118 c 0
 400 -113 403 -110 408 -108 c 1
 412 -108 l 2
 421 -108 428 -110 435 -115 c 0
 442 -119 448 -124 453 -131 c 0
 458 -138 462 -145 465 -153 c 0
 469 -161 471 -169 472 -176 c 0
 473 -181 474 -186 474 -191 c 0
 474 -195 474 -200 474 -205 c 1
 479 -199 483 -191 487 -184 c 0
 492 -176 494 -168 494 -159 c 0
 494 -154 493 -149 491 -145 c 2
 491 -144 491 -143 490 -141 c 0
 489 -139 489 -138 489 -138 c 2
 489 -135 l 2
 489 -129 492 -125 499 -125 c 0
 503 -125 506 -127 507 -131 c 0
 509 -134 510 -137 512 -141 c 0
 512 -144 513 -147 513 -150 c 0
 514 -152 514 -156 514 -159 c 0
 514 -168 512 -176 509 -184 c 0
 506 -192 502 -200 497 -208 c 0
 495 -212 495 -212 492 -216 c 0
 490 -219 488 -222 485 -225 c 1
 489 -222 494 -220 498 -216 c 0
 502 -213 506 -209 508 -205 c 2
 509 -204 509 -203 509 -202 c 0
 510 -201 510 -200 510 -199 c 1
 510 -198 510 -197 510 -195 c 0
 511 -192 511 -191 511 -190 c 1
 511 -188 513 -186 514 -185 c 0
 516 -183 519 -182 521 -182 c 0
 524 -182 527 -183 529 -186 c 0
 530 -188 531 -191 531 -194 c 0
 531 -204 528 -212 523 -219 c 0
 518 -227 511 -233 503 -238 c 0
 495 -243 487 -247 477 -250 c 0
 468 -253 460 -255 452 -257 c 1
 450 -257 449 -258 448 -258 c 0
 447 -259 446 -259 444 -259 c 1
 431 -270 417 -277 401 -280 c 0
 385 -284 368 -285 352 -285 c 0
 345 -285 338 -285 331 -285 c 0
 324 -284 317 -283 310 -281 c 0
 301 -278 293 -275 286 -272 c 0
 278 -268 270 -265 263 -261 c 0
 241 -249 222 -234 205 -217 c 0
 188 -199 173 -180 161 -158 c 2
 161 -158 160 -156 158 -153 c 0
 157 -150 156 -148 156 -147 c 2
 155 -146 154 -144 153 -141 c 0
 151 -138 150 -135 148 -131 c 0
 147 -128 145 -124 144 -121 c 0
 143 -118 142 -116 141 -115 c 0
 135 -103 129 -91 122 -79 c 0
 115 -68 107 -57 98 -46 c 0
 91 -38 83 -32 76 -27 c 0
 69 -22 60 -18 49 -15 c 0
 44 -13 39 -12 34 -11 c 0
 29 -10 24 -10 19 -9 c 0
 12 -9 5 -9 -1 -9 c 0
 -8 -9 -14 -8 -21 -7 c 0
 -25 -6 -28 -5 -32 -4 c 0
 -36 -3 -39 -2 -43 0 c 0
 -50 3 -58 7 -64 11 c 0
 -71 16 -77 22 -82 28 c 0
 -86 34 -90 40 -93 48 c 0
 -96 55 -98 63 -98 71 c 0
381 -199 m 2
 381 -201 381 -201 381 -204 c 256
 381 -206 381 -208 382 -209 c 2
 382 -209 383 -210 383 -211 c 0
 384 -213 384 -213 384 -214 c 2
 385 -215 l 2
 385 -215 385 -215 386 -216 c 0
 391 -221 396 -225 402 -228 c 0
 407 -231 414 -233 421 -234 c 0
 424 -235 426 -235 429 -236 c 0
 431 -236 434 -236 436 -236 c 0
 437 -236 438 -235 440 -233 c 0
 441 -230 443 -227 444 -223 c 0
 444 -220 445 -217 445 -213 c 0
 445 -209 445 -206 444 -203 c 0
 443 -199 442 -196 441 -192 c 0
 438 -185 435 -180 431 -176 c 0
 427 -172 420 -170 412 -170 c 0
 407 -170 402 -171 397 -173 c 0
 392 -175 388 -179 385 -183 c 0
 384 -185 383 -186 382 -188 c 0
 381 -190 381 -192 381 -193 c 2
 381 -199 l 2
EndSplineSet
EndChar

StartChar: uFF385
Encoding: 1045381 1045381 165
Width: 16
VWidth: 444
Flags: HW
LayerCount: 2
Fore
SplineSet
-10 0 m 0
 -10 5 -9 8 -6 9 c 0
 -3 10 1 11 6 11 c 0
 18 11 29 8 39 2 c 0
 49 -4 58 -12 66 -20 c 0
 68 -22 69 -24 72 -26 c 0
 74 -29 75 -31 76 -32 c 2
 118 -92 l 2
 135 -117 160 -129 190 -129 c 0
 198 -129 206 -128 214 -126 c 0
 222 -124 228 -119 233 -113 c 0
 234 -111 235 -109 235 -108 c 0
 236 -106 236 -104 236 -102 c 0
 236 -100 236 -98 236 -96 c 0
 236 -95 235 -93 234 -92 c 1
 234 -91 233 -91 232 -89 c 0
 230 -88 230 -88 229 -87 c 0
 227 -85 225 -84 223 -84 c 0
 222 -84 222 -85 221 -86 c 0
 221 -87 220 -88 220 -89 c 0
 219 -90 218 -91 216 -92 c 0
 215 -93 213 -94 211 -94 c 0
 208 -94 206 -93 204 -91 c 0
 202 -89 201 -87 201 -84 c 0
 201 -80 203 -76 206 -71 c 0
 210 -67 213 -64 218 -64 c 1
 222 -64 l 1
 227 -64 l 1
 228 -64 l 2
 229 -64 229 -64 230 -64 c 2
 238 -67 244 -71 249 -78 c 0
 254 -85 257 -93 257 -101 c 0
 257 -107 255 -113 253 -118 c 0
 251 -123 248 -127 244 -131 c 0
 240 -135 235 -139 230 -141 c 0
 225 -144 219 -146 214 -147 c 0
 210 -148 206 -149 202 -149 c 0
 199 -150 195 -150 190 -150 c 0
 179 -150 168 -148 157 -145 c 0
 147 -142 137 -137 128 -131 c 0
 127 -130 126 -129 125 -128 c 0
 124 -128 123 -127 122 -127 c 2
 110 -115 l 2
 110 -114 110 -114 109 -113 c 0
 108 -112 107 -111 107 -111 c 2
 106 -109 l 1
 106 -111 l 2
 106 -111 106 -112 107 -115 c 0
 108 -118 109 -121 110 -125 c 0
 112 -131 112 -131 114 -138 c 0
 117 -144 117 -144 118 -148 c 0
 122 -160 127 -171 133 -183 c 0
 136 -189 140 -196 144 -204 c 0
 149 -211 154 -216 160 -221 c 0
 165 -225 171 -228 178 -230 c 0
 184 -233 191 -234 197 -234 c 0
 199 -234 202 -233 205 -233 c 0
 208 -232 211 -231 213 -230 c 1
 213 -229 214 -228 216 -226 c 0
 218 -224 218 -224 219 -223 c 0
 221 -221 222 -219 222 -216 c 2
 222 -214 l 2
 222 -213 221 -213 221 -213 c 1
 220 -213 218 -212 217 -212 c 0
 215 -211 214 -210 213 -209 c 0
 213 -208 212 -208 212 -207 c 0
 212 -206 211 -206 211 -205 c 2
 211 -203 l 2
 211 -198 214 -194 219 -192 c 0
 220 -191 221 -191 222 -191 c 0
 225 -191 228 -192 230 -194 c 0
 233 -195 235 -197 237 -200 c 0
 239 -202 241 -205 242 -207 c 0
 242 -210 243 -213 243 -216 c 0
 243 -225 239 -234 232 -241 c 0
 225 -248 217 -252 208 -253 c 0
 206 -254 204 -254 202 -254 c 0
 201 -254 201 -254 198 -254 c 0
 195 -254 192 -254 189 -254 c 0
 186 -253 184 -253 181 -252 c 1
 181 -252 179 -252 177 -251 c 0
 175 -251 174 -251 174 -251 c 2
 173 -251 l 1
 185 -260 199 -268 215 -273 c 0
 230 -278 246 -281 262 -281 c 0
 275 -281 288 -279 301 -274 c 0
 306 -272 311 -270 315 -267 c 0
 320 -265 324 -261 328 -258 c 0
 329 -258 329 -257 330 -256 c 0
 331 -256 332 -255 332 -255 c 0
 340 -247 346 -239 352 -231 c 0
 357 -222 359 -213 359 -202 c 0
 359 -199 359 -199 359 -196 c 256
 359 -193 359 -191 358 -189 c 0
 357 -184 355 -180 352 -176 c 0
 350 -172 346 -168 343 -165 c 0
 342 -164 341 -164 340 -163 c 0
 338 -163 337 -162 336 -162 c 1
 337 -164 337 -166 337 -168 c 0
 337 -172 336 -175 332 -176 c 0
 329 -178 326 -179 322 -179 c 0
 318 -179 314 -177 311 -175 c 0
 308 -172 306 -169 306 -164 c 0
 306 -159 309 -154 313 -149 c 0
 317 -145 322 -142 328 -142 c 2
 334 -142 l 1
 340 -142 l 1
 342 -142 344 -143 346 -144 c 0
 348 -144 350 -145 351 -146 c 0
 352 -147 353 -147 354 -148 c 0
 356 -149 356 -149 357 -150 c 2
 366 -159 l 2
 369 -162 371 -166 373 -171 c 0
 376 -178 376 -178 378 -184 c 0
 379 -187 379 -190 380 -192 c 0
 380 -195 380 -198 380 -201 c 2
 380 -210 l 2
 380 -211 380 -211 380 -212 c 0
 379 -213 379 -214 379 -214 c 2
 377 -226 373 -236 367 -245 c 0
 361 -254 354 -262 346 -270 c 0
 334 -281 322 -289 307 -294 c 0
 293 -298 278 -301 262 -301 c 0
 242 -301 221 -297 202 -290 c 0
 182 -283 165 -272 150 -258 c 0
 145 -253 141 -249 137 -243 c 0
 131 -236 131 -236 125 -228 c 0
 117 -217 111 -206 105 -195 c 0
 99 -183 95 -171 90 -159 c 0
 90 -158 90 -157 89 -155 c 0
 88 -152 88 -152 87 -150 c 0
 86 -147 86 -147 86 -144 c 0
 85 -142 85 -140 84 -140 c 0
 84 -139 83 -137 83 -134 c 0
 82 -132 81 -129 80 -125 c 0
 80 -122 79 -119 78 -116 c 0
 77 -113 77 -112 77 -111 c 0
 75 -104 72 -98 70 -92 c 0
 67 -84 67 -84 63 -74 c 0
 61 -69 58 -63 54 -56 c 0
 51 -50 47 -44 43 -39 c 0
 39 -33 34 -28 29 -24 c 0
 24 -19 19 -16 13 -13 c 0
 9 -11 6 -11 4 -10 c 0
 3 -10 2 -10 0 -10 c 0
 -2 -10 -3 -10 -3 -10 c 0
 -5 -9 -6 -9 -6 -8 c 0
 -7 -7 -8 -6 -9 -5 c 0
 -10 -4 -10 -4 -10 -3 c 256
 -10 -2 -10 -2 -10 0 c 0
172 -249 m 0
 172 -249 171 -249 171 -250 c 0
 172 -251 l 0
 173 -251 173 -250 173 -250 c 0
 173 -249 173 -249 172 -249 c 0
105 -108 m 0
 106 -108 l 0
 106 -109 105 -109 105 -109 c 256
 105 -109 105 -109 105 -108 c 0
EndSplineSet
EndChar

StartChar: uFF386
Encoding: 1045382 1045382 166
Width: 364
VWidth: 444
Flags: HW
LayerCount: 2
Fore
SplineSet
450 2 m 1
 448 2 l 1
 439 0 431 -2 422 -4 c 0
 414 -5 405 -6 397 -7 c 0
 396 -7 395 -7 394 -7 c 0
 392 -8 390 -8 388 -8 c 0
 384 -8 384 -8 381 -8 c 0
 379 -9 378 -9 376 -9 c 2
 375 -9 373 -9 370 -9 c 0
 367 -9 365 -10 365 -10 c 2
 0 -10 l 2
 0 -10 -1 -9 -2 -9 c 0
 -2 -8 -3 -8 -4 -8 c 1
 -6 -6 -7 -3 -7 1 c 0
 -7 6 -5 9 0 10 c 0
 1 10 2 10 4 10 c 0
 5 10 7 11 9 11 c 0
 11 11 13 11 15 11 c 0
 17 11 18 11 19 11 c 0
 32 13 45 16 56 21 c 0
 68 27 79 33 90 41 c 0
 91 42 94 44 97 46 c 0
 100 48 102 50 102 50 c 2
 168 110 l 2
 169 111 171 112 174 114 c 0
 178 118 178 118 180 119 c 0
 193 129 207 136 221 140 c 0
 236 144 251 146 268 146 c 0
 282 146 296 144 309 140 c 0
 323 136 335 130 348 122 c 0
 366 111 383 98 400 84 c 0
 409 75 418 66 427 57 c 0
 440 44 440 44 452 30 c 0
 453 29 453 29 455 27 c 2
 456 26 l 1
 458 26 l 2
 458 26 460 27 464 28 c 0
 468 30 471 31 474 31 c 0
 489 37 503 44 517 52 c 0
 531 61 543 71 553 84 c 0
 558 89 562 95 566 100 c 0
 569 106 572 112 576 119 c 0
 580 129 583 140 583 152 c 0
 583 161 581 170 579 178 c 0
 576 186 573 194 569 202 c 0
 566 207 562 212 558 217 c 0
 554 221 550 225 546 230 c 0
 545 230 545 230 544 231 c 0
 542 232 541 233 541 233 c 0
 535 238 528 241 521 244 c 0
 514 246 506 247 499 247 c 0
 491 247 484 246 478 244 c 0
 469 242 463 238 459 231 c 0
 455 225 452 218 452 209 c 0
 452 203 453 198 455 193 c 0
 457 189 460 185 464 180 c 2
 472 172 l 2
 473 171 475 170 477 169 c 0
 479 169 481 168 482 168 c 0
 483 167 485 167 488 167 c 0
 490 167 492 166 492 166 c 1
 494 166 l 2
 498 166 501 168 504 171 c 1
 500 171 497 171 494 172 c 0
 491 174 489 177 489 181 c 0
 489 186 491 189 495 190 c 0
 498 191 502 192 506 192 c 2
 511 192 l 1
 514 191 516 190 517 189 c 1
 523 186 526 181 526 174 c 0
 526 165 522 158 516 153 c 0
 509 148 501 146 493 146 c 0
 474 146 458 154 446 169 c 0
 437 181 432 195 432 210 c 0
 432 220 435 230 440 240 c 0
 445 250 454 257 465 262 c 0
 476 266 487 268 498 268 c 2
 507 268 l 2
 511 267 515 267 519 266 c 0
 523 264 527 263 532 262 c 0
 536 260 540 258 544 256 c 0
 549 253 553 250 556 247 c 0
 567 240 576 230 583 218 c 0
 591 207 596 194 599 182 c 0
 601 177 602 172 602 168 c 0
 602 163 603 158 603 153 c 2
 603 141 l 2
 602 136 601 131 600 125 c 0
 598 119 596 114 594 110 c 0
 591 104 591 104 589 99 c 0
 587 96 585 93 583 90 c 0
 579 82 574 76 568 70 c 0
 560 62 560 62 552 53 c 0
 551 52 550 51 548 50 c 0
 546 49 545 47 544 47 c 0
 533 38 522 31 510 25 c 0
 498 19 485 14 472 9 c 1
 472 9 473 8 474 7 c 0
 475 6 475 5 476 5 c 1
 492 -11 l 2
 493 -13 495 -15 499 -18 c 0
 505 -24 505 -24 512 -30 c 0
 519 -36 519 -36 525 -41 c 0
 531 -47 531 -47 534 -49 c 0
 542 -56 550 -62 559 -68 c 0
 572 -77 572 -77 585 -86 c 0
 592 -90 592 -90 600 -94 c 0
 605 -97 611 -100 616 -102 c 0
 624 -105 632 -108 640 -110 c 0
 648 -112 657 -113 665 -115 c 0
 671 -116 676 -116 681 -116 c 0
 686 -117 692 -117 697 -117 c 2
 709 -117 l 2
 710 -117 712 -117 715 -116 c 0
 718 -116 720 -116 721 -116 c 1
 722 -115 723 -115 725 -115 c 0
 727 -115 728 -114 728 -114 c 1
 729 -114 730 -114 732 -114 c 0
 734 -113 735 -113 736 -113 c 0
 739 -112 739 -112 742 -110 c 0
 745 -110 747 -108 749 -107 c 0
 751 -106 753 -104 755 -102 c 0
 756 -101 757 -99 757 -96 c 0
 757 -94 757 -93 756 -93 c 0
 756 -92 755 -91 755 -90 c 0
 754 -88 754 -87 754 -86 c 0
 753 -84 753 -83 753 -82 c 0
 753 -79 754 -76 756 -74 c 0
 758 -72 760 -71 763 -71 c 0
 767 -71 769 -72 771 -74 c 0
 772 -76 773 -79 775 -82 c 0
 776 -84 776 -87 777 -89 c 0
 777 -91 778 -94 778 -96 c 0
 778 -105 775 -113 769 -118 c 0
 763 -124 755 -128 747 -131 c 0
 738 -133 729 -135 720 -136 c 0
 710 -137 703 -138 696 -138 c 0
 681 -138 665 -136 649 -133 c 0
 634 -131 619 -126 604 -119 c 0
 603 -119 600 -117 596 -115 c 0
 593 -113 590 -112 589 -111 c 0
 588 -111 586 -110 583 -108 c 0
 579 -106 579 -106 574 -103 c 0
 570 -100 570 -100 566 -98 c 0
 563 -96 561 -95 560 -94 c 0
 559 -94 558 -93 557 -92 c 0
 554 -90 554 -90 552 -89 c 0
 549 -87 549 -87 547 -85 c 0
 545 -84 544 -83 544 -83 c 0
 542 -82 542 -82 538 -79 c 0
 535 -76 535 -76 531 -73 c 0
 528 -70 528 -70 524 -68 c 0
 522 -66 521 -65 520 -65 c 0
 519 -63 516 -61 512 -57 c 0
 506 -52 506 -52 499 -46 c 0
 492 -39 492 -39 486 -34 c 0
 482 -30 480 -28 478 -26 c 2
 477 -26 475 -24 472 -21 c 0
 468 -17 468 -17 464 -12 c 0
 459 -8 459 -8 455 -4 c 0
 452 -1 451 1 450 2 c 1
112 31 m 1
 116 26 120 19 122 11 c 1
 81 11 l 1
 81 11 83 13 86 14 c 0
 89 15 91 17 92 17 c 0
 92 18 93 19 95 20 c 0
 98 22 98 22 101 24 c 0
 104 26 104 26 107 28 c 0
 110 30 110 30 112 31 c 1
128 45 m 1
 132 40 135 34 138 29 c 0
 140 23 142 17 144 11 c 1
 164 11 l 256
 164 12 164 12 164 12 c 1
 165 14 165 16 166 18 c 0
 166 19 166 21 167 24 c 0
 167 24 167 25 167 26 c 0
 167 28 167 28 167 29 c 2
 167 36 l 2
 167 42 167 48 165 53 c 0
 164 58 161 62 156 66 c 1
 155 67 l 2
 155 67 154 67 154 68 c 1
 153 68 l 1
 152 68 l 2
 152 67 152 67 152 67 c 1
 151 66 150 65 148 63 c 0
 144 60 144 60 141 57 c 0
 137 54 137 54 134 51 c 0
 132 49 131 48 130 47 c 2
 128 45 l 1
188 36 m 1
 188 26 l 2
 188 25 187 24 187 23 c 0
 187 22 187 21 187 20 c 1
 187 20 187 18 186 16 c 0
 186 14 186 13 186 13 c 256
 186 12 186 12 186 12 c 2
 185 11 l 1
 209 11 l 2
 210 12 210 12 210 12 c 0
 211 13 211 13 211 14 c 0
 218 23 221 33 221 44 c 0
 221 54 218 64 213 74 c 0
 208 83 201 91 193 97 c 0
 193 97 192 98 192 99 c 0
 191 99 190 100 189 100 c 0
 188 100 188 99 188 98 c 1
 185 97 185 97 180 92 c 0
 176 90 174 88 174 87 c 2
 169 82 l 1
 169 82 171 81 173 79 c 0
 175 77 176 75 177 75 c 2
 178 74 l 2
 178 73 178 73 179 72 c 2
 179 71 180 71 180 70 c 1
 182 67 184 63 185 59 c 0
 186 55 187 51 188 47 c 1
 188 36 l 1
241 43 m 0
 241 37 240 32 239 26 c 0
 238 21 236 16 234 11 c 1
 258 11 l 1
 259 11 l 1
 259 12 259 12 260 13 c 1
 260 14 260 14 261 15 c 0
 262 16 262 17 262 17 c 0
 266 25 270 33 272 42 c 0
 275 51 276 60 276 69 c 0
 276 79 274 89 271 99 c 0
 268 108 263 117 256 125 c 1
 253 125 l 2
 247 125 241 124 235 123 c 0
 228 121 222 119 217 117 c 0
 215 116 215 116 212 115 c 0
 210 114 209 113 209 113 c 1
 208 112 l 1
 218 102 226 92 232 82 c 0
 238 71 241 58 241 43 c 0
282 11 m 1
 307 11 l 2
 307 11 309 12 310 15 c 0
 313 18 313 18 315 21 c 0
 320 28 325 36 328 44 c 0
 331 53 332 61 332 71 c 0
 332 78 331 86 330 94 c 0
 329 97 329 100 328 104 c 0
 327 108 327 110 326 110 c 2
 326 111 l 1
 325 111 324 112 321 113 c 0
 319 115 317 116 315 116 c 0
 312 118 308 119 304 120 c 0
 301 121 297 122 294 123 c 0
 292 124 290 124 288 125 c 0
 286 125 284 125 282 125 c 2
 281 125 l 1
 286 116 290 107 292 98 c 0
 295 89 296 79 296 69 c 0
 296 49 291 30 282 11 c 1
352 70 m 2
 352 59 351 49 348 39 c 0
 344 30 340 20 333 11 c 1
 360 11 l 2
 360 11 361 11 362 11 c 0
 363 11 364 11 365 11 c 1
 366 12 l 2
 366 12 366 12 367 13 c 0
 367 13 367 13 368 14 c 0
 369 14 369 15 369 15 c 1
 374 19 378 24 381 30 c 0
 384 37 385 43 385 49 c 0
 385 54 384 59 383 62 c 0
 382 66 381 70 378 74 c 1
 378 75 l 1
 378 76 377 76 376 77 c 0
 376 77 375 78 374 78 c 0
 368 83 368 83 363 87 c 0
 359 90 355 93 351 95 c 2
 351 94 351 93 351 90 c 0
 351 88 352 86 352 86 c 1
 352 85 352 83 352 82 c 0
 352 80 352 79 352 78 c 2
 352 70 l 2
396 14 m 1
 399 14 l 1
 399 14 401 14 403 14 c 0
 405 14 407 15 408 15 c 1
 408 15 409 15 412 16 c 0
 414 16 416 16 418 17 c 0
 421 17 423 18 425 18 c 0
 428 18 429 19 431 19 c 1
 431 19 432 19 432 20 c 2
 433 20 l 1
 433 21 432 21 432 22 c 0
 431 23 430 24 429 24 c 0
 428 26 428 26 425 29 c 0
 421 33 421 33 418 37 c 0
 414 41 414 41 410 44 c 0
 407 48 407 48 406 49 c 1
 405 43 404 37 403 31 c 0
 401 26 399 20 396 14 c 1
EndSplineSet
EndChar

StartChar: uFF387
Encoding: 1045383 1045383 167
Width: 367
VWidth: 444
Flags: HW
LayerCount: 2
Fore
SplineSet
462 17 m 2
 461 17 461 17 461 17 c 0
 460 17 l 1
 459 16 458 16 456 15 c 0
 455 14 453 14 450 13 c 0
 448 12 446 11 444 11 c 0
 442 10 441 10 441 10 c 2
 430 5 418 2 406 0 c 0
 395 -3 383 -5 371 -6 c 1
 367 -8 l 1
 329 -10 l 1
 0 -10 l 2
 0 -10 -2 -10 -4 -9 c 0
 -7 -8 -9 -8 -11 -7 c 0
 -17 -5 -23 -2 -29 2 c 0
 -34 6 -39 10 -44 15 c 0
 -47 18 -49 22 -52 28 c 0
 -54 33 -55 38 -56 42 c 2
 -56 50 l 1
 -56 57 l 2
 -56 60 -55 63 -54 65 c 0
 -53 70 -53 70 -52 74 c 0
 -47 84 -41 93 -32 100 c 0
 -22 108 -12 111 0 111 c 0
 5 111 10 111 16 109 c 0
 21 108 26 105 31 102 c 0
 35 99 39 95 42 91 c 0
 44 86 46 81 46 75 c 0
 46 69 44 63 42 58 c 0
 39 53 35 49 31 44 c 0
 25 39 18 37 10 37 c 0
 4 37 -1 39 -6 43 c 0
 -12 47 -14 53 -14 58 c 0
 -14 65 -11 69 -4 69 c 0
 -2 69 0 68 2 67 c 0
 3 66 4 64 5 63 c 0
 6 61 6 61 7 59 c 0
 8 58 9 58 11 58 c 0
 14 58 18 60 21 64 c 0
 24 68 26 72 26 75 c 0
 26 78 25 80 23 82 c 0
 21 84 19 86 16 87 c 0
 13 88 10 89 7 90 c 0
 4 91 1 91 -1 91 c 0
 -1 91 -2 91 -4 91 c 0
 -5 91 -5 90 -6 90 c 2
 -7 90 l 2
 -8 90 l 0
 -17 88 -23 82 -28 74 c 0
 -33 66 -36 58 -36 50 c 0
 -36 43 -34 38 -32 34 c 0
 -29 30 -25 26 -20 21 c 0
 -17 18 -13 16 -9 14 c 0
 -5 12 -1 11 4 10 c 1
 12 10 l 2
 19 10 26 11 33 13 c 0
 40 15 46 17 53 21 c 0
 64 26 75 32 85 39 c 0
 95 46 105 53 114 61 c 0
 115 62 116 63 119 65 c 0
 122 68 123 69 124 70 c 0
 125 71 125 71 129 75 c 0
 133 78 133 78 137 83 c 0
 142 87 142 87 146 91 c 0
 150 94 150 94 151 95 c 0
 170 112 190 126 212 137 c 0
 234 148 257 154 283 154 c 0
 304 154 325 150 345 142 c 0
 365 133 383 122 400 109 c 0
 400 109 401 108 402 107 c 0
 404 105 404 105 407 103 c 0
 409 101 409 101 412 99 c 0
 413 98 414 97 415 97 c 0
 416 96 417 95 419 93 c 0
 421 91 422 90 423 90 c 1
 467 42 l 1
 467 42 468 43 470 44 c 0
 472 45 474 46 476 47 c 0
 486 53 496 60 505 67 c 0
 514 75 522 83 530 92 c 0
 540 105 549 118 555 132 c 0
 561 145 564 161 564 177 c 0
 564 185 564 192 562 200 c 0
 561 208 559 215 556 222 c 0
 555 226 553 229 552 233 c 0
 550 237 548 241 547 244 c 0
 543 250 539 255 533 260 c 0
 528 265 522 268 516 272 c 0
 509 275 503 277 496 279 c 0
 488 280 481 281 475 281 c 0
 462 281 450 279 438 274 c 0
 427 270 417 262 409 253 c 0
 404 247 401 241 398 234 c 0
 396 228 395 221 395 214 c 256
 395 207 396 201 398 195 c 0
 400 189 403 183 407 178 c 0
 411 174 416 170 421 167 c 0
 427 164 433 163 440 163 c 0
 443 163 447 163 450 164 c 0
 453 164 456 166 459 167 c 0
 462 169 464 171 466 173 c 0
 468 176 468 178 468 182 c 0
 468 184 468 185 468 186 c 0
 468 188 468 188 467 190 c 1
 465 188 464 186 462 185 c 0
 460 185 458 184 456 184 c 0
 452 184 449 185 446 188 c 0
 444 190 443 193 443 197 c 2
 443 200 l 1
 443 201 444 202 444 203 c 0
 445 204 446 205 446 206 c 0
 447 207 449 210 452 212 c 0
 455 215 458 216 460 216 c 2
 464 216 l 2
 465 216 467 216 468 216 c 0
 468 217 469 216 471 216 c 0
 477 213 482 208 484 202 c 0
 487 195 488 189 488 182 c 2
 488 176 l 2
 488 175 488 173 488 172 c 0
 487 170 487 169 486 168 c 0
 483 162 479 157 474 153 c 0
 470 149 464 146 458 145 c 0
 457 144 456 144 455 144 c 0
 454 144 453 144 453 143 c 1
 452 143 452 143 451 143 c 2
 449 143 l 1
 432 143 l 2
 431 143 431 143 430 143 c 0
 429 143 429 143 428 143 c 1
 419 145 412 148 405 153 c 0
 399 157 393 162 389 169 c 0
 384 175 381 182 378 190 c 0
 376 197 375 205 375 214 c 0
 375 225 377 235 381 245 c 0
 385 255 391 264 398 271 c 0
 406 279 414 285 424 290 c 0
 433 295 444 298 455 300 c 0
 456 300 458 300 460 301 c 0
 462 301 464 301 464 301 c 2
 474 301 l 1
 484 301 l 2
 490 301 495 300 500 299 c 0
 505 297 511 296 516 294 c 0
 531 289 543 281 552 270 c 0
 562 259 569 247 574 232 c 0
 577 225 579 218 581 210 c 0
 583 203 584 196 584 189 c 2
 584 178 l 1
 584 165 l 2
 584 164 584 164 584 162 c 0
 584 161 584 160 584 159 c 0
 580 137 572 116 559 97 c 0
 546 78 531 61 513 47 c 0
 509 44 506 41 502 39 c 0
 499 37 495 34 491 32 c 0
 490 32 489 31 486 30 c 0
 484 28 483 28 483 27 c 2
 482 26 l 1
 485 23 l 1
 485 22 486 21 489 19 c 0
 491 17 493 14 496 12 c 0
 499 9 501 6 504 3 c 0
 507 1 509 -1 511 -3 c 0
 515 -7 520 -11 525 -15 c 0
 533 -22 533 -22 540 -27 c 0
 554 -37 569 -46 586 -52 c 0
 602 -59 619 -64 636 -67 c 0
 637 -67 638 -67 641 -68 c 0
 643 -68 644 -68 645 -68 c 0
 646 -68 649 -68 652 -69 c 0
 655 -69 657 -69 660 -69 c 0
 663 -69 666 -70 669 -70 c 0
 671 -70 673 -70 673 -70 c 0
 674 -70 674 -70 676 -70 c 0
 679 -70 681 -70 683 -70 c 0
 685 -70 688 -70 690 -70 c 0
 693 -70 693 -70 696 -70 c 0
 697 -70 697 -70 700 -70 c 256
 702 -70 704 -70 707 -70 c 0
 709 -70 711 -70 713 -70 c 256
 716 -70 716 -70 718 -70 c 0
 727 -69 737 -68 746 -67 c 0
 755 -66 765 -64 774 -61 c 0
 776 -60 779 -60 782 -58 c 0
 786 -57 786 -57 790 -55 c 0
 791 -55 791 -55 795 -53 c 0
 799 -51 799 -51 800 -50 c 0
 801 -50 801 -50 802 -50 c 0
 802 -50 803 -50 804 -50 c 0
 807 -50 809 -51 811 -53 c 0
 813 -54 814 -57 814 -60 c 0
 814 -62 813 -65 812 -66 c 2
 811 -67 811 -67 810 -68 c 0
 810 -68 809 -68 809 -69 c 1
 792 -78 774 -84 754 -87 c 0
 735 -89 716 -91 697 -91 c 2
 687 -91 l 2
 676 -91 665 -90 654 -90 c 0
 644 -89 633 -88 623 -86 c 0
 614 -83 614 -83 606 -81 c 0
 600 -80 594 -78 588 -76 c 0
 567 -68 547 -58 529 -44 c 0
 511 -31 494 -16 478 0 c 0
 478 0 477 2 475 3 c 0
 473 6 473 6 470 8 c 0
 468 11 468 11 465 14 c 0
 464 15 463 17 462 17 c 2
131 49 m 1
 123 41 114 34 105 28 c 0
 97 22 88 16 78 10 c 1
 136 10 l 1
 136 11 l 2
 137 12 137 12 137 12 c 1
 137 13 137 13 138 13 c 2
 138 14 l 2
 138 15 138 16 139 17 c 0
 139 18 139 19 139 19 c 0
 139 20 139 20 139 21 c 0
 139 22 140 22 140 22 c 2
 140 26 l 2
 140 35 137 42 132 48 c 2
 132 49 l 1
 131 49 l 1
160 26 m 0
 160 24 160 24 160 22 c 256
 160 20 160 19 160 19 c 1
 160 18 159 17 159 15 c 0
 159 13 159 12 159 12 c 2
 159 10 l 1
 175 10 l 1
 175 10 175 11 176 12 c 0
 176 13 177 14 177 15 c 0
 179 20 181 25 182 30 c 0
 183 36 184 41 184 46 c 0
 184 53 183 60 180 66 c 0
 177 72 173 77 169 83 c 1
 168 83 168 83 167 82 c 0
 166 81 165 80 164 80 c 0
 164 79 163 78 161 76 c 0
 159 74 157 73 157 73 c 0
 155 70 155 70 151 67 c 2
 147 63 l 1
 153 56 157 47 159 37 c 1
 159 37 160 36 160 35 c 256
 160 34 160 34 160 34 c 1
 160 34 160 33 160 30 c 256
 160 27 160 27 160 26 c 0
204 47 m 2
 204 42 204 37 204 34 c 0
 203 30 202 25 201 21 c 1
 200 20 200 18 199 15 c 0
 198 12 198 11 197 10 c 1
 223 10 l 1
 224 13 225 15 226 17 c 0
 228 21 228 21 230 24 c 0
 233 30 236 36 238 41 c 0
 239 46 240 53 240 59 c 0
 240 66 239 73 238 80 c 0
 237 87 236 93 233 99 c 0
 232 101 231 103 230 105 c 0
 229 107 227 109 226 111 c 0
 225 112 225 112 222 114 c 0
 220 117 220 117 219 118 c 1
 213 115 208 112 202 109 c 0
 197 106 192 102 187 98 c 2
 185 97 l 1
 185 96 l 1
 188 92 191 88 194 84 c 0
 196 80 199 76 200 71 c 0
 201 69 202 66 203 63 c 0
 204 60 204 58 204 55 c 2
 204 47 l 2
246 10 m 1
 270 10 l 1
 271 10 l 2
 271 11 271 11 271 11 c 1
 272 12 l 0
 273 13 273 13 273 14 c 1
 281 25 287 36 293 46 c 0
 298 57 300 70 300 84 c 0
 300 92 299 101 297 109 c 0
 295 117 292 125 288 132 c 1
 288 133 288 133 288 133 c 256
 288 133 288 134 287 134 c 1
 282 134 l 2
 275 134 269 134 263 132 c 0
 256 131 250 130 244 128 c 0
 243 128 242 128 241 127 c 2
 240 127 l 1
 240 126 l 1
 247 117 253 106 256 94 c 0
 259 83 260 71 260 59 c 0
 260 50 259 42 257 34 c 0
 254 26 251 18 246 10 c 1
296 10 m 1
 320 10 l 2
 321 10 321 10 321 10 c 1
 321 11 322 12 323 12 c 1
 330 17 335 24 338 32 c 0
 342 40 345 48 347 56 c 0
 347 57 348 58 348 60 c 0
 349 62 349 63 349 63 c 2
 350 67 350 70 350 74 c 0
 351 77 351 80 351 84 c 0
 351 89 351 89 351 93 c 0
 351 96 350 99 350 102 c 1
 349 103 349 106 348 110 c 0
 347 115 347 117 346 118 c 1
 346 119 345 119 345 119 c 0
 344 119 344 120 344 120 c 1
 339 122 333 124 328 126 c 0
 323 128 318 129 312 130 c 1
 312 129 l 1
 315 121 317 114 319 107 c 0
 320 99 320 92 320 83 c 0
 320 80 320 76 320 72 c 0
 320 68 320 65 319 61 c 0
 316 51 313 43 310 35 c 0
 306 27 301 19 296 10 c 1
372 83 m 0
 372 74 370 64 368 55 c 0
 365 46 362 37 359 27 c 0
 357 24 356 22 355 19 c 0
 353 16 353 16 351 12 c 2
 353 12 356 12 358 12 c 0
 360 13 362 13 363 15 c 0
 366 17 369 20 371 22 c 0
 373 24 376 27 379 30 c 0
 385 36 389 43 390 51 c 0
 392 60 393 68 393 76 c 2
 393 81 l 2
 393 82 393 83 393 85 c 0
 393 86 393 88 393 88 c 1
 392 89 389 91 386 94 c 0
 383 97 380 98 379 99 c 2
 379 99 378 100 376 101 c 0
 373 103 373 103 372 104 c 2
 371 104 l 2
 371 105 371 105 370 105 c 1
 370 103 l 2
 370 100 370 97 371 93 c 0
 371 90 372 87 372 83 c 0
397 19 m 1
 398 19 l 2
 399 19 l 2
 400 19 l 2
 402 20 405 21 410 22 c 0
 414 23 416 24 417 24 c 0
 426 26 435 29 444 33 c 2
 445 33 445 33 446 33 c 2
 447 34 l 1
 446 35 l 1
 414 69 l 1
 414 68 414 65 414 62 c 0
 413 58 413 56 412 55 c 0
 412 48 410 42 407 36 c 0
 404 31 401 25 397 19 c 1
EndSplineSet
EndChar

StartChar: uFF388
Encoding: 1045384 1045384 168
Width: 547
VWidth: 444
Flags: HW
LayerCount: 2
Fore
SplineSet
156 -82 m 0
 156 -74 157 -67 160 -62 c 0
 163 -57 168 -51 173 -46 c 0
 177 -43 183 -40 188 -37 c 0
 194 -35 200 -34 206 -34 c 0
 211 -34 215 -35 219 -37 c 0
 223 -39 227 -41 230 -45 c 0
 233 -48 236 -52 238 -56 c 0
 240 -60 241 -65 241 -69 c 0
 241 -75 239 -80 235 -85 c 0
 231 -89 226 -91 220 -91 c 0
 217 -91 215 -91 212 -90 c 0
 210 -88 208 -87 206 -84 c 0
 204 -82 203 -80 203 -78 c 0
 202 -76 202 -73 202 -71 c 2
 202 -66 l 1
 203 -66 203 -66 203 -65 c 0
 203 -65 203 -64 204 -64 c 0
 205 -62 206 -61 207 -60 c 0
 208 -59 209 -59 211 -59 c 2
 216 -59 l 1
 213 -56 209 -54 205 -54 c 0
 200 -54 196 -56 192 -59 c 0
 187 -61 184 -65 180 -68 c 0
 179 -70 178 -72 177 -75 c 0
 176 -77 176 -80 176 -82 c 0
 176 -86 177 -90 180 -94 c 1
 180 -95 180 -95 180 -96 c 2
 181 -96 l 2
 182 -98 182 -98 185 -100 c 0
 187 -102 188 -103 189 -104 c 2
 193 -107 198 -110 203 -111 c 0
 208 -113 213 -114 218 -114 c 0
 226 -114 232 -112 237 -110 c 0
 242 -107 247 -103 252 -98 c 0
 256 -94 259 -88 261 -82 c 0
 262 -76 263 -70 263 -64 c 0
 263 -53 260 -43 254 -35 c 0
 249 -26 241 -20 230 -15 c 1
 230 -15 229 -15 228 -14 c 0
 226 -14 225 -13 225 -13 c 1
 224 -13 223 -13 222 -13 c 0
 221 -12 221 -12 220 -12 c 1
 219 -11 216 -11 213 -11 c 0
 210 -10 208 -10 208 -10 c 2
 0 -10 l 2
 0 -10 -1 -10 -2 -9 c 0
 -3 -9 -3 -8 -4 -8 c 2
 -5 -7 -6 -6 -7 -4 c 0
 -7 -3 -8 -2 -8 0 c 0
 -8 2 -7 4 -7 5 c 0
 -6 6 -5 7 -4 9 c 0
 -3 10 -2 10 -1 10 c 2
 467 10 l 2
 468 10 471 10 474 10 c 0
 478 9 481 9 485 9 c 0
 489 9 493 9 496 8 c 0
 500 8 502 8 504 8 c 2
 515 8 l 1
 525 8 l 2
 526 8 528 8 531 9 c 0
 534 9 538 9 542 10 c 0
 547 10 547 10 552 10 c 0
 556 11 559 11 560 11 c 0
 572 13 584 14 596 17 c 0
 608 20 619 23 630 28 c 0
 647 36 662 46 676 58 c 0
 685 66 693 75 700 85 c 0
 706 94 711 105 714 117 c 0
 715 121 715 125 716 128 c 0
 716 132 716 136 716 140 c 2
 716 150 l 2
 716 154 715 158 714 163 c 0
 713 167 712 171 711 175 c 0
 704 193 694 207 680 218 c 0
 665 228 649 234 630 234 c 0
 617 234 605 231 594 226 c 0
 583 221 573 214 564 205 c 0
 556 196 551 186 548 174 c 1
 548 174 548 173 548 172 c 2
 548 171 l 1
 548 165 l 1
 548 158 l 2
 548 155 548 152 549 149 c 0
 551 146 552 143 553 140 c 0
 555 137 558 133 561 130 c 0
 568 122 576 116 583 113 c 0
 591 110 600 108 610 108 c 2
 618 108 l 2
 621 109 623 109 626 110 c 0
 628 110 631 111 633 112 c 0
 639 114 644 118 648 122 c 0
 652 127 654 133 654 139 c 0
 654 145 652 151 647 156 c 0
 642 162 637 164 631 164 c 0
 629 164 627 164 625 163 c 0
 623 162 621 161 620 159 c 1
 620 158 621 158 622 158 c 2
 623 158 l 2
 624 158 624 158 624 158 c 1
 628 158 l 2
 634 158 637 155 637 149 c 0
 637 144 636 141 633 140 c 0
 630 138 626 138 622 138 c 0
 615 138 609 140 605 144 c 0
 601 148 599 153 599 160 c 2
 599 164 l 2
 600 168 603 172 608 176 c 0
 613 180 618 183 622 184 c 0
 623 184 l 2
 624 184 l 1
 630 184 l 2
 640 184 649 182 655 176 c 0
 662 171 667 164 672 156 c 0
 673 153 674 150 674 148 c 0
 675 145 675 142 675 139 c 2
 675 133 l 2
 674 130 674 127 672 124 c 0
 671 121 670 119 668 116 c 0
 663 106 654 99 643 94 c 0
 633 90 621 88 610 88 c 0
 604 88 598 88 592 89 c 0
 586 90 580 92 574 95 c 0
 561 101 550 110 540 123 c 0
 531 135 527 149 527 164 c 0
 527 174 528 183 532 192 c 0
 536 200 540 208 546 215 c 0
 552 222 559 229 567 234 c 0
 575 240 583 244 592 247 c 0
 598 250 605 251 611 252 c 0
 617 253 624 254 630 254 c 0
 646 254 660 251 673 245 c 0
 686 239 698 231 707 220 c 0
 717 210 724 198 729 185 c 0
 734 171 737 157 737 141 c 0
 737 125 734 110 728 96 c 0
 722 81 714 68 703 56 c 0
 697 50 692 45 686 40 c 0
 680 35 674 30 668 26 c 0
 651 14 632 6 613 1 c 0
 593 -4 574 -8 554 -10 c 0
 553 -10 551 -10 549 -10 c 0
 547 -11 544 -11 542 -11 c 0
 539 -11 537 -11 534 -12 c 0
 532 -12 531 -12 530 -12 c 1
 529 -12 527 -12 523 -12 c 256
 517 -12 517 -12 514 -12 c 256
 511 -12 511 -12 505 -12 c 256
 501 -12 498 -12 498 -12 c 1
 496 -12 494 -12 490 -12 c 0
 487 -11 483 -11 479 -11 c 0
 475 -11 472 -11 468 -10 c 0
 465 -10 462 -10 461 -10 c 2
 261 -10 l 1
 268 -18 274 -26 278 -35 c 0
 282 -44 284 -54 284 -65 c 0
 284 -72 282 -80 280 -87 c 0
 278 -95 275 -101 270 -108 c 0
 266 -114 261 -119 255 -123 c 0
 249 -127 242 -130 234 -132 c 0
 231 -133 228 -133 226 -133 c 0
 223 -133 220 -134 217 -134 c 2
 209 -134 l 2
 209 -134 207 -133 205 -133 c 0
 203 -132 201 -132 200 -132 c 0
 194 -130 188 -128 183 -125 c 0
 178 -122 173 -118 169 -114 c 0
 165 -109 162 -105 159 -99 c 0
 157 -94 156 -88 156 -82 c 0
108 -51 m 0
 108 -50 109 -50 109 -50 c 1
 109 -47 111 -45 115 -42 c 0
 118 -40 121 -39 123 -39 c 0
 127 -39 130 -41 132 -43 c 1
 132 -44 132 -44 133 -45 c 0
 133 -46 133 -47 134 -47 c 1
 134 -47 134 -48 135 -48 c 0
 136 -49 136 -49 136 -50 c 0
 137 -50 137 -51 138 -53 c 0
 138 -54 138 -55 138 -56 c 0
 138 -59 137 -61 136 -62 c 0
 134 -64 133 -66 131 -67 c 0
 129 -69 127 -69 125 -69 c 0
 124 -69 123 -69 122 -69 c 0
 121 -68 120 -68 120 -67 c 2
 110 -58 l 2
 109 -57 109 -56 109 -55 c 0
 109 -53 108 -52 108 -51 c 0
32 -53 m 0
 32 -50 32 -47 34 -45 c 0
 36 -43 39 -42 42 -42 c 2
 44 -42 l 2
 45 -42 46 -42 48 -42 c 0
 50 -42 51 -43 52 -43 c 2
 54 -43 55 -44 57 -45 c 0
 58 -47 59 -48 60 -50 c 1
 62 -51 63 -53 63 -57 c 0
 63 -61 62 -63 60 -65 c 0
 58 -66 56 -67 52 -68 c 1
 48 -68 l 1
 44 -68 l 2
 42 -68 40 -68 39 -67 c 0
 38 -66 37 -64 36 -63 c 0
 33 -60 32 -57 32 -53 c 0
71 -56 m 2
 71 -53 l 1
 71 -51 73 -49 76 -46 c 0
 78 -44 80 -42 82 -42 c 1
 82 -42 83 -41 85 -41 c 0
 86 -41 87 -41 88 -40 c 1
 89 -40 l 2
 91 -40 93 -41 94 -42 c 0
 96 -42 97 -44 99 -45 c 1
 99 -46 100 -46 100 -47 c 0
 101 -48 102 -48 102 -49 c 0
 103 -49 103 -50 103 -51 c 0
 103 -52 104 -53 104 -54 c 0
 104 -58 102 -61 100 -62 c 0
 97 -64 95 -65 92 -66 c 0
 89 -68 86 -68 84 -68 c 0
 83 -68 82 -68 81 -68 c 0
 80 -68 79 -67 78 -66 c 0
 77 -66 76 -65 75 -64 c 0
 74 -63 73 -62 72 -61 c 0
 72 -60 71 -58 71 -56 c 2
EndSplineSet
EndChar

StartChar: uFF389
Encoding: 1045385 1045385 169
Width: 559
VWidth: 444
Flags: HW
LayerCount: 2
Fore
SplineSet
514 -120 m 0
 514 -108 517 -96 523 -86 c 0
 529 -76 537 -67 547 -60 c 0
 552 -57 557 -54 563 -52 c 0
 569 -50 575 -49 581 -49 c 0
 588 -49 595 -50 602 -52 c 0
 609 -54 616 -57 622 -62 c 0
 628 -66 633 -71 636 -77 c 0
 640 -83 642 -90 642 -98 c 0
 642 -103 641 -108 639 -112 c 0
 636 -119 631 -125 625 -129 c 0
 620 -133 612 -135 604 -135 c 0
 599 -135 594 -135 589 -133 c 0
 584 -132 579 -129 574 -127 c 0
 570 -124 566 -120 563 -116 c 0
 560 -112 559 -107 559 -102 c 0
 559 -98 560 -93 564 -88 c 0
 567 -84 571 -82 576 -82 c 0
 579 -82 581 -82 583 -84 c 0
 585 -86 586 -88 586 -91 c 0
 586 -94 585 -96 584 -97 c 0
 582 -100 582 -100 580 -102 c 1
 579 -102 l 1
 579 -103 579 -103 580 -103 c 2
 580 -104 580 -104 580 -104 c 1
 587 -111 594 -115 604 -115 c 2
 608 -115 l 1
 613 -114 616 -111 618 -108 c 0
 620 -105 621 -101 621 -97 c 2
 621 -93 l 2
 621 -92 621 -91 621 -90 c 0
 620 -90 620 -89 620 -89 c 0
 617 -84 613 -80 608 -77 c 0
 604 -74 599 -72 594 -71 c 0
 591 -70 589 -70 587 -70 c 0
 585 -70 583 -70 581 -70 c 2
 575 -70 l 1
 571 -70 568 -71 566 -73 c 0
 562 -75 562 -75 558 -78 c 0
 551 -83 545 -89 541 -97 c 0
 537 -104 535 -112 535 -121 c 0
 535 -130 537 -138 540 -145 c 0
 544 -152 549 -158 556 -165 c 0
 560 -168 565 -171 571 -174 c 0
 577 -176 583 -178 588 -178 c 0
 588 -178 589 -178 591 -178 c 0
 592 -178 594 -178 595 -178 c 0
 600 -178 604 -178 609 -177 c 0
 614 -176 618 -175 622 -173 c 0
 628 -170 632 -167 636 -164 c 0
 641 -160 645 -156 649 -152 c 0
 649 -152 650 -151 651 -150 c 0
 652 -148 652 -147 653 -147 c 0
 659 -139 663 -130 666 -121 c 0
 670 -112 671 -102 671 -93 c 0
 671 -88 671 -83 670 -78 c 0
 670 -73 668 -69 666 -64 c 0
 663 -59 661 -55 658 -51 c 0
 654 -47 651 -44 647 -40 c 0
 641 -34 634 -30 626 -26 c 0
 619 -22 611 -20 603 -18 c 0
 594 -15 586 -14 578 -13 c 0
 569 -12 561 -11 553 -11 c 0
 552 -11 552 -11 548 -11 c 0
 546 -11 544 -11 542 -11 c 0
 539 -11 537 -10 535 -10 c 256
 532 -10 532 -10 531 -10 c 2
 202 -10 l 1
 201 -11 l 2
 200 -11 l 1
 198 -13 195 -15 193 -18 c 0
 192 -20 190 -22 190 -25 c 0
 189 -28 189 -30 189 -33 c 0
 189 -33 189 -34 189 -36 c 2
 189 -38 l 2
 189 -40 190 -43 191 -46 c 0
 193 -49 194 -52 196 -54 c 0
 201 -60 208 -65 215 -68 c 0
 221 -71 229 -72 238 -72 c 0
 239 -72 239 -72 242 -72 c 256
 244 -72 245 -72 245 -72 c 1
 246 -72 247 -72 248 -72 c 0
 250 -71 250 -71 251 -71 c 2
 252 -71 l 2
 255 -71 257 -72 259 -74 c 0
 261 -76 262 -79 262 -82 c 0
 262 -86 261 -88 258 -90 c 0
 256 -91 252 -92 249 -92 c 0
 248 -92 247 -92 245 -92 c 0
 243 -93 241 -93 241 -93 c 2
 237 -93 l 2
 231 -93 225 -92 220 -91 c 2
 219 -91 218 -91 217 -90 c 0
 216 -90 215 -90 215 -90 c 1
 214 -90 213 -89 211 -89 c 0
 209 -88 207 -88 207 -87 c 1
 206 -87 l 1
 203 -89 200 -90 196 -92 c 0
 193 -93 189 -94 186 -94 c 2
 178 -94 l 1
 170 -94 l 1
 165 -93 161 -92 158 -90 c 0
 154 -87 150 -85 147 -82 c 1
 145 -82 142 -82 138 -82 c 0
 134 -82 132 -82 131 -82 c 0
 130 -82 129 -81 128 -81 c 0
 128 -81 127 -81 126 -81 c 2
 117 -79 109 -75 102 -70 c 0
 95 -65 89 -58 85 -49 c 0
 83 -46 83 -43 82 -41 c 0
 82 -38 82 -35 82 -32 c 0
 82 -28 82 -24 83 -21 c 0
 84 -19 85 -15 87 -11 c 1
 87 -10 l 1
 0 -10 l 2
 -1 -10 l 0
 -2 -9 -2 -9 -3 -9 c 1
 -3 -8 -4 -8 -4 -7 c 0
 -5 -6 -5 -6 -6 -6 c 0
 -7 -5 -7 -4 -7 -3 c 0
 -7 -2 -7 -2 -7 0 c 0
 -7 6 -5 9 0 10 c 1
 2 10 2 10 8 10 c 0
 12 10 17 10 21 10 c 0
 26 10 30 10 34 10 c 0
 40 10 40 10 42 10 c 0
 48 11 53 11 58 12 c 0
 63 13 68 14 73 14 c 0
 84 17 95 20 106 25 c 0
 116 30 125 37 133 46 c 0
 138 51 141 57 144 64 c 0
 147 71 148 77 148 84 c 0
 148 90 147 96 144 100 c 0
 142 105 138 109 134 112 c 0
 130 115 125 117 120 118 c 0
 115 120 109 121 104 121 c 256
 98 121 93 120 88 119 c 0
 83 117 78 115 73 112 c 0
 72 111 71 110 70 110 c 0
 69 109 68 108 68 107 c 0
 66 105 65 102 64 98 c 0
 62 95 62 92 62 89 c 0
 62 85 63 83 65 81 c 0
 67 79 70 78 73 76 c 0
 76 75 79 74 84 74 c 2
 87 74 l 1
 90 76 l 2
 92 77 93 78 95 80 c 0
 96 82 97 83 97 86 c 0
 97 86 97 86 97 87 c 256
 97 88 97 88 96 88 c 1
 94 88 93 87 92 87 c 0
 92 87 91 86 89 86 c 0
 85 86 83 88 81 90 c 0
 79 92 79 95 79 98 c 0
 79 102 80 105 82 108 c 0
 85 110 88 112 92 112 c 0
 94 112 97 111 100 110 c 0
 105 108 109 105 112 101 c 0
 115 97 117 92 117 86 c 0
 117 77 114 69 107 63 c 0
 100 56 92 53 83 53 c 0
 80 53 77 53 74 54 c 0
 71 55 71 55 66 57 c 0
 59 59 53 63 48 68 c 0
 43 74 41 80 41 88 c 0
 41 91 41 94 42 97 c 0
 42 100 43 103 44 106 c 0
 45 108 46 110 47 112 c 0
 49 116 49 116 50 118 c 1
 51 119 52 120 52 120 c 1
 58 128 66 133 76 136 c 0
 85 140 94 142 104 142 c 0
 112 142 120 140 128 138 c 0
 136 135 143 132 149 127 c 0
 155 122 160 116 163 109 c 0
 167 102 168 94 168 85 c 0
 168 72 166 61 161 51 c 0
 155 40 148 31 140 23 c 0
 139 23 138 22 137 21 c 0
 135 19 134 19 133 18 c 0
 133 18 132 17 131 17 c 0
 130 16 130 16 129 15 c 2
 129 15 128 14 126 13 c 0
 124 12 123 11 123 11 c 1
 122 10 l 1
 559 9 l 2
 559 9 562 9 566 9 c 0
 570 8 573 8 575 8 c 0
 591 6 607 3 623 -2 c 0
 629 -5 635 -8 641 -11 c 0
 647 -14 652 -18 658 -22 c 0
 660 -24 663 -26 665 -29 c 0
 669 -33 669 -33 672 -36 c 0
 677 -41 681 -47 684 -54 c 0
 687 -60 689 -67 690 -74 c 0
 691 -75 691 -76 691 -78 c 0
 691 -80 692 -81 692 -82 c 2
 692 -91 l 1
 692 -102 l 2
 691 -107 690 -112 689 -117 c 0
 687 -125 687 -125 684 -132 c 0
 683 -135 681 -139 680 -142 c 0
 678 -146 676 -149 674 -152 c 0
 666 -166 654 -177 641 -186 c 0
 627 -195 612 -199 595 -199 c 0
 584 -199 574 -197 564 -193 c 0
 554 -189 546 -183 538 -176 c 0
 531 -169 525 -161 521 -151 c 0
 516 -141 514 -131 514 -120 c 0
153 -40 m 0
 153 -43 153 -45 153 -47 c 0
 153 -49 154 -51 154 -54 c 0
 156 -60 159 -65 162 -68 c 0
 166 -72 171 -74 178 -74 c 0
 181 -74 183 -74 185 -73 c 1
 180 -67 175 -60 173 -54 c 0
 170 -49 168 -41 168 -33 c 0
 168 -29 169 -25 170 -22 c 0
 171 -18 172 -15 173 -11 c 1
 173 -10 l 1
 163 -10 l 2
 162 -10 162 -11 162 -12 c 0
 161 -13 161 -13 160 -14 c 1
 158 -18 156 -23 155 -27 c 0
 153 -31 153 -35 153 -40 c 0
102 -33 m 0
 102 -37 103 -40 105 -44 c 0
 107 -47 110 -50 113 -53 c 0
 116 -55 120 -57 124 -59 c 0
 127 -61 131 -62 135 -62 c 1
 135 -61 l 2
 135 -60 134 -59 134 -58 c 0
 134 -57 133 -56 133 -55 c 0
 132 -51 132 -46 132 -42 c 0
 132 -33 134 -24 137 -14 c 0
 137 -14 137 -13 138 -12 c 0
 138 -12 138 -11 138 -10 c 1
 117 -10 l 2
 116 -11 l 0
 115 -12 114 -12 113 -13 c 0
 110 -15 107 -18 105 -21 c 0
 103 -25 102 -29 102 -33 c 0
EndSplineSet
EndChar

StartChar: uFF38A
Encoding: 1045386 1045386 170
Width: 267
VWidth: 444
Flags: HW
LayerCount: 2
Fore
SplineSet
46 -61 m 0
 46 -57 46 -54 47 -51 c 0
 48 -47 50 -44 52 -42 c 2
 52 -41 53 -41 54 -39 c 0
 56 -38 57 -37 57 -37 c 0
 57 -37 58 -36 58 -35 c 0
 58 -34 59 -34 59 -34 c 1
 61 -31 64 -29 68 -29 c 0
 77 -29 84 -32 90 -38 c 0
 96 -44 99 -52 99 -61 c 0
 99 -69 96 -75 90 -80 c 0
 85 -85 78 -87 70 -87 c 256
 63 -87 57 -84 52 -80 c 0
 48 -75 46 -68 46 -61 c 0
112 -65 m 0
 112 -56 115 -49 122 -42 c 2
 123 -42 l 2
 124 -41 124 -41 124 -41 c 0
 125 -40 125 -40 126 -39 c 0
 127 -39 128 -38 128 -38 c 1
 130 -37 l 2
 130 -36 131 -36 132 -35 c 2
 133 -35 l 1
 144 -35 l 1
 148 -37 l 1
 148 -37 149 -38 151 -40 c 0
 154 -43 154 -43 156 -45 c 0
 158 -47 160 -50 161 -53 c 0
 161 -57 162 -60 162 -63 c 2
 162 -69 l 1
 162 -70 l 2
 161 -70 161 -71 161 -71 c 0
 160 -76 157 -80 153 -83 c 0
 148 -85 144 -87 139 -87 c 0
 136 -87 136 -87 134 -87 c 0
 133 -87 132 -87 130 -86 c 0
 125 -85 121 -83 117 -79 c 0
 113 -75 112 -70 112 -65 c 0
178 -60 m 0
 178 -54 180 -49 184 -45 c 0
 187 -41 192 -38 197 -35 c 0
 198 -35 200 -34 201 -34 c 0
 203 -33 204 -33 206 -32 c 1
 206 -32 208 -32 209 -31 c 0
 211 -30 212 -30 213 -30 c 2
 215 -30 l 2
 217 -30 220 -31 222 -32 c 0
 223 -34 225 -35 227 -38 c 0
 229 -40 231 -43 231 -45 c 0
 232 -48 232 -51 232 -54 c 0
 232 -62 230 -69 225 -74 c 0
 219 -80 213 -83 205 -83 c 0
 198 -83 192 -81 186 -77 c 0
 181 -72 178 -67 178 -60 c 0
66 -61 m 0
 66 -65 68 -67 71 -67 c 2
 72 -67 l 1
 74 -66 76 -66 77 -65 c 0
 78 -64 78 -62 78 -60 c 0
 78 -58 78 -57 77 -55 c 0
 77 -53 76 -53 74 -53 c 0
 71 -53 70 -53 68 -55 c 0
 67 -56 66 -58 66 -61 c 0
132 -64 m 0
 132 -65 133 -66 134 -66 c 0
 137 -66 137 -66 138 -66 c 2
 140 -66 l 1
 141 -66 142 -65 142 -63 c 0
 142 -62 141 -61 141 -59 c 0
 140 -57 139 -57 138 -57 c 1
 137 -57 135 -58 134 -60 c 0
 133 -61 132 -63 132 -64 c 0
199 -59 m 2
 199 -60 200 -61 201 -62 c 0
 203 -63 204 -63 205 -63 c 0
 207 -63 209 -62 210 -60 c 0
 212 -58 212 -56 212 -54 c 0
 212 -53 l 1
 209 -55 206 -55 205 -55 c 0
 203 -55 201 -56 199 -59 c 2
-7 0 m 0
 -7 1 -7 3 -6 4 c 0
 -6 6 -5 7 -4 8 c 2
 -3 8 -2 9 -1 9 c 2
 0 10 l 1
 268 10 l 2
 269 10 271 9 272 7 c 0
 273 5 274 4 275 2 c 1
 275 0 l 2
 275 -2 274 -4 274 -5 c 0
 273 -6 272 -7 270 -9 c 1
 269 -9 l 1
 269 -9 269 -10 268 -10 c 1
 0 -10 l 2
 -2 -10 -4 -9 -5 -6 c 0
 -7 -4 -7 -2 -7 0 c 0
EndSplineSet
EndChar

StartChar: uFF38B
Encoding: 1045387 1045387 171
Width: 311
VWidth: 444
Flags: HW
LayerCount: 2
Fore
SplineSet
266 -350 m 0
 266 -348 266 -347 266 -345 c 0
 267 -344 267 -343 268 -341 c 2
 268 -341 268 -340 269 -339 c 0
 269 -337 270 -337 270 -336 c 256
 270 -336 270 -335 270 -334 c 0
 271 -333 271 -333 271 -332 c 0
 271 -331 272 -331 272 -331 c 1
 278 -324 285 -321 293 -321 c 0
 299 -321 303 -322 307 -324 c 0
 310 -326 314 -328 317 -332 c 0
 319 -334 320 -336 320 -339 c 0
 321 -341 321 -344 321 -346 c 0
 321 -354 319 -360 313 -365 c 0
 307 -371 301 -373 293 -373 c 0
 286 -373 280 -371 274 -367 c 0
 269 -363 266 -357 266 -350 c 0
289 -351 m 2
 289 -352 l 1
 289 -352 290 -353 291 -352 c 0
 292 -352 292 -352 293 -352 c 256
 293 -352 294 -352 295 -352 c 0
 296 -353 296 -352 297 -352 c 2
 297 -351 298 -351 299 -350 c 0
 299 -349 300 -349 300 -349 c 1
 300 -348 l 2
 301 -347 301 -347 301 -346 c 2
 301 -345 301 -343 299 -343 c 0
 297 -342 296 -342 295 -342 c 2
 293 -342 l 1
 293 -345 292 -347 291 -348 c 2
 291 -349 291 -349 290 -350 c 0
 289 -351 289 -351 289 -351 c 2
180 -308 m 0
 180 -303 181 -298 183 -294 c 0
 185 -290 188 -286 192 -283 c 1
 192 -283 193 -283 194 -282 c 0
 195 -281 l 1
 195 -281 196 -281 197 -280 c 0
 199 -278 199 -278 199 -278 c 0
 206 -272 214 -269 224 -269 c 0
 229 -269 235 -270 240 -272 c 0
 245 -274 250 -277 254 -280 c 0
 258 -283 261 -287 263 -292 c 0
 265 -297 267 -302 267 -308 c 0
 267 -319 263 -329 255 -336 c 0
 247 -344 238 -348 227 -348 c 0
 221 -348 215 -347 210 -345 c 0
 204 -343 199 -341 195 -337 c 0
 190 -334 187 -330 184 -325 c 0
 181 -320 180 -314 180 -308 c 0
67 -106 m 0
 59 -106 51 -107 43 -109 c 0
 35 -110 28 -114 23 -121 c 0
 20 -123 19 -126 19 -130 c 0
 19 -133 20 -135 21 -137 c 0
 22 -138 25 -139 28 -139 c 0
 29 -139 31 -139 33 -138 c 0
 34 -138 36 -138 38 -138 c 0
 41 -138 44 -139 46 -142 c 0
 47 -142 47 -143 47 -143 c 2
 48 -144 l 1
 48 -151 l 1
 47 -152 l 2
 47 -152 47 -152 47 -153 c 0
 45 -156 42 -158 38 -159 c 0
 34 -159 31 -160 28 -160 c 0
 19 -160 12 -157 7 -152 c 0
 1 -146 -1 -139 -1 -130 c 0
 -1 -121 1 -113 7 -107 c 0
 13 -101 20 -96 28 -92 c 0
 32 -90 37 -88 42 -88 c 0
 48 -87 53 -86 57 -86 c 0
 58 -86 58 -85 58 -85 c 1
 58 -85 58 -84 59 -84 c 2
 59 -83 l 2
 62 -77 65 -72 66 -66 c 0
 68 -60 69 -54 69 -48 c 0
 69 -44 69 -39 68 -35 c 0
 67 -31 66 -27 64 -23 c 0
 63 -21 62 -18 60 -15 c 0
 59 -12 58 -10 57 -10 c 2
 0 -10 l 2
 -1 -10 -3 -9 -5 -8 c 0
 -7 -7 -8 -6 -8 -4 c 2
 -9 -3 -9 -3 -9 -2 c 0
 -9 -1 -9 -1 -9 0 c 0
 -9 5 -7 8 -3 10 c 1
 -2 10 l 2
 -1 10 l 1
 311 10 l 2
 313 10 314 10 315 9 c 0
 316 8 317 7 318 6 c 0
 319 5 320 3 320 1 c 0
 320 -4 317 -7 313 -9 c 2
 312 -10 l 2
 311 -10 l 1
 174 -10 l 1
 174 -13 174 -15 175 -18 c 0
 176 -20 176 -23 176 -26 c 2
 176 -35 l 1
 176 -45 l 2
 176 -45 176 -46 176 -47 c 0
 176 -49 176 -49 176 -50 c 0
 173 -61 170 -72 164 -81 c 0
 159 -91 153 -100 146 -109 c 1
 146 -109 146 -109 147 -110 c 0
 148 -110 l 1
 148 -111 149 -112 152 -114 c 0
 155 -117 157 -118 157 -118 c 1
 158 -119 158 -119 160 -121 c 0
 162 -123 164 -124 165 -126 c 0
 168 -128 168 -128 170 -130 c 0
 172 -131 173 -133 174 -133 c 2
 174 -134 l 2
 175 -134 175 -134 176 -134 c 1
 179 -131 182 -128 185 -124 c 0
 187 -121 188 -117 188 -112 c 0
 188 -111 189 -110 189 -109 c 0
 189 -108 189 -107 188 -106 c 0
 187 -105 186 -103 185 -102 c 0
 183 -102 182 -101 181 -100 c 0
 179 -99 178 -97 177 -96 c 0
 176 -95 176 -93 176 -91 c 0
 176 -88 177 -85 179 -84 c 0
 181 -82 183 -81 186 -81 c 0
 188 -81 189 -81 191 -82 c 0
 192 -83 194 -83 195 -84 c 0
 205 -91 209 -100 209 -111 c 0
 209 -119 208 -126 204 -132 c 0
 200 -138 196 -144 191 -149 c 1
 198 -156 l 1
 199 -156 l 1
 199 -156 199 -156 199 -155 c 0
 200 -155 200 -155 200 -154 c 0
 202 -152 204 -150 205 -148 c 0
 207 -147 208 -144 210 -142 c 0
 212 -140 213 -137 215 -133 c 0
 217 -130 218 -127 218 -124 c 256
 218 -122 217 -120 215 -119 c 0
 213 -118 211 -116 211 -114 c 2
 211 -111 l 2
 211 -104 214 -101 220 -101 c 0
 221 -101 222 -101 223 -101 c 0
 224 -101 224 -101 225 -102 c 0
 228 -103 231 -105 233 -109 c 0
 236 -112 237 -116 238 -119 c 2
 238 -124 l 2
 238 -133 235 -141 230 -148 c 0
 222 -159 222 -159 215 -170 c 0
 214 -170 214 -171 214 -171 c 2
 213 -171 l 1
 222 -180 l 1
 223 -181 l 1
 223 -181 223 -181 223 -180 c 2
 224 -180 l 1
 224 -180 225 -180 226 -180 c 0
 227 -179 228 -179 228 -179 c 1
 229 -179 l 2
 229 -178 l 1
 234 -172 237 -166 238 -158 c 0
 240 -151 241 -144 241 -137 c 0
 241 -135 243 -134 245 -132 c 0
 246 -131 248 -130 250 -130 c 0
 256 -130 259 -133 260 -138 c 1
 260 -145 l 2
 260 -155 259 -164 255 -173 c 0
 252 -183 246 -191 240 -198 c 1
 242 -200 242 -200 248 -206 c 0
 254 -211 254 -211 260 -218 c 0
 267 -224 267 -224 273 -230 c 0
 279 -236 279 -236 281 -238 c 0
 308 -263 339 -283 373 -300 c 0
 384 -305 395 -309 406 -313 c 0
 417 -317 429 -320 440 -323 c 0
 454 -326 468 -327 483 -327 c 0
 487 -327 491 -327 494 -327 c 0
 497 -327 501 -326 505 -326 c 0
 516 -323 526 -319 534 -314 c 0
 543 -308 551 -302 559 -294 c 0
 563 -289 567 -282 570 -275 c 0
 572 -267 574 -260 574 -254 c 0
 574 -250 574 -247 573 -244 c 0
 573 -241 572 -237 571 -234 c 0
 569 -227 565 -220 561 -214 c 0
 556 -207 551 -202 545 -198 c 0
 542 -195 538 -194 534 -194 c 2
 530 -194 l 2
 528 -194 525 -196 522 -199 c 0
 519 -201 517 -204 517 -206 c 1
 519 -208 521 -209 523 -211 c 0
 524 -212 525 -214 525 -217 c 0
 525 -223 521 -227 515 -227 c 0
 511 -227 509 -226 506 -224 c 0
 504 -223 502 -221 500 -218 c 0
 498 -215 496 -212 496 -208 c 0
 496 -203 498 -198 500 -194 c 0
 502 -190 505 -186 508 -183 c 0
 512 -180 516 -178 521 -176 c 0
 525 -174 530 -173 535 -173 c 0
 542 -173 549 -175 554 -179 c 0
 560 -183 565 -187 570 -193 c 0
 576 -199 581 -205 585 -213 c 0
 588 -221 591 -229 593 -237 c 0
 593 -240 594 -242 594 -245 c 0
 594 -247 594 -250 594 -253 c 2
 594 -261 l 2
 594 -267 592 -273 590 -278 c 0
 588 -283 586 -289 584 -294 c 0
 581 -298 578 -302 575 -306 c 0
 571 -310 568 -314 564 -318 c 0
 554 -328 541 -335 527 -340 c 0
 513 -346 498 -348 484 -348 c 0
 471 -348 458 -347 445 -345 c 0
 433 -342 420 -339 408 -335 c 0
 393 -331 379 -325 365 -319 c 0
 352 -312 338 -305 325 -297 c 0
 324 -297 323 -296 322 -295 c 0
 320 -294 319 -293 317 -292 c 0
 314 -290 314 -290 312 -289 c 0
 309 -287 309 -287 308 -286 c 0
 306 -285 304 -284 302 -282 c 0
 299 -280 297 -279 297 -278 c 1
 294 -276 294 -276 290 -272 c 0
 285 -268 285 -268 280 -264 c 0
 276 -260 276 -260 272 -257 c 0
 269 -255 268 -254 268 -254 c 2
 154 -142 l 2
 141 -130 127 -121 114 -115 c 0
 101 -109 85 -106 67 -106 c 0
200 -308 m 0
 200 -311 200 -314 202 -316 c 0
 204 -319 206 -321 209 -322 c 0
 212 -324 214 -326 218 -327 c 0
 221 -328 223 -328 226 -328 c 0
 231 -328 236 -326 240 -322 c 0
 245 -318 247 -313 247 -307 c 0
 247 -303 245 -300 242 -297 c 0
 238 -294 235 -292 231 -291 c 2
 230 -291 230 -290 229 -290 c 2
 228 -290 l 1
 224 -290 l 2
 221 -290 218 -290 215 -291 c 0
 213 -292 211 -294 209 -297 c 0
 208 -299 208 -299 208 -301 c 0
 207 -302 206 -303 205 -304 c 1
 204 -305 203 -305 201 -306 c 0
 200 -306 200 -307 200 -308 c 0
18 -221 m 2
 18 -214 l 2
 19 -210 19 -206 20 -201 c 0
 21 -197 23 -193 24 -189 c 0
 29 -181 34 -173 41 -166 c 0
 48 -159 56 -154 66 -151 c 0
 71 -150 75 -149 79 -148 c 0
 83 -148 87 -148 92 -148 c 256
 97 -148 102 -148 107 -149 c 0
 112 -149 117 -151 121 -153 c 0
 122 -153 124 -154 126 -155 c 0
 129 -156 131 -157 131 -157 c 1
 131 -157 132 -158 134 -158 c 0
 135 -159 136 -159 136 -159 c 1
 144 -162 150 -165 156 -170 c 0
 162 -175 166 -181 170 -188 c 0
 174 -194 178 -201 180 -208 c 0
 182 -216 183 -223 183 -230 c 0
 183 -248 176 -262 163 -274 c 0
 154 -283 143 -288 130 -292 c 0
 118 -295 106 -296 93 -296 c 0
 90 -296 87 -296 84 -296 c 0
 81 -296 77 -295 74 -295 c 0
 65 -293 57 -290 50 -285 c 0
 43 -280 38 -275 33 -268 c 0
 28 -262 25 -254 22 -246 c 0
 19 -238 18 -230 18 -221 c 2
498 -270 m 0
 498 -263 499 -258 502 -253 c 0
 503 -252 504 -250 505 -249 c 0
 506 -247 506 -246 506 -246 c 1
 508 -243 511 -241 515 -240 c 0
 519 -239 522 -239 525 -239 c 0
 531 -239 535 -240 539 -242 c 0
 543 -244 547 -248 551 -252 c 0
 553 -254 555 -257 556 -260 c 0
 556 -264 557 -267 557 -270 c 2
 557 -275 l 1
 557 -277 556 -278 555 -280 c 0
 555 -281 554 -282 553 -284 c 1
 550 -289 546 -292 541 -294 c 0
 536 -295 531 -296 525 -296 c 2
 520 -296 l 1
 519 -296 518 -296 516 -295 c 0
 515 -295 514 -295 513 -294 c 0
 508 -292 504 -289 502 -284 c 0
 499 -280 498 -275 498 -270 c 0
39 -221 m 0
 39 -232 41 -242 47 -252 c 0
 52 -261 60 -268 70 -272 c 0
 74 -274 77 -275 81 -275 c 0
 85 -276 89 -276 93 -276 c 0
 100 -276 108 -275 116 -274 c 0
 124 -272 132 -270 139 -266 c 0
 146 -262 152 -258 156 -252 c 0
 161 -246 163 -238 163 -230 c 0
 163 -222 162 -215 159 -208 c 0
 156 -201 152 -195 147 -190 c 0
 146 -189 144 -188 143 -186 c 0
 141 -185 140 -184 138 -183 c 1
 138 -183 136 -183 135 -183 c 0
 133 -183 132 -182 131 -182 c 2
 130 -182 l 0
 130 -181 129 -181 128 -181 c 1
 128 -181 127 -180 125 -179 c 0
 124 -177 123 -177 122 -176 c 0
 121 -175 119 -174 118 -174 c 0
 117 -173 115 -172 114 -171 c 0
 108 -169 101 -168 92 -168 c 0
 76 -168 63 -173 53 -182 c 0
 44 -192 39 -205 39 -221 c 0
519 -269 m 0
 519 -274 521 -276 526 -276 c 0
 528 -276 530 -275 532 -275 c 0
 535 -274 536 -272 536 -270 c 256
 536 -268 536 -266 535 -265 c 2
 534 -264 534 -263 533 -263 c 0
 532 -262 532 -262 532 -262 c 1
 529 -262 l 2
 528 -262 527 -261 526 -261 c 0
 525 -260 524 -260 523 -260 c 0
 521 -260 520 -261 520 -264 c 0
 519 -266 519 -268 519 -269 c 0
112 -92 m 1
 127 -98 l 1
 127 -98 128 -97 129 -96 c 0
 130 -95 130 -95 131 -94 c 0
 138 -86 144 -77 149 -67 c 0
 154 -57 156 -47 156 -36 c 0
 156 -32 156 -28 155 -24 c 0
 155 -19 153 -15 152 -11 c 1
 151 -11 l 2
 151 -10 l 1
 128 -10 l 1
 128 -13 l 2
 128 -13 128 -15 129 -19 c 0
 129 -22 130 -25 130 -25 c 2
 130 -33 l 1
 130 -43 l 2
 129 -51 127 -59 124 -68 c 0
 120 -77 116 -85 112 -91 c 1
 112 -92 l 1
81 -86 m 1
 82 -86 83 -87 84 -87 c 0
 85 -87 86 -87 87 -87 c 2
 88 -87 l 1
 91 -87 l 1
 96 -79 100 -71 104 -62 c 0
 108 -53 110 -44 110 -34 c 0
 110 -31 110 -31 110 -29 c 0
 110 -27 109 -26 109 -23 c 0
 109 -21 108 -19 108 -15 c 2
 107 -10 l 1
 81 -10 l 1
 83 -15 85 -19 86 -24 c 0
 88 -29 89 -34 89 -38 c 2
 89 -48 l 1
 89 -58 l 2
 89 -63 88 -68 86 -72 c 0
 85 -77 83 -82 81 -86 c 1
EndSplineSet
EndChar

StartChar: uFF38C
Encoding: 1045388 1045388 172
Width: 494
VWidth: 444
Flags: HW
LayerCount: 2
Fore
SplineSet
-9 0 m 0
 -9 6 -6 9 0 10 c 0
 25 11 48 14 70 21 c 0
 91 28 112 39 133 54 c 0
 133 54 135 55 136 56 c 0
 139 58 139 58 141 60 c 0
 144 62 144 62 146 63 c 0
 148 65 149 65 149 66 c 0
 150 67 151 68 153 69 c 0
 156 71 156 71 158 74 c 0
 161 76 161 76 163 78 c 0
 165 79 166 80 166 80 c 2
 312 220 l 1
 412 302 l 2
 413 304 416 306 422 310 c 0
 430 317 430 317 440 324 c 0
 451 331 451 331 460 339 c 0
 467 344 472 347 476 350 c 0
 478 351 478 351 486 356 c 0
 493 361 493 361 502 367 c 0
 511 373 511 373 520 378 c 0
 528 384 528 384 532 386 c 0
 533 387 535 388 537 390 c 0
 540 391 543 393 546 395 c 0
 551 398 551 398 555 400 c 0
 558 402 560 403 562 403 c 0
 563 404 563 404 565 405 c 0
 568 406 568 406 571 408 c 0
 573 409 575 410 577 411 c 0
 579 412 580 413 581 413 c 0
 593 419 606 424 619 428 c 0
 633 432 646 434 660 434 c 0
 664 434 669 433 674 432 c 0
 680 431 684 430 688 428 c 0
 693 425 696 422 699 418 c 0
 702 414 703 409 703 404 c 0
 703 400 702 396 699 393 c 0
 697 390 693 388 689 386 c 2
 689 386 689 386 688 386 c 2
 687 386 l 1
 682 386 l 1
 676 386 l 1
 671 387 668 390 668 395 c 0
 668 399 670 402 673 404 c 1
 674 405 l 2
 675 405 l 2
 676 405 677 406 679 406 c 0
 680 406 682 406 682 406 c 1
 679 410 l 1
 675 411 l 2
 675 412 674 412 673 412 c 2
 672 413 l 1
 659 413 l 2
 659 413 659 413 658 413 c 0
 658 413 658 414 657 414 c 1
 655 413 653 413 650 413 c 2
 646 412 l 2
 637 411 627 409 618 406 c 0
 609 403 600 399 592 395 c 0
 590 394 588 393 586 392 c 0
 582 390 582 390 578 389 c 0
 575 387 575 387 572 386 c 0
 570 385 569 384 569 384 c 2
 568 383 565 382 562 380 c 0
 557 377 557 377 552 374 c 0
 546 370 546 370 541 368 c 0
 536 365 536 365 534 363 c 0
 530 361 530 361 524 357 c 0
 517 353 517 353 511 349 c 0
 505 345 505 345 501 342 c 0
 498 339 496 338 496 338 c 1
 496 337 l 1
 498 337 500 336 502 336 c 0
 503 335 505 335 507 334 c 0
 514 331 519 328 523 323 c 0
 528 318 530 312 530 305 c 0
 530 300 529 296 527 293 c 0
 525 290 522 287 519 284 c 0
 518 282 516 281 514 281 c 0
 512 280 510 280 508 280 c 0
 502 280 498 282 494 286 c 0
 490 290 488 295 488 300 c 0
 488 308 491 312 498 312 c 0
 501 312 504 311 505 309 c 0
 507 307 508 305 508 302 c 1
 509 303 509 303 509 304 c 0
 510 304 510 305 510 306 c 0
 510 308 508 310 504 312 c 0
 501 314 498 316 496 316 c 1
 490 316 l 2
 482 316 475 315 467 312 c 0
 459 309 452 306 446 302 c 0
 446 302 445 301 444 300 c 0
 442 300 441 299 441 298 c 0
 439 297 437 296 436 294 c 0
 434 293 432 292 430 291 c 1
 368 242 l 1
 367 240 l 1
 371 241 375 241 380 242 c 0
 384 242 388 242 392 242 c 0
 405 242 417 241 430 238 c 0
 444 236 456 231 467 226 c 0
 479 220 489 212 497 202 c 0
 505 193 510 181 512 167 c 1
 512 158 l 2
 512 154 512 150 512 147 c 0
 511 143 511 140 510 136 c 0
 508 131 506 126 503 122 c 0
 500 118 496 114 492 110 c 0
 491 109 490 108 488 107 c 0
 487 106 485 105 484 105 c 0
 478 101 472 98 465 96 c 0
 459 94 452 94 445 94 c 0
 438 94 431 95 425 97 c 0
 419 99 413 103 406 107 c 0
 400 112 395 117 391 123 c 0
 387 129 385 136 385 144 c 256
 385 152 388 159 392 166 c 0
 396 174 403 177 412 177 c 0
 421 177 428 174 434 169 c 0
 440 164 443 157 443 148 c 2
 443 144 l 1
 442 140 439 137 437 137 c 0
 434 136 431 136 427 136 c 0
 423 136 420 136 418 138 c 0
 415 139 414 142 414 146 c 0
 414 150 416 153 418 155 c 1
 416 156 415 156 413 156 c 2
 411 156 l 1
 409 155 407 153 407 150 c 0
 406 148 406 145 406 143 c 0
 406 139 407 135 410 132 c 0
 413 129 416 126 420 123 c 0
 424 120 428 118 432 116 c 0
 436 115 441 114 446 114 c 0
 455 114 463 116 472 121 c 0
 480 125 486 132 489 140 c 0
 491 143 491 145 492 149 c 0
 492 152 492 155 492 158 c 0
 492 166 490 174 487 180 c 0
 483 187 478 193 473 198 c 0
 467 203 460 207 453 210 c 0
 445 213 438 215 431 217 c 0
 419 220 406 222 393 222 c 0
 385 222 377 221 369 220 c 0
 361 219 353 216 346 213 c 2
 345 213 l 2
 345 213 345 213 344 213 c 1
 344 212 343 211 341 210 c 0
 340 210 339 209 339 209 c 1
 337 208 335 207 333 205 c 0
 328 202 328 202 323 199 c 0
 318 195 318 195 314 192 c 0
 311 191 309 189 308 188 c 0
 307 188 307 187 306 187 c 0
 305 186 305 186 304 185 c 0
 304 185 303 184 302 183 c 0
 301 182 l 1
 318 172 331 160 340 145 c 0
 349 131 356 114 360 96 c 0
 361 91 362 85 363 80 c 0
 363 74 363 68 363 62 c 2
 363 50 l 2
 363 44 362 37 360 31 c 0
 359 24 357 18 355 11 c 1
 355 10 l 1
 495 10 l 2
 495 10 496 10 497 10 c 0
 498 9 499 9 499 8 c 0
 502 6 503 3 503 0 c 0
 503 -2 502 -4 501 -7 c 0
 499 -9 497 -10 494 -10 c 2
 0 -10 l 2
 -3 -10 -5 -9 -6 -7 c 0
 -8 -4 -9 -2 -9 0 c 0
152 42 m 1
 135 29 118 19 100 11 c 1
 160 11 l 1
 160 12 l 2
 161 13 161 14 161 15 c 2
 161 21 l 2
 161 24 161 27 160 30 c 0
 160 33 158 36 156 38 c 0
 155 39 155 40 154 40 c 0
 154 41 153 42 153 42 c 2
 152 42 l 1
182 21 m 0
 182 21 182 20 182 19 c 0
 181 18 181 17 181 17 c 0
 181 17 181 15 181 14 c 0
 181 13 181 11 181 11 c 1
 203 11 l 2
 204 11 l 1
 204 12 204 12 204 14 c 0
 204 15 204 16 204 16 c 1
 205 17 205 18 205 19 c 0
 205 19 205 20 206 21 c 0
 206 22 206 23 206 23 c 256
 206 24 206 25 206 27 c 0
 206 29 206 30 207 31 c 2
 207 38 205 44 202 52 c 0
 201 56 199 59 196 63 c 0
 194 66 191 69 187 70 c 1
 186 70 l 1
 169 55 l 1
 177 46 182 34 182 21 c 0
227 31 m 0
 227 28 227 25 226 22 c 0
 226 18 225 15 225 12 c 1
 225 11 l 1
 241 11 l 2
 242 11 242 11 242 12 c 2
 243 13 l 2
 247 26 250 39 250 54 c 0
 250 60 249 66 248 72 c 0
 248 79 246 85 243 90 c 0
 242 93 241 95 240 97 c 0
 239 99 237 102 236 103 c 2
 228 110 l 1
 227 110 l 1
 202 86 l 1
 203 85 l 2
 203 85 204 84 205 84 c 0
 206 83 206 82 207 82 c 1
 207 81 208 81 209 80 c 0
 210 79 210 78 211 78 c 0
 211 78 211 77 212 76 c 0
 213 75 l 0
 222 62 227 48 227 31 c 0
264 11 m 1
 289 11 l 1
 290 11 l 1
 291 13 291 14 292 15 c 0
 292 16 293 17 293 18 c 2
 293 19 294 20 294 21 c 0
 294 23 295 23 295 24 c 2
 295 25 295 26 296 28 c 0
 297 31 297 32 297 33 c 1
 297 33 298 35 298 37 c 0
 298 39 299 41 299 42 c 1
 300 45 300 49 300 53 c 0
 301 57 301 61 301 65 c 0
 301 72 300 80 299 87 c 0
 298 95 295 102 293 109 c 0
 290 116 286 123 282 129 c 0
 277 135 272 140 266 145 c 0
 265 145 265 145 265 146 c 2
 264 146 l 1
 263 146 l 2
 263 145 263 145 262 145 c 2
 243 126 l 1
 243 125 l 1
 247 121 251 117 254 112 c 0
 258 107 261 102 263 97 c 0
 265 89 267 82 268 76 c 0
 269 69 270 62 270 54 c 0
 270 47 269 39 269 32 c 0
 268 25 266 18 264 11 c 1
321 66 m 0
 321 50 319 34 315 20 c 1
 315 19 314 18 314 16 c 0
 313 14 313 12 312 12 c 1
 312 11 l 1
 332 11 l 2
 332 12 333 12 333 13 c 0
 334 14 334 15 334 15 c 1
 334 15 334 16 335 17 c 0
 335 18 336 19 336 20 c 1
 336 20 336 21 337 23 c 0
 337 24 337 25 337 25 c 1
 338 26 338 27 339 30 c 0
 339 32 340 33 340 34 c 1
 341 39 341 39 342 44 c 0
 342 48 343 51 343 54 c 1
 343 55 343 56 343 58 c 256
 343 61 343 61 343 63 c 0
 343 72 342 82 340 91 c 0
 339 100 336 109 332 118 c 0
 329 122 327 126 324 131 c 0
 322 135 319 139 316 143 c 0
 315 143 315 144 314 145 c 0
 313 146 311 148 310 149 c 0
 309 150 307 151 306 152 c 0
 305 153 304 154 304 155 c 0
 301 157 298 159 295 162 c 0
 292 164 289 165 285 167 c 1
 285 167 284 166 283 165 c 0
 282 164 282 164 281 163 c 2
 280 162 l 1
 280 161 l 1
 280 160 l 2
 281 159 282 159 283 158 c 0
 284 156 285 156 285 155 c 0
 286 154 286 154 289 152 c 0
 292 149 292 149 292 148 c 0
 293 148 293 148 294 146 c 0
 295 146 296 145 296 144 c 2
 305 133 311 121 315 107 c 0
 319 94 321 80 321 66 c 0
EndSplineSet
EndChar

StartChar: uFF38D
Encoding: 1045389 1045389 173
Width: 331
VWidth: 444
Flags: HW
LayerCount: 2
Fore
SplineSet
-8 0 m 0
 -8 1 -8 2 -8 3 c 0
 -8 4 -8 5 -7 6 c 2
 -1 11 l 1
 -1 12 0 12 1 12 c 0
 1 12 2 12 2 13 c 1
 32 13 63 15 93 21 c 0
 94 21 96 21 100 22 c 0
 104 23 106 23 107 24 c 0
 123 28 139 32 153 37 c 0
 168 43 183 49 197 56 c 0
 201 58 204 60 207 62 c 0
 212 65 212 65 216 68 c 0
 220 71 224 73 227 75 c 0
 231 77 235 79 238 82 c 0
 251 93 261 106 268 121 c 0
 276 136 280 151 280 168 c 0
 280 188 274 205 263 218 c 0
 252 231 237 240 217 246 c 0
 208 249 197 250 187 250 c 0
 177 250 168 249 161 246 c 0
 154 243 147 238 140 230 c 0
 138 228 136 225 135 222 c 0
 132 218 132 218 130 213 c 0
 128 207 127 201 127 195 c 0
 127 182 131 173 139 166 c 0
 148 160 158 157 169 157 c 0
 173 157 178 157 183 158 c 0
 189 159 193 161 196 164 c 0
 199 167 202 170 204 173 c 0
 206 176 207 180 207 185 c 256
 207 189 205 194 201 197 c 0
 197 201 193 202 188 202 c 0
 184 202 181 201 178 197 c 1
 178 197 178 197 178 196 c 2
 179 196 l 1
 182 195 184 194 186 193 c 0
 188 192 189 189 189 185 c 0
 189 179 186 175 180 175 c 0
 174 175 169 177 164 181 c 0
 160 185 157 190 157 196 c 0
 157 204 161 211 167 215 c 0
 174 220 181 222 188 222 c 0
 199 222 208 219 216 211 c 0
 224 204 228 194 228 184 c 0
 228 178 226 173 224 168 c 0
 219 158 213 151 206 146 c 0
 198 141 189 138 179 136 c 1
 169 136 l 1
 160 136 l 2
 154 137 148 138 141 141 c 0
 130 146 121 154 116 162 c 0
 110 171 107 182 107 194 c 2
 107 201 l 2
 107 205 107 209 108 213 c 0
 110 217 111 221 112 224 c 0
 120 240 130 252 142 259 c 0
 154 267 169 271 187 271 c 0
 196 271 205 270 214 268 c 0
 223 266 231 264 240 260 c 0
 248 256 256 252 263 246 c 0
 270 241 276 235 281 228 c 0
 284 224 286 221 288 217 c 0
 291 211 291 211 294 205 c 2
 294 205 294 205 295 205 c 1
 299 211 303 217 307 223 c 0
 311 229 316 235 321 239 c 0
 327 244 333 247 339 250 c 0
 346 253 353 254 360 254 c 0
 363 254 365 254 368 254 c 0
 371 254 373 253 376 252 c 0
 379 252 382 251 384 250 c 0
 387 248 389 247 390 245 c 0
 393 241 394 236 394 230 c 0
 394 225 392 221 388 217 c 0
 385 213 380 210 375 210 c 0
 373 210 371 211 370 211 c 2
 370 212 l 2
 369 212 369 212 368 212 c 1
 368 213 368 213 366 214 c 0
 365 215 365 216 364 217 c 1
 363 218 362 220 361 221 c 0
 360 223 359 225 359 227 c 0
 359 229 359 230 360 231 c 0
 360 232 360 233 361 234 c 1
 360 234 l 2
 353 234 346 232 340 227 c 0
 333 223 328 218 324 212 c 0
 323 212 323 211 322 210 c 2
 320 208 l 1
 320 207 l 1
 321 207 l 2
 322 207 322 207 323 208 c 0
 324 208 325 208 325 208 c 0
 326 208 327 208 328 209 c 0
 330 209 331 209 331 210 c 1
 340 210 l 1
 349 210 l 1
 349 209 350 209 351 209 c 0
 352 209 353 209 353 209 c 2
 360 207 366 205 371 202 c 0
 376 199 380 194 383 188 c 0
 384 186 384 184 384 182 c 0
 384 180 384 178 384 176 c 2
 384 170 l 2
 384 170 384 169 384 168 c 0
 384 167 384 167 384 166 c 1
 382 162 380 159 376 156 c 0
 373 153 369 152 364 152 c 0
 359 152 354 154 350 159 c 0
 348 161 348 164 348 168 c 0
 348 168 348 169 348 170 c 2
 348 172 l 1
 348 174 349 177 352 180 c 0
 354 182 357 184 359 185 c 1
 358 185 358 185 358 186 c 0
 358 186 358 186 357 186 c 2
 355 187 352 188 349 189 c 0
 346 189 343 189 340 189 c 0
 337 189 334 189 332 188 c 0
 329 188 326 187 323 185 c 1
 323 185 322 185 322 184 c 0
 321 184 l 1
 320 183 319 182 317 180 c 0
 316 178 315 177 314 177 c 2
 311 173 309 169 308 166 c 0
 306 163 305 160 304 157 c 0
 302 154 301 151 300 148 c 1
 301 148 l 1
 307 150 312 151 317 152 c 0
 321 153 327 154 332 154 c 2
 340 154 l 2
 345 153 349 151 354 148 c 0
 359 144 362 139 363 134 c 2
 363 134 364 134 364 133 c 2
 364 132 l 1
 364 126 l 2
 364 122 363 117 362 112 c 0
 360 108 358 103 354 100 c 0
 353 100 352 99 349 99 c 0
 347 99 345 98 344 98 c 0
 341 98 337 99 332 100 c 0
 328 102 325 104 324 107 c 0
 323 109 323 110 322 111 c 0
 322 113 322 114 322 115 c 0
 322 121 324 125 328 127 c 0
 332 129 337 131 341 132 c 1
 340 133 338 133 336 133 c 0
 335 133 333 134 331 134 c 0
 323 134 316 132 308 128 c 0
 300 124 293 120 288 114 c 1
 283 104 283 104 277 95 c 0
 273 89 269 84 264 78 c 0
 261 75 257 72 254 69 c 0
 251 67 248 64 244 61 c 0
 243 61 242 60 240 59 c 0
 239 58 237 57 237 56 c 1
 236 56 235 55 232 53 c 0
 229 52 228 51 227 50 c 0
 227 50 225 49 223 48 c 0
 221 47 220 46 220 46 c 0
 207 38 194 31 180 26 c 0
 167 20 153 15 139 10 c 1
 331 10 l 2
 332 10 333 10 334 10 c 0
 338 7 340 4 340 0 c 0
 340 -5 338 -8 334 -10 c 1
 333 -10 333 -10 333 -10 c 2
 332 -10 l 1
 0 -10 l 2
 -1 -10 -3 -9 -4 -8 c 0
 -5 -7 -6 -6 -7 -5 c 0
 -8 -5 -8 -4 -8 -3 c 0
 -8 -2 -8 -1 -8 0 c 0
342 132 m 0
 343 131 l 0
 342 130 l 0
 341 130 341 131 341 131 c 0
 341 131 341 132 342 132 c 0
EndSplineSet
EndChar

StartChar: uFF38E
Encoding: 1045390 1045390 174
Width: 286
VWidth: 444
Flags: HW
LayerCount: 2
Fore
SplineSet
-9 0 m 0
 -9 4 -8 7 -5 8 c 1
 -5 9 -4 9 -3 10 c 2
 -1 10 l 1
 98 10 l 2
 98 10 100 11 102 11 c 0
 105 12 107 12 109 13 c 2
 123 16 135 21 147 30 c 0
 159 38 169 48 178 59 c 0
 187 71 194 83 199 97 c 0
 204 110 207 124 207 138 c 0
 207 154 203 168 196 180 c 0
 189 191 179 201 165 210 c 0
 154 217 141 221 128 221 c 0
 116 221 104 218 93 212 c 0
 82 206 73 198 66 188 c 0
 64 185 62 181 62 178 c 0
 61 175 60 171 60 167 c 2
 60 161 l 1
 61 160 l 2
 61 159 61 159 61 158 c 0
 65 145 73 135 85 128 c 0
 92 124 101 122 110 122 c 0
 116 122 123 123 130 125 c 0
 138 127 143 131 146 137 c 0
 148 139 149 141 149 143 c 0
 149 145 149 147 149 150 c 2
 149 155 l 2
 149 158 148 161 146 163 c 0
 143 166 141 168 139 170 c 0
 137 172 134 173 130 173 c 0
 128 173 127 173 126 173 c 1
 123 171 l 1
 125 171 126 170 127 169 c 0
 128 168 129 167 130 166 c 0
 131 165 132 164 132 163 c 0
 132 162 132 162 132 161 c 0
 132 157 130 153 126 149 c 0
 123 146 119 144 115 144 c 0
 111 144 108 145 105 148 c 0
 102 151 100 154 99 157 c 2
 99 158 98 159 98 160 c 2
 98 165 l 1
 98 170 l 2
 98 171 99 171 99 173 c 2
 100 176 101 178 103 180 c 0
 104 183 107 185 109 187 c 0
 112 189 115 191 118 192 c 0
 122 193 126 193 129 193 c 0
 135 193 141 192 146 190 c 0
 151 187 155 184 159 180 c 0
 162 176 165 171 167 166 c 0
 169 160 170 155 170 149 c 0
 170 137 166 127 159 120 c 0
 151 112 142 107 132 104 c 0
 128 103 125 102 121 102 c 0
 118 102 114 102 111 102 c 0
 107 102 103 102 100 102 c 0
 96 102 93 103 89 104 c 0
 86 104 84 105 81 107 c 0
 78 108 76 109 73 111 c 0
 64 117 55 125 49 135 c 0
 43 144 40 155 40 167 c 0
 40 181 44 193 53 205 c 0
 61 217 73 226 86 232 c 0
 99 238 113 241 128 241 c 0
 134 241 139 241 145 240 c 0
 150 239 155 238 160 235 c 2
 175 228 l 2
 181 225 188 220 194 214 c 0
 201 208 208 200 213 191 c 0
 218 182 222 173 224 163 c 0
 226 158 226 154 227 150 c 0
 227 147 227 142 227 137 c 2
 227 127 l 2
 227 122 226 117 225 112 c 0
 224 107 222 102 221 97 c 0
 219 92 217 87 215 81 c 0
 213 76 210 71 208 66 c 0
 207 65 207 64 206 63 c 0
 205 61 204 60 204 60 c 0
 196 48 187 37 176 26 c 1
 175 25 174 25 173 24 c 0
 172 23 171 22 171 22 c 0
 169 20 169 20 164 16 c 0
 158 12 158 12 156 10 c 1
 286 10 l 1
 287 10 l 2
 288 10 288 10 288 10 c 2
 293 8 295 5 295 0 c 0
 295 -2 294 -4 293 -5 c 0
 291 -8 289 -10 286 -10 c 2
 0 -10 l 2
 -3 -10 -5 -9 -7 -7 c 0
 -8 -5 -9 -2 -9 0 c 0
EndSplineSet
EndChar

StartChar: uFF390
Encoding: 1045392 1045392 176
Width: 324
VWidth: 444
Flags: HW
LayerCount: 2
Fore
SplineSet
-78 69 m 2
 -78 60 -76 51 -74 42 c 0
 -71 34 -66 26 -60 19 c 0
 -53 11 -46 5 -38 1 c 0
 -30 -4 -21 -7 -11 -8 c 0
 -9 -9 -7 -9 -4 -9 c 0
 -2 -10 0 -10 0 -10 c 2
 332 -10 l 2
 332 -10 334 -10 338 -11 c 0
 342 -11 345 -11 348 -12 c 0
 368 -15 385 -23 398 -35 c 0
 411 -47 418 -64 418 -86 c 0
 418 -94 417 -101 415 -109 c 0
 413 -116 410 -124 406 -130 c 0
 402 -137 398 -144 392 -149 c 0
 387 -155 381 -160 374 -164 c 0
 364 -169 354 -172 344 -172 c 0
 340 -172 337 -172 334 -171 c 0
 331 -171 328 -170 324 -168 c 0
 320 -166 315 -164 312 -161 c 0
 308 -158 304 -155 301 -151 c 0
 297 -147 294 -142 291 -137 c 0
 288 -132 287 -126 287 -120 c 0
 287 -112 289 -106 294 -101 c 0
 299 -96 305 -93 312 -90 c 0
 316 -88 320 -87 324 -87 c 0
 329 -87 334 -88 339 -90 c 0
 343 -92 347 -95 350 -99 c 0
 351 -101 352 -102 352 -103 c 0
 352 -105 351 -106 349 -106 c 0
 347 -107 345 -107 342 -108 c 0
 339 -108 337 -109 335 -110 c 0
 333 -112 332 -114 332 -118 c 0
 332 -125 335 -128 342 -128 c 0
 349 -128 356 -126 363 -122 c 0
 369 -118 373 -112 373 -104 c 0
 373 -98 371 -93 368 -88 c 0
 365 -84 361 -80 357 -77 c 0
 352 -73 347 -71 341 -69 c 0
 336 -67 330 -66 325 -66 c 0
 319 -66 313 -67 306 -70 c 0
 300 -72 294 -75 289 -78 c 0
 284 -82 279 -87 275 -92 c 0
 271 -98 268 -103 267 -110 c 0
 267 -110 267 -111 267 -112 c 2
 267 -113 l 1
 267 -121 l 1
 267 -128 l 1
 268 -137 271 -146 277 -153 c 0
 282 -161 288 -168 295 -174 c 0
 301 -179 309 -184 317 -188 c 0
 326 -191 334 -193 343 -193 c 0
 353 -193 363 -191 372 -187 c 0
 382 -183 390 -178 398 -172 c 0
 405 -166 412 -158 418 -150 c 0
 423 -142 428 -133 432 -124 c 0
 436 -111 438 -98 438 -85 c 0
 438 -65 433 -48 424 -34 c 0
 415 -20 401 -9 382 -1 c 0
 377 2 371 4 365 5 c 0
 359 7 353 8 347 9 c 0
 345 9 344 9 341 10 c 0
 339 10 336 10 334 10 c 0
 331 10 329 11 327 11 c 0
 325 11 323 11 323 11 c 2
 -3 11 l 2
 -3 11 -4 11 -6 11 c 0
 -8 12 -9 12 -10 12 c 0
 -24 15 -36 22 -44 32 c 0
 -53 42 -58 55 -58 69 c 0
 -58 76 -57 83 -54 89 c 0
 -51 95 -48 101 -44 106 c 0
 -33 118 -19 125 -2 125 c 0
 3 125 8 124 12 123 c 0
 15 122 19 119 22 115 c 0
 24 113 25 112 25 110 c 0
 25 108 25 106 25 104 c 0
 25 101 24 98 24 95 c 0
 21 89 17 83 11 78 c 0
 5 73 -1 71 -8 71 c 0
 -9 71 -10 71 -11 71 c 0
 -12 71 -13 72 -14 72 c 0
 -15 73 -16 74 -16 75 c 0
 -16 75 -17 76 -18 78 c 1
 -21 81 l 1
 -22 82 -24 82 -27 82 c 0
 -33 82 -36 79 -36 72 c 0
 -36 67 -34 62 -30 58 c 0
 -25 55 -20 52 -15 51 c 1
 -9 51 l 2
 2 51 12 54 21 60 c 0
 30 66 37 74 41 84 c 0
 43 87 44 91 44 94 c 0
 45 98 45 101 45 105 c 2
 45 112 l 2
 45 115 44 117 43 119 c 0
 42 122 41 124 40 126 c 0
 36 132 32 136 26 139 c 0
 20 142 14 144 8 145 c 2
 -2 145 l 1
 -11 145 l 2
 -14 144 -17 144 -20 143 c 0
 -24 142 -27 141 -30 140 c 0
 -36 138 -42 135 -47 131 c 0
 -52 127 -57 122 -61 117 c 0
 -65 111 -69 106 -72 100 c 0
 -75 93 -76 87 -77 81 c 0
 -77 81 -77 80 -78 78 c 2
 -78 77 l 1
 -78 69 l 2
16 -75 m 0
 16 -78 16 -81 16 -83 c 0
 17 -86 18 -88 20 -90 c 0
 22 -91 24 -91 26 -91 c 0
 29 -91 29 -91 32 -91 c 0
 37 -91 40 -91 42 -89 c 0
 44 -87 45 -84 47 -80 c 0
 47 -79 48 -77 49 -75 c 0
 49 -73 50 -72 50 -71 c 2
 50 -69 l 2
 50 -63 47 -59 40 -59 c 0
 35 -59 30 -61 26 -63 c 0
 23 -65 21 -66 19 -68 c 0
 17 -70 16 -72 16 -75 c 0
95 -64 m 2
 94 -64 94 -64 93 -65 c 0
 92 -65 91 -66 91 -66 c 0
 90 -67 89 -68 88 -69 c 0
 88 -71 88 -72 87 -74 c 0
 87 -75 86 -76 85 -77 c 0
 85 -78 84 -79 84 -81 c 0
 84 -86 86 -89 90 -91 c 0
 94 -93 98 -94 102 -94 c 0
 105 -94 108 -93 110 -91 c 0
 112 -90 114 -88 115 -86 c 0
 116 -84 116 -83 116 -82 c 0
 117 -82 117 -81 117 -79 c 0
 117 -78 117 -77 116 -76 c 0
 116 -75 115 -74 115 -73 c 1
 115 -73 114 -72 114 -70 c 1
 113 -66 109 -63 104 -63 c 2
 103 -63 101 -63 99 -64 c 0
 97 -64 95 -64 95 -64 c 2
144 -84 m 0
 144 -89 146 -92 151 -93 c 1
 151 -93 151 -93 152 -93 c 0
 153 -93 154 -94 154 -94 c 1
 156 -94 157 -95 157 -95 c 0
 158 -95 159 -95 160 -95 c 0
 162 -95 163 -95 164 -95 c 0
 165 -95 166 -94 167 -94 c 0
 170 -91 172 -89 174 -86 c 0
 175 -83 176 -80 176 -77 c 0
 176 -74 175 -72 174 -70 c 0
 172 -68 170 -67 167 -66 c 2
 161 -66 l 2
 161 -66 160 -66 159 -66 c 0
 158 -66 157 -66 157 -66 c 2
 156 -66 l 2
 152 -66 149 -68 147 -73 c 1
 147 -73 147 -73 146 -74 c 0
 146 -75 146 -75 146 -75 c 1
 145 -78 145 -78 145 -79 c 0
 144 -81 144 -82 144 -84 c 0
EndSplineSet
EndChar

StartChar: uFF391
Encoding: 1045393 1045393 177
Width: 284
VWidth: 444
Flags: HW
LayerCount: 2
Fore
SplineSet
-79 58 m 0
 -79 46 -76 35 -70 25 c 0
 -65 15 -57 7 -46 1 c 1
 -58 -7 -67 -17 -71 -31 c 0
 -72 -35 -73 -38 -73 -40 c 0
 -73 -43 -73 -46 -73 -50 c 2
 -73 -57 l 2
 -73 -61 -72 -65 -70 -68 c 0
 -69 -72 -67 -76 -65 -79 c 0
 -59 -87 -53 -94 -45 -99 c 0
 -37 -104 -28 -108 -19 -111 c 0
 -15 -112 -11 -113 -8 -113 c 0
 -4 -114 0 -114 3 -114 c 0
 10 -114 17 -113 24 -111 c 0
 32 -109 39 -106 46 -102 c 0
 52 -98 58 -93 62 -88 c 0
 66 -82 68 -75 68 -67 c 0
 68 -61 67 -56 65 -52 c 0
 57 -33 42 -24 20 -24 c 0
 10 -24 0 -26 -9 -30 c 0
 -19 -33 -27 -39 -33 -47 c 0
 -34 -49 -36 -51 -37 -53 c 0
 -38 -54 -38 -57 -38 -59 c 0
 -38 -66 -35 -69 -29 -69 c 0
 -24 -69 -21 -68 -20 -65 c 0
 -19 -62 -17 -59 -13 -56 c 0
 -9 -52 -4 -49 2 -47 c 0
 7 -45 13 -44 19 -44 c 0
 29 -44 37 -47 44 -54 c 0
 46 -58 48 -62 48 -67 c 2
 48 -70 l 2
 48 -71 47 -72 47 -73 c 0
 46 -74 46 -75 45 -75 c 0
 41 -81 35 -86 27 -89 c 0
 18 -92 11 -94 4 -94 c 0
 1 -94 -1 -93 -3 -93 c 0
 -5 -93 -7 -92 -10 -92 c 0
 -15 -91 -20 -89 -26 -87 c 0
 -31 -84 -35 -82 -39 -78 c 0
 -43 -74 -47 -70 -49 -66 c 0
 -51 -61 -52 -55 -52 -50 c 0
 -52 -37 -49 -28 -42 -22 c 0
 -36 -17 -27 -13 -15 -11 c 0
 -15 -11 -14 -11 -13 -11 c 0
 -12 -11 -11 -11 -11 -11 c 0
 -9 -11 -7 -10 -5 -10 c 0
 -2 -10 -1 -10 0 -10 c 2
 284 -10 l 2
 298 -10 311 -12 324 -16 c 0
 333 -19 342 -22 350 -26 c 0
 357 -30 364 -35 370 -40 c 0
 375 -46 380 -53 383 -60 c 0
 386 -68 388 -77 388 -87 c 2
 388 -94 l 2
 387 -97 386 -101 385 -104 c 0
 384 -107 382 -110 381 -113 c 0
 375 -123 367 -131 355 -136 c 0
 344 -141 332 -143 321 -143 c 0
 307 -143 293 -139 281 -132 c 0
 273 -128 268 -123 264 -116 c 0
 260 -109 258 -102 258 -93 c 0
 258 -86 259 -79 263 -72 c 0
 266 -66 271 -61 278 -58 c 0
 280 -57 282 -57 284 -56 c 0
 287 -56 289 -56 291 -56 c 0
 297 -56 303 -57 309 -60 c 0
 315 -62 320 -66 324 -70 c 1
 324 -71 324 -71 323 -71 c 0
 323 -72 322 -72 322 -72 c 0
 321 -72 321 -71 320 -70 c 0
 319 -70 319 -69 319 -68 c 1
 316 -66 313 -64 310 -64 c 0
 304 -64 300 -67 300 -74 c 0
 300 -78 302 -81 304 -84 c 0
 307 -86 309 -89 312 -91 c 1
 314 -93 316 -94 318 -94 c 256
 321 -94 323 -93 326 -92 c 0
 331 -90 335 -88 339 -85 c 0
 343 -81 345 -77 345 -72 c 0
 345 -67 344 -63 341 -60 c 0
 339 -56 335 -53 332 -50 c 0
 328 -47 324 -44 320 -42 c 0
 315 -40 311 -39 308 -38 c 0
 307 -38 305 -37 302 -37 c 0
 300 -36 298 -36 298 -36 c 2
 291 -36 l 1
 283 -36 l 2
 281 -36 279 -37 276 -37 c 0
 273 -38 273 -38 271 -39 c 0
 267 -41 263 -43 260 -45 c 0
 257 -48 254 -51 251 -54 c 0
 246 -59 243 -65 240 -72 c 0
 238 -79 237 -86 237 -93 c 0
 237 -119 249 -139 272 -151 c 0
 283 -157 294 -161 306 -162 c 2
 307 -163 308 -163 309 -163 c 0
 310 -163 311 -163 311 -163 c 2
 321 -163 l 1
 332 -163 l 2
 332 -163 333 -163 334 -163 c 0
 335 -163 336 -163 336 -162 c 2
 347 -161 356 -158 365 -154 c 0
 373 -150 381 -145 388 -138 c 0
 394 -132 399 -124 403 -116 c 0
 407 -107 408 -98 408 -87 c 0
 408 -74 406 -63 402 -52 c 0
 397 -42 391 -33 384 -26 c 0
 376 -18 367 -11 357 -6 c 0
 346 -1 335 2 324 5 c 2
 322 6 319 6 315 7 c 0
 311 7 309 8 308 8 c 0
 306 9 305 9 303 9 c 0
 301 9 299 10 297 10 c 0
 295 10 293 10 291 10 c 0
 290 10 289 10 288 10 c 2
 3 10 l 1
 2 12 1 12 -1 12 c 0
 -11 12 -21 13 -30 16 c 0
 -39 18 -46 25 -52 34 c 0
 -56 42 -58 50 -58 58 c 2
 -58 63 l 2
 -58 65 -57 67 -56 69 c 0
 -56 71 -55 73 -54 74 c 0
 -51 78 -49 81 -45 84 c 0
 -44 85 -42 86 -40 87 c 0
 -38 88 -36 89 -34 90 c 0
 -31 92 -27 93 -23 94 c 0
 -20 94 -16 94 -12 94 c 256
 -8 94 -4 94 0 94 c 0
 4 93 8 92 11 90 c 0
 15 88 17 86 20 83 c 0
 22 80 23 75 23 70 c 0
 23 67 22 65 22 62 c 0
 22 59 21 57 19 54 c 0
 19 54 18 53 17 53 c 0
 16 53 15 53 14 53 c 0
 12 53 10 53 7 54 c 0
 5 55 3 57 2 58 c 0
 1 59 1 59 -2 62 c 0
 -4 64 -4 64 -5 65 c 0
 -8 68 -9 70 -10 73 c 0
 -11 75 -14 77 -19 77 c 0
 -25 77 -28 73 -28 67 c 0
 -28 64 -28 62 -26 60 c 0
 -24 57 -24 57 -22 54 c 0
 -22 54 -22 53 -21 53 c 0
 -21 52 -21 52 -20 52 c 1
 -15 46 -10 41 -5 38 c 0
 1 34 8 32 16 32 c 0
 20 32 23 33 27 35 c 0
 30 37 33 40 36 43 c 0
 39 46 41 51 42 56 c 0
 43 61 44 66 44 70 c 0
 44 81 41 89 35 96 c 0
 29 103 21 108 12 111 c 0
 8 113 4 114 0 114 c 0
 -3 114 -8 114 -12 114 c 2
 -22 114 l 2
 -25 114 -28 114 -32 113 c 0
 -35 112 -38 111 -41 110 c 0
 -52 106 -61 99 -68 90 c 0
 -75 80 -79 70 -79 58 c 0
88 -59 m 2
 88 -62 l 1
 88 -64 90 -66 92 -68 c 0
 94 -71 96 -72 98 -73 c 0
 99 -74 100 -74 100 -74 c 0
 101 -74 102 -74 103 -74 c 0
 107 -74 110 -73 113 -70 c 0
 115 -68 118 -66 120 -63 c 0
 122 -62 123 -59 123 -57 c 2
 123 -56 l 1
 123 -55 123 -54 122 -52 c 0
 122 -50 122 -49 122 -49 c 2
 122 -48 121 -48 121 -47 c 0
 120 -46 120 -46 120 -46 c 1
 119 -44 117 -43 114 -42 c 0
 112 -42 110 -42 108 -42 c 0
 106 -42 105 -42 103 -42 c 0
 102 -42 101 -43 100 -45 c 1
 100 -45 99 -45 99 -46 c 0
 98 -47 98 -48 97 -48 c 1
 97 -49 96 -49 96 -49 c 0
 95 -49 94 -49 94 -50 c 2
 91 -51 90 -52 89 -54 c 0
 88 -55 88 -57 88 -59 c 2
135 -59 m 256
 135 -65 137 -68 141 -69 c 0
 146 -70 150 -70 155 -70 c 0
 158 -70 160 -69 162 -67 c 0
 164 -64 164 -62 164 -59 c 0
 164 -57 164 -55 164 -54 c 1
 164 -53 164 -53 162 -50 c 0
 161 -48 161 -48 160 -47 c 0
 159 -44 156 -42 152 -42 c 2
 149 -42 l 2
 144 -43 140 -44 138 -47 c 0
 136 -49 135 -53 135 -59 c 256
170 -59 m 0
 170 -60 170 -61 170 -62 c 0
 171 -62 171 -63 172 -64 c 1
 172 -64 172 -65 173 -66 c 0
 174 -67 l 1
 176 -69 177 -71 178 -72 c 0
 179 -73 181 -74 184 -74 c 0
 186 -74 186 -74 188 -74 c 256
 189 -74 191 -74 192 -74 c 0
 193 -73 195 -72 198 -69 c 0
 200 -66 201 -64 201 -62 c 1
 201 -59 l 2
 201 -58 201 -56 201 -55 c 0
 200 -54 199 -52 198 -51 c 0
 197 -50 196 -49 194 -48 c 0
 193 -47 192 -46 191 -46 c 1
 189 -45 188 -45 186 -45 c 2
 185 -45 l 2
 184 -45 l 0
 183 -45 183 -45 182 -45 c 1
 181 -46 181 -46 179 -47 c 0
 176 -48 176 -48 175 -49 c 0
 172 -51 170 -54 170 -59 c 0
EndSplineSet
EndChar

StartChar: uFF392
Encoding: 1045394 1045394 178
Width: 16
VWidth: 444
Flags: HW
LayerCount: 2
Fore
SplineSet
434 160 m 1
 281 98 l 1
 100 34 l 1
 79 29 l 1
 7 14 l 2
 4 14 4 14 1 14 c 0
 -2 13 -4 13 -6 12 c 0
 -7 11 -9 10 -10 8 c 0
 -12 7 -12 5 -12 2 c 0
 -12 0 -12 -2 -10 -4 c 0
 -9 -5 -8 -7 -6 -8 c 0
 -5 -9 -4 -9 -3 -10 c 0
 -2 -10 -1 -10 0 -10 c 2
 2 -10 l 1
 55 -1 l 1
 121 15 l 1
 462 130 l 1
 506 142 l 1
 564 153 l 2
 565 153 566 153 570 154 c 0
 573 154 576 155 580 155 c 0
 586 156 586 156 592 156 c 0
 595 157 598 157 600 158 c 0
 601 158 602 158 604 158 c 0
 606 158 608 158 610 158 c 0
 612 158 614 158 617 158 c 0
 619 158 620 158 621 158 c 2
 628 158 l 2
 634 158 639 158 644 158 c 0
 650 158 655 157 660 156 c 0
 661 156 662 156 663 156 c 0
 665 155 666 155 668 155 c 0
 670 154 672 154 674 154 c 0
 676 153 677 153 678 153 c 0
 685 151 691 147 695 141 c 0
 696 139 696 138 696 136 c 0
 696 135 696 133 696 131 c 2
 696 127 l 2
 696 126 696 126 696 125 c 0
 695 125 695 124 694 124 c 2
 693 124 l 1
 692 125 690 126 688 127 c 0
 687 128 685 129 683 129 c 0
 679 129 676 127 673 123 c 2
 673 122 l 1
 673 115 l 2
 673 114 674 112 676 111 c 0
 678 109 679 108 680 107 c 0
 683 106 685 105 688 104 c 0
 690 104 692 103 695 103 c 0
 703 103 708 106 712 112 c 0
 716 118 717 125 717 131 c 0
 717 139 716 145 713 150 c 0
 710 155 706 160 701 165 c 1
 701 165 701 165 700 165 c 0
 699 166 699 166 699 166 c 1
 693 169 687 171 682 173 c 1
 684 173 l 2
 685 173 687 173 690 172 c 0
 692 172 695 172 699 172 c 0
 704 171 704 171 709 171 c 0
 713 171 716 170 717 170 c 0
 728 169 738 167 748 165 c 0
 759 163 769 161 780 158 c 0
 781 157 784 156 789 154 c 0
 793 153 796 152 798 151 c 0
 798 151 799 151 801 150 c 0
 804 149 804 149 806 148 c 0
 808 147 810 147 812 146 c 0
 813 145 815 145 816 144 c 0
 816 144 818 143 820 142 c 0
 823 141 825 140 826 139 c 0
 830 138 834 135 839 132 c 0
 845 129 849 125 854 121 c 0
 859 117 862 113 866 108 c 0
 869 103 870 98 870 93 c 0
 870 89 869 86 867 83 c 0
 865 80 861 78 857 78 c 0
 855 78 854 78 852 79 c 0
 851 79 850 80 848 81 c 0
 847 82 846 83 845 83 c 0
 844 84 842 84 840 84 c 0
 837 84 835 83 833 81 c 0
 832 79 831 77 831 74 c 0
 831 73 831 73 831 71 c 0
 831 70 831 70 832 69 c 0
 837 64 842 60 848 58 c 2
 849 58 849 58 850 58 c 2
 851 58 l 1
 863 58 l 1
 864 58 l 2
 865 58 865 58 865 58 c 1
 867 59 869 60 872 60 c 0
 874 61 875 62 877 64 c 0
 878 65 878 65 880 67 c 0
 883 70 883 70 884 71 c 0
 887 74 888 77 889 81 c 0
 890 85 891 89 891 93 c 2
 891 98 l 1
 890 101 890 103 889 104 c 0
 888 107 888 107 888 110 c 0
 886 113 885 116 883 118 c 0
 882 121 880 124 878 126 c 0
 873 132 867 138 861 142 c 0
 854 147 848 151 840 155 c 0
 816 168 790 177 763 183 c 0
 736 188 708 192 681 194 c 1
 684 194 688 194 694 194 c 0
 700 194 707 195 714 195 c 0
 721 196 728 196 734 196 c 0
 740 197 744 197 747 197 c 2
 760 197 l 1
 774 197 l 2
 776 197 780 197 784 196 c 0
 789 196 794 196 800 195 c 0
 805 195 810 195 814 194 c 0
 819 194 822 194 824 194 c 0
 833 193 842 193 851 191 c 0
 860 190 869 189 879 187 c 0
 901 183 924 177 946 167 c 0
 957 163 967 159 976 153 c 0
 986 148 995 142 1004 136 c 0
 1005 135 1007 134 1010 132 c 0
 1014 129 1014 129 1016 128 c 0
 1017 127 1019 125 1021 124 c 0
 1023 122 1025 120 1025 120 c 0
 1026 119 1026 119 1028 118 c 0
 1029 116 1029 116 1031 114 c 0
 1033 112 1033 112 1035 110 c 0
 1037 108 1037 108 1038 107 c 0
 1040 104 1043 101 1045 97 c 0
 1047 93 1048 89 1048 85 c 0
 1048 82 1047 79 1045 75 c 0
 1044 72 1041 70 1038 68 c 0
 1038 67 1037 67 1037 67 c 0
 1036 67 1036 67 1036 66 c 1
 1035 66 l 1
 1035 67 1034 68 1033 69 c 0
 1032 70 1031 70 1031 71 c 1
 1031 71 1030 72 1028 72 c 0
 1027 72 1027 72 1026 72 c 0
 1022 72 1019 71 1015 69 c 0
 1012 67 1010 64 1010 60 c 0
 1010 59 1010 58 1010 57 c 0
 1009 57 1010 56 1010 55 c 0
 1012 51 1015 49 1020 48 c 0
 1024 46 1028 46 1032 46 c 0
 1038 46 1043 47 1047 49 c 0
 1051 51 1055 55 1060 59 c 0
 1063 63 1065 67 1066 72 c 0
 1067 76 1068 81 1068 85 c 2
 1068 91 l 2
 1068 91 1068 92 1068 94 c 0
 1067 95 1067 96 1067 97 c 0
 1065 101 1063 105 1062 110 c 0
 1060 114 1057 117 1054 121 c 0
 1044 131 1034 140 1023 148 c 0
 1012 156 1000 164 988 170 c 0
 980 175 972 178 964 182 c 0
 956 186 948 189 940 192 c 0
 928 196 915 200 903 203 c 0
 890 206 877 208 864 210 c 0
 847 213 829 214 811 215 c 0
 794 216 776 217 758 217 c 2
 736 217 l 1
 648 211 l 2
 648 211 645 211 642 211 c 0
 639 210 635 210 632 209 c 0
 628 209 624 209 621 208 c 0
 617 208 615 208 613 207 c 0
 611 207 608 207 603 206 c 0
 596 205 596 205 589 203 c 0
 584 202 580 202 575 201 c 0
 569 199 569 199 567 199 c 0
 564 198 559 197 554 196 c 0
 545 194 545 194 537 192 c 0
 528 190 528 190 521 188 c 0
 516 187 513 186 512 185 c 2
 434 160 l 1
EndSplineSet
EndChar

StartChar: uFF393
Encoding: 1045395 1045395 179
Width: 16
VWidth: 444
Flags: HW
LayerCount: 2
Fore
SplineSet
-4 10 m 1
 -6 9 -8 8 -9 6 c 0
 -10 4 -11 2 -11 0 c 256
 -11 -3 -10 -5 -8 -6 c 0
 -7 -8 -5 -9 -3 -10 c 0
 -3 -10 -1 -10 0 -10 c 256
 2 -10 2 -10 3 -10 c 0
 26 -10 48 -5 70 4 c 0
 92 13 110 26 126 42 c 0
 131 48 136 54 140 60 c 0
 144 66 148 73 152 79 c 0
 153 81 154 83 156 87 c 0
 158 90 159 92 159 93 c 1
 188 159 l 1
 188 159 188 160 189 161 c 0
 189 163 190 164 191 166 c 0
 192 168 192 168 193 170 c 0
 194 172 194 172 195 173 c 0
 195 174 196 176 198 178 c 0
 199 181 200 183 202 186 c 0
 203 188 205 190 206 192 c 0
 207 195 208 196 208 197 c 0
 209 198 210 200 212 203 c 0
 215 207 215 207 219 213 c 0
 222 218 222 218 226 223 c 0
 228 226 229 229 230 230 c 0
 233 234 236 238 239 242 c 0
 244 247 244 247 248 253 c 0
 264 270 281 285 300 297 c 0
 320 309 341 318 363 323 c 0
 371 325 379 326 387 327 c 0
 395 328 403 328 412 328 c 0
 423 328 434 328 447 326 c 0
 459 325 470 322 480 318 c 0
 485 315 485 315 489 313 c 0
 492 311 495 309 497 307 c 1
 480 307 l 2
 477 307 475 306 472 306 c 0
 468 304 468 304 463 303 c 0
 456 301 450 297 445 291 c 0
 440 286 436 280 434 273 c 0
 434 271 433 269 433 267 c 0
 433 266 433 263 433 261 c 2
 433 255 l 1
 433 252 435 248 436 244 c 0
 440 231 449 222 461 217 c 1
 461 217 462 217 463 216 c 0
 464 216 464 216 464 216 c 1
 464 215 l 1
 464 214 l 2
 463 214 l 1
 460 212 457 209 452 206 c 0
 447 204 443 202 439 202 c 2
 433 202 l 2
 429 202 426 203 422 204 c 0
 419 205 416 206 413 209 c 0
 411 211 408 214 406 216 c 0
 404 219 401 220 397 220 c 0
 394 220 392 219 390 217 c 0
 388 215 387 213 387 210 c 0
 387 207 388 205 390 202 c 0
 391 202 391 202 395 198 c 0
 397 195 399 194 400 193 c 0
 404 189 409 186 415 184 c 0
 421 182 427 181 432 181 c 0
 442 181 452 184 462 189 c 0
 472 194 481 200 488 207 c 0
 493 212 493 212 498 217 c 0
 502 222 502 222 507 227 c 1
 507 226 l 2
 507 225 507 224 506 223 c 0
 506 221 505 220 505 219 c 0
 503 216 502 212 500 209 c 0
 497 206 495 203 492 200 c 2
 484 192 l 2
 480 189 480 189 477 186 c 0
 475 184 474 182 474 178 c 0
 474 175 475 173 476 171 c 0
 478 169 481 168 484 168 c 0
 486 168 488 169 490 170 c 0
 492 172 494 173 496 175 c 0
 497 176 497 176 502 181 c 0
 505 184 508 186 508 187 c 0
 516 196 522 205 526 216 c 0
 529 227 531 238 531 250 c 0
 531 257 531 264 530 271 c 2
 531 271 531 271 533 270 c 0
 534 269 535 268 536 267 c 0
 539 264 542 261 545 258 c 0
 548 254 549 250 549 246 c 0
 549 243 549 241 548 239 c 0
 546 237 546 235 546 233 c 0
 546 226 549 223 556 223 c 2
 559 223 l 2
 560 223 561 223 562 224 c 0
 563 225 563 226 564 227 c 0
 566 229 568 232 569 236 c 0
 570 239 570 243 570 246 c 0
 570 252 569 257 566 263 c 0
 564 268 560 273 556 277 c 0
 552 281 547 285 542 288 c 0
 535 293 535 293 528 298 c 0
 527 298 527 298 526 299 c 0
 526 300 526 300 526 301 c 1
 524 305 524 305 521 310 c 0
 520 313 518 315 516 318 c 0
 513 321 510 323 507 326 c 0
 504 328 500 331 497 333 c 0
 484 339 471 344 456 346 c 0
 440 348 426 349 412 349 c 0
 378 349 346 342 317 329 c 0
 287 315 261 296 238 272 c 0
 229 262 220 252 213 241 c 0
 202 225 202 225 191 208 c 1
 191 207 190 206 188 204 c 0
 187 201 187 201 185 197 c 0
 183 194 183 194 181 190 c 0
 179 188 178 186 178 186 c 0
 177 184 177 184 175 181 c 0
 174 178 174 178 172 174 c 0
 171 172 170 170 169 168 c 0
 168 166 167 165 167 164 c 2
 145 110 l 1
 145 110 144 109 143 108 c 0
 143 106 142 104 141 102 c 0
 139 99 139 99 138 96 c 0
 137 94 136 93 135 92 c 0
 133 87 130 82 128 78 c 0
 125 74 122 70 119 66 c 0
 109 53 97 43 82 34 c 0
 68 25 53 19 38 15 c 0
 31 14 24 12 18 12 c 0
 11 11 4 11 -4 10 c 1
453 262 m 0
 453 266 454 270 457 273 c 0
 459 276 462 279 465 281 c 0
 469 283 472 284 476 285 c 0
 481 286 485 287 488 287 c 0
 491 287 495 287 499 286 c 0
 503 286 506 285 508 283 c 1
 508 281 508 279 508 277 c 0
 509 275 509 273 509 271 c 0
 509 268 508 265 507 264 c 0
 505 261 505 261 503 257 c 0
 499 251 495 246 492 242 c 0
 488 237 482 235 475 235 c 0
 468 235 463 238 459 244 c 0
 455 250 453 256 453 262 c 0
EndSplineSet
EndChar

StartChar: uFF394
Encoding: 1045396 1045396 180
Width: 22
VWidth: 444
Flags: HW
LayerCount: 2
Fore
SplineSet
-98 -71 m 0
 -98 -81 -96 -89 -92 -98 c 0
 -89 -106 -84 -114 -78 -120 c 0
 -72 -127 -66 -131 -59 -135 c 0
 -52 -138 -45 -140 -36 -140 c 0
 -24 -140 -13 -137 -3 -131 c 0
 0 -130 3 -128 5 -126 c 0
 9 -122 9 -122 12 -119 c 0
 15 -116 17 -113 18 -109 c 0
 20 -105 21 -101 21 -99 c 2
 21 -93 l 2
 21 -74 13 -60 -4 -53 c 0
 -7 -52 -10 -51 -12 -51 c 0
 -15 -50 -17 -50 -20 -50 c 2
 -27 -50 l 2
 -33 -50 -38 -53 -44 -57 c 0
 -50 -62 -53 -67 -53 -74 c 0
 -53 -76 -52 -79 -52 -81 c 0
 -51 -84 -49 -86 -48 -89 c 0
 -46 -91 -44 -93 -42 -95 c 0
 -40 -96 -37 -97 -35 -97 c 0
 -29 -97 -25 -94 -25 -87 c 2
 -25 -84 l 1
 -26 -82 -27 -81 -29 -79 c 0
 -31 -77 -32 -76 -32 -74 c 0
 -32 -73 -30 -72 -27 -71 c 0
 -24 -71 -22 -71 -21 -71 c 0
 -14 -71 -9 -73 -5 -77 c 0
 -1 -81 1 -86 1 -93 c 0
 1 -97 0 -100 -2 -103 c 0
 -3 -105 -6 -108 -8 -110 c 0
 -9 -112 -11 -113 -14 -114 c 0
 -16 -115 -18 -116 -20 -117 c 0
 -24 -119 -29 -120 -35 -120 c 0
 -42 -120 -47 -118 -52 -115 c 0
 -59 -111 -66 -105 -70 -97 c 0
 -75 -88 -78 -80 -78 -71 c 0
 -78 -66 -77 -60 -74 -55 c 0
 -73 -51 -71 -48 -70 -46 c 0
 -68 -43 -66 -41 -64 -39 c 0
 -56 -30 -47 -23 -35 -19 c 0
 -23 -14 -11 -12 0 -11 c 0
 1 -11 1 -11 4 -11 c 0
 6 -11 9 -11 11 -11 c 0
 14 -11 16 -11 18 -11 c 0
 22 -11 22 -11 23 -11 c 0
 36 -10 49 -7 62 -3 c 0
 75 2 87 8 97 17 c 0
 101 20 105 24 109 28 c 0
 115 34 115 34 120 41 c 0
 124 46 128 51 132 56 c 0
 135 61 139 66 142 72 c 0
 142 73 143 74 144 76 c 0
 145 78 145 78 147 80 c 0
 148 82 148 83 149 85 c 0
 150 86 150 86 150 87 c 1
 181 151 l 2
 181 152 182 153 184 156 c 0
 185 159 187 161 187 161 c 0
 200 181 214 198 231 213 c 0
 248 228 267 241 288 250 c 0
 289 251 290 251 292 252 c 0
 294 253 294 253 297 254 c 0
 299 255 301 256 303 257 c 0
 304 258 306 258 307 258 c 0
 314 261 322 263 330 264 c 0
 337 265 345 265 353 265 c 0
 373 265 392 262 409 256 c 2
 410 256 411 255 412 255 c 0
 413 254 l 1
 413 254 411 253 408 252 c 0
 405 252 403 251 402 250 c 1
 402 250 401 250 400 250 c 0
 398 249 398 249 397 249 c 1
 394 247 394 247 390 245 c 0
 387 243 385 242 382 241 c 0
 375 236 370 230 366 223 c 0
 362 216 360 208 360 199 c 0
 360 189 363 179 368 171 c 0
 374 164 382 157 392 153 c 0
 395 152 398 151 402 150 c 0
 405 150 409 149 412 149 c 2
 420 149 l 2
 421 149 422 150 423 150 c 0
 424 150 425 150 426 151 c 0
 430 152 434 154 437 155 c 0
 440 157 443 159 447 162 c 1
 447 161 l 2
 447 161 446 160 445 159 c 0
 444 156 444 156 443 154 c 0
 440 149 437 144 433 140 c 0
 429 135 424 131 418 129 c 2
 418 128 417 128 416 128 c 0
 415 128 414 128 411 128 c 0
 409 128 407 128 406 128 c 1
 405 127 404 127 403 126 c 0
 402 125 402 125 401 124 c 0
 400 123 400 122 400 121 c 0
 400 119 400 119 400 118 c 0
 400 113 403 110 408 108 c 1
 412 108 l 2
 421 108 428 110 435 115 c 0
 442 119 448 124 453 131 c 0
 458 138 462 145 465 153 c 0
 469 161 471 169 472 176 c 0
 473 181 474 186 474 191 c 0
 474 195 474 200 474 205 c 1
 479 199 483 191 487 184 c 0
 492 176 494 168 494 159 c 0
 494 154 493 149 491 145 c 2
 491 144 491 143 490 141 c 0
 489 139 489 138 489 138 c 2
 489 135 l 2
 489 129 492 125 499 125 c 0
 503 125 506 127 507 131 c 0
 509 134 510 137 512 141 c 0
 512 144 513 147 513 150 c 0
 514 152 514 156 514 159 c 0
 514 168 512 176 509 184 c 0
 506 192 502 200 497 208 c 0
 495 212 495 212 492 216 c 0
 490 219 488 222 485 225 c 1
 489 222 494 220 498 216 c 0
 502 213 506 209 508 205 c 2
 509 204 509 203 509 202 c 0
 510 201 510 200 510 199 c 1
 510 198 510 197 510 195 c 0
 511 192 511 191 511 190 c 1
 511 188 513 186 514 185 c 0
 516 183 519 182 521 182 c 0
 524 182 527 183 529 186 c 0
 530 188 531 191 531 194 c 0
 531 204 528 212 523 219 c 0
 518 227 511 233 503 238 c 0
 495 243 487 247 477 250 c 0
 468 253 460 255 452 257 c 1
 450 257 449 258 448 258 c 0
 447 259 446 259 444 259 c 1
 431 270 417 277 401 280 c 0
 385 284 368 285 352 285 c 0
 345 285 338 285 331 285 c 0
 324 284 317 283 310 281 c 0
 301 278 293 275 286 272 c 0
 278 268 270 265 263 261 c 0
 241 249 222 234 205 217 c 0
 188 199 173 180 161 158 c 2
 161 158 160 156 158 153 c 0
 157 150 156 148 156 147 c 2
 155 146 154 144 153 141 c 0
 151 138 150 135 148 131 c 0
 147 128 145 124 144 121 c 0
 143 118 142 116 141 115 c 0
 135 103 129 91 122 79 c 0
 115 68 107 57 98 46 c 0
 91 38 83 32 76 27 c 0
 69 22 60 18 49 15 c 0
 44 13 39 12 34 11 c 0
 29 10 24 10 19 9 c 0
 12 9 5 9 -1 9 c 0
 -8 9 -14 8 -21 7 c 0
 -25 6 -28 5 -32 4 c 0
 -36 3 -39 2 -43 0 c 0
 -50 -3 -58 -7 -64 -11 c 0
 -71 -16 -77 -22 -82 -28 c 0
 -86 -34 -90 -40 -93 -48 c 0
 -96 -55 -98 -63 -98 -71 c 0
381 199 m 2
 381 201 381 201 381 204 c 256
 381 206 381 208 382 209 c 2
 382 209 383 210 383 211 c 0
 384 213 384 213 384 214 c 2
 385 215 l 2
 385 215 385 215 386 216 c 0
 391 221 396 225 402 228 c 0
 407 231 414 233 421 234 c 0
 424 235 426 235 429 236 c 0
 431 236 434 236 436 236 c 0
 437 236 438 235 440 233 c 0
 441 230 443 227 444 223 c 0
 444 220 445 217 445 213 c 0
 445 209 445 206 444 203 c 0
 443 199 442 196 441 192 c 0
 438 185 435 180 431 176 c 0
 427 172 420 170 412 170 c 0
 407 170 402 171 397 173 c 0
 392 175 388 179 385 183 c 0
 384 185 383 186 382 188 c 0
 381 190 381 192 381 193 c 2
 381 199 l 2
EndSplineSet
EndChar

StartChar: uFF395
Encoding: 1045397 1045397 181
Width: 16
VWidth: 444
Flags: HW
LayerCount: 2
Fore
SplineSet
-10 0 m 0
 -10 -5 -9 -8 -6 -9 c 0
 -3 -10 1 -11 6 -11 c 0
 18 -11 29 -8 39 -2 c 0
 49 4 58 12 66 20 c 0
 68 22 69 24 72 26 c 0
 74 29 75 31 76 32 c 2
 118 92 l 2
 135 117 160 129 190 129 c 0
 198 129 206 128 214 126 c 0
 222 124 228 119 233 113 c 0
 234 111 235 109 235 108 c 0
 236 106 236 104 236 102 c 0
 236 100 236 98 236 96 c 0
 236 95 235 93 234 92 c 1
 234 91 233 91 232 89 c 0
 230 88 230 88 229 87 c 0
 227 85 225 84 223 84 c 0
 222 84 222 85 221 86 c 0
 221 87 220 88 220 89 c 0
 219 90 218 91 216 92 c 0
 215 93 213 94 211 94 c 0
 208 94 206 93 204 91 c 0
 202 89 201 87 201 84 c 0
 201 80 203 76 206 71 c 0
 210 67 213 64 218 64 c 1
 222 64 l 1
 227 64 l 1
 228 64 l 2
 229 64 229 64 230 64 c 2
 238 67 244 71 249 78 c 0
 254 85 257 93 257 101 c 0
 257 107 255 113 253 118 c 0
 251 123 248 127 244 131 c 0
 240 135 235 139 230 141 c 0
 225 144 219 146 214 147 c 0
 210 148 206 149 202 149 c 0
 199 150 195 150 190 150 c 0
 179 150 168 148 157 145 c 0
 147 142 137 137 128 131 c 0
 127 130 126 129 125 128 c 0
 124 128 123 127 122 127 c 2
 110 115 l 2
 110 114 110 114 109 113 c 0
 108 112 107 111 107 111 c 2
 106 109 l 1
 106 111 l 2
 106 111 106 112 107 115 c 0
 108 118 109 121 110 125 c 0
 112 131 112 131 114 138 c 0
 117 144 117 144 118 148 c 0
 122 160 127 171 133 183 c 0
 136 189 140 196 144 204 c 0
 149 211 154 216 160 221 c 0
 165 225 171 228 178 230 c 0
 184 233 191 234 197 234 c 0
 199 234 202 233 205 233 c 0
 208 232 211 231 213 230 c 1
 213 229 214 228 216 226 c 0
 218 224 218 224 219 223 c 0
 221 221 222 219 222 216 c 2
 222 214 l 2
 222 213 221 213 221 213 c 1
 220 213 218 212 217 212 c 0
 215 211 214 210 213 209 c 0
 213 208 212 208 212 207 c 0
 212 206 211 206 211 205 c 2
 211 203 l 2
 211 198 214 194 219 192 c 0
 220 191 221 191 222 191 c 0
 225 191 228 192 230 194 c 0
 233 195 235 197 237 200 c 0
 239 202 241 205 242 207 c 0
 242 210 243 213 243 216 c 0
 243 225 239 234 232 241 c 0
 225 248 217 252 208 253 c 0
 206 254 204 254 202 254 c 0
 201 254 201 254 198 254 c 0
 195 254 192 254 189 254 c 0
 186 253 184 253 181 252 c 1
 181 252 179 252 177 251 c 0
 175 251 174 251 174 251 c 2
 173 251 l 1
 185 260 199 268 215 273 c 0
 230 278 246 281 262 281 c 0
 275 281 288 279 301 274 c 0
 306 272 311 270 315 267 c 0
 320 265 324 261 328 258 c 0
 329 258 329 257 330 256 c 0
 331 256 332 255 332 255 c 0
 340 247 346 239 352 231 c 0
 357 222 359 213 359 202 c 0
 359 199 359 199 359 196 c 256
 359 193 359 191 358 189 c 0
 357 184 355 180 352 176 c 0
 350 172 346 168 343 165 c 0
 342 164 341 164 340 163 c 0
 338 163 337 162 336 162 c 1
 337 164 337 166 337 168 c 0
 337 172 336 175 332 176 c 0
 329 178 326 179 322 179 c 0
 318 179 314 177 311 175 c 0
 308 172 306 169 306 164 c 0
 306 159 309 154 313 149 c 0
 317 145 322 142 328 142 c 2
 334 142 l 1
 340 142 l 1
 342 142 344 143 346 144 c 0
 348 144 350 145 351 146 c 0
 352 147 353 147 354 148 c 0
 356 149 356 149 357 150 c 2
 366 159 l 2
 369 162 371 166 373 171 c 0
 376 178 376 178 378 184 c 0
 379 187 379 190 380 192 c 0
 380 195 380 198 380 201 c 2
 380 210 l 2
 380 211 380 211 380 212 c 0
 379 213 379 214 379 214 c 2
 377 226 373 236 367 245 c 0
 361 254 354 262 346 270 c 0
 334 281 322 289 307 294 c 0
 293 298 278 301 262 301 c 0
 242 301 221 297 202 290 c 0
 182 283 165 272 150 258 c 0
 145 253 141 249 137 243 c 0
 131 236 131 236 125 228 c 0
 117 217 111 206 105 195 c 0
 99 183 95 171 90 159 c 0
 90 158 90 157 89 155 c 0
 88 152 88 152 87 150 c 0
 86 147 86 147 86 144 c 0
 85 142 85 140 84 140 c 0
 84 139 83 137 83 134 c 0
 82 132 81 129 80 125 c 0
 80 122 79 119 78 116 c 0
 77 113 77 112 77 111 c 0
 75 104 72 98 70 92 c 0
 67 84 67 84 63 74 c 0
 61 69 58 63 54 56 c 0
 51 50 47 44 43 39 c 0
 39 33 34 28 29 24 c 0
 24 19 19 16 13 13 c 0
 9 11 6 11 4 10 c 0
 3 10 2 10 0 10 c 0
 -2 10 -3 10 -3 10 c 0
 -5 9 -6 9 -6 8 c 0
 -7 7 -8 6 -9 5 c 0
 -10 4 -10 4 -10 3 c 256
 -10 2 -10 2 -10 0 c 0
172 249 m 0
 172 249 171 249 171 250 c 0
 172 251 l 0
 173 251 173 250 173 250 c 0
 173 249 173 249 172 249 c 0
105 108 m 0
 106 108 l 0
 106 109 105 109 105 109 c 256
 105 109 105 109 105 108 c 0
EndSplineSet
EndChar

StartChar: uFF396
Encoding: 1045398 1045398 182
Width: 364
VWidth: 444
Flags: HW
LayerCount: 2
Fore
SplineSet
450 -2 m 1
 448 -2 l 1
 439 0 431 2 422 4 c 0
 414 5 405 6 397 7 c 0
 396 7 395 7 394 7 c 0
 392 8 390 8 388 8 c 0
 384 8 384 8 381 8 c 0
 379 9 378 9 376 9 c 2
 375 9 373 9 370 9 c 0
 367 9 365 10 365 10 c 2
 0 10 l 2
 0 10 -1 9 -2 9 c 0
 -2 8 -3 8 -4 8 c 1
 -6 6 -7 3 -7 -1 c 0
 -7 -6 -5 -9 0 -10 c 0
 1 -10 2 -10 4 -10 c 0
 5 -10 7 -11 9 -11 c 0
 11 -11 13 -11 15 -11 c 0
 17 -11 18 -11 19 -11 c 0
 32 -13 45 -16 56 -21 c 0
 68 -27 79 -33 90 -41 c 0
 91 -42 94 -44 97 -46 c 0
 100 -48 102 -50 102 -50 c 2
 168 -110 l 2
 169 -111 171 -112 174 -114 c 0
 178 -118 178 -118 180 -119 c 0
 193 -129 207 -136 221 -140 c 0
 236 -144 251 -146 268 -146 c 0
 282 -146 296 -144 309 -140 c 0
 323 -136 335 -130 348 -122 c 0
 366 -111 383 -98 400 -84 c 0
 409 -75 418 -66 427 -57 c 0
 440 -44 440 -44 452 -30 c 0
 453 -29 453 -29 455 -27 c 2
 456 -26 l 1
 458 -26 l 2
 458 -26 460 -27 464 -28 c 0
 468 -30 471 -31 474 -31 c 0
 489 -37 503 -44 517 -52 c 0
 531 -61 543 -71 553 -84 c 0
 558 -89 562 -95 566 -100 c 0
 569 -106 572 -112 576 -119 c 0
 580 -129 583 -140 583 -152 c 0
 583 -161 581 -170 579 -178 c 0
 576 -186 573 -194 569 -202 c 0
 566 -207 562 -212 558 -217 c 0
 554 -221 550 -225 546 -230 c 0
 545 -230 545 -230 544 -231 c 0
 542 -232 541 -233 541 -233 c 0
 535 -238 528 -241 521 -244 c 0
 514 -246 506 -247 499 -247 c 0
 491 -247 484 -246 478 -244 c 0
 469 -242 463 -238 459 -231 c 0
 455 -225 452 -218 452 -209 c 0
 452 -203 453 -198 455 -193 c 0
 457 -189 460 -185 464 -180 c 2
 472 -172 l 2
 473 -171 475 -170 477 -169 c 0
 479 -169 481 -168 482 -168 c 0
 483 -167 485 -167 488 -167 c 0
 490 -167 492 -166 492 -166 c 1
 494 -166 l 2
 498 -166 501 -168 504 -171 c 1
 500 -171 497 -171 494 -172 c 0
 491 -174 489 -177 489 -181 c 0
 489 -186 491 -189 495 -190 c 0
 498 -191 502 -192 506 -192 c 2
 511 -192 l 1
 514 -191 516 -190 517 -189 c 1
 523 -186 526 -181 526 -174 c 0
 526 -165 522 -158 516 -153 c 0
 509 -148 501 -146 493 -146 c 0
 474 -146 458 -154 446 -169 c 0
 437 -181 432 -195 432 -210 c 0
 432 -220 435 -230 440 -240 c 0
 445 -250 454 -257 465 -262 c 0
 476 -266 487 -268 498 -268 c 2
 507 -268 l 2
 511 -267 515 -267 519 -266 c 0
 523 -264 527 -263 532 -262 c 0
 536 -260 540 -258 544 -256 c 0
 549 -253 553 -250 556 -247 c 0
 567 -240 576 -230 583 -218 c 0
 591 -207 596 -194 599 -182 c 0
 601 -177 602 -172 602 -168 c 0
 602 -163 603 -158 603 -153 c 2
 603 -141 l 2
 602 -136 601 -131 600 -125 c 0
 598 -119 596 -114 594 -110 c 0
 591 -104 591 -104 589 -99 c 0
 587 -96 585 -93 583 -90 c 0
 579 -82 574 -76 568 -70 c 0
 560 -62 560 -62 552 -53 c 0
 551 -52 550 -51 548 -50 c 0
 546 -49 545 -47 544 -47 c 0
 533 -38 522 -31 510 -25 c 0
 498 -19 485 -14 472 -9 c 1
 472 -9 473 -8 474 -7 c 0
 475 -6 475 -5 476 -5 c 1
 492 11 l 2
 493 13 495 15 499 18 c 0
 505 24 505 24 512 30 c 0
 519 36 519 36 525 41 c 0
 531 47 531 47 534 49 c 0
 542 56 550 62 559 68 c 0
 572 77 572 77 585 86 c 0
 592 90 592 90 600 94 c 0
 605 97 611 100 616 102 c 0
 624 105 632 108 640 110 c 0
 648 112 657 113 665 115 c 0
 671 116 676 116 681 116 c 0
 686 117 692 117 697 117 c 2
 709 117 l 2
 710 117 712 117 715 116 c 0
 718 116 720 116 721 116 c 1
 722 115 723 115 725 115 c 0
 727 115 728 114 728 114 c 1
 729 114 730 114 732 114 c 0
 734 113 735 113 736 113 c 0
 739 112 739 112 742 110 c 0
 745 110 747 108 749 107 c 0
 751 106 753 104 755 102 c 0
 756 101 757 99 757 96 c 0
 757 94 757 93 756 93 c 0
 756 92 755 91 755 90 c 0
 754 88 754 87 754 86 c 0
 753 84 753 83 753 82 c 0
 753 79 754 76 756 74 c 0
 758 72 760 71 763 71 c 0
 767 71 769 72 771 74 c 0
 772 76 773 79 775 82 c 0
 776 84 776 87 777 89 c 0
 777 91 778 94 778 96 c 0
 778 105 775 113 769 118 c 0
 763 124 755 128 747 131 c 0
 738 133 729 135 720 136 c 0
 710 137 703 138 696 138 c 0
 681 138 665 136 649 133 c 0
 634 131 619 126 604 119 c 0
 603 119 600 117 596 115 c 0
 593 113 590 112 589 111 c 0
 588 111 586 110 583 108 c 0
 579 106 579 106 574 103 c 0
 570 100 570 100 566 98 c 0
 563 96 561 95 560 94 c 0
 559 94 558 93 557 92 c 0
 554 90 554 90 552 89 c 0
 549 87 549 87 547 85 c 0
 545 84 544 83 544 83 c 0
 542 82 542 82 538 79 c 0
 535 76 535 76 531 73 c 0
 528 70 528 70 524 68 c 0
 522 66 521 65 520 65 c 0
 519 63 516 61 512 57 c 0
 506 52 506 52 499 46 c 0
 492 39 492 39 486 34 c 0
 482 30 480 28 478 26 c 2
 477 26 475 24 472 21 c 0
 468 17 468 17 464 12 c 0
 459 8 459 8 455 4 c 0
 452 1 451 -1 450 -2 c 1
112 -31 m 1
 116 -26 120 -19 122 -11 c 1
 81 -11 l 1
 81 -11 83 -13 86 -14 c 0
 89 -15 91 -17 92 -17 c 0
 92 -18 93 -19 95 -20 c 0
 98 -22 98 -22 101 -24 c 0
 104 -26 104 -26 107 -28 c 0
 110 -30 110 -30 112 -31 c 1
128 -45 m 1
 132 -40 135 -34 138 -29 c 0
 140 -23 142 -17 144 -11 c 1
 164 -11 l 256
 164 -12 164 -12 164 -12 c 1
 165 -14 165 -16 166 -18 c 0
 166 -19 166 -21 167 -24 c 0
 167 -24 167 -25 167 -26 c 0
 167 -28 167 -28 167 -29 c 2
 167 -36 l 2
 167 -42 167 -48 165 -53 c 0
 164 -58 161 -62 156 -66 c 1
 155 -67 l 2
 155 -67 154 -67 154 -68 c 1
 153 -68 l 1
 152 -68 l 2
 152 -67 152 -67 152 -67 c 1
 151 -66 150 -65 148 -63 c 0
 144 -60 144 -60 141 -57 c 0
 137 -54 137 -54 134 -51 c 0
 132 -49 131 -48 130 -47 c 2
 128 -45 l 1
188 -36 m 1
 188 -26 l 2
 188 -25 187 -24 187 -23 c 0
 187 -22 187 -21 187 -20 c 1
 187 -20 187 -18 186 -16 c 0
 186 -14 186 -13 186 -13 c 256
 186 -12 186 -12 186 -12 c 2
 185 -11 l 1
 209 -11 l 2
 210 -12 210 -12 210 -12 c 0
 211 -13 211 -13 211 -14 c 0
 218 -23 221 -33 221 -44 c 0
 221 -54 218 -64 213 -74 c 0
 208 -83 201 -91 193 -97 c 0
 193 -97 192 -98 192 -99 c 0
 191 -99 190 -100 189 -100 c 0
 188 -100 188 -99 188 -98 c 1
 185 -97 185 -97 180 -92 c 0
 176 -90 174 -88 174 -87 c 2
 169 -82 l 1
 169 -82 171 -81 173 -79 c 0
 175 -77 176 -75 177 -75 c 2
 178 -74 l 2
 178 -73 178 -73 179 -72 c 2
 179 -71 180 -71 180 -70 c 1
 182 -67 184 -63 185 -59 c 0
 186 -55 187 -51 188 -47 c 1
 188 -36 l 1
241 -43 m 0
 241 -37 240 -32 239 -26 c 0
 238 -21 236 -16 234 -11 c 1
 258 -11 l 1
 259 -11 l 1
 259 -12 259 -12 260 -13 c 1
 260 -14 260 -14 261 -15 c 0
 262 -16 262 -17 262 -17 c 0
 266 -25 270 -33 272 -42 c 0
 275 -51 276 -60 276 -69 c 0
 276 -79 274 -89 271 -99 c 0
 268 -108 263 -117 256 -125 c 1
 253 -125 l 2
 247 -125 241 -124 235 -123 c 0
 228 -121 222 -119 217 -117 c 0
 215 -116 215 -116 212 -115 c 0
 210 -114 209 -113 209 -113 c 1
 208 -112 l 1
 218 -102 226 -92 232 -82 c 0
 238 -71 241 -58 241 -43 c 0
282 -11 m 1
 307 -11 l 2
 307 -11 309 -12 310 -15 c 0
 313 -18 313 -18 315 -21 c 0
 320 -28 325 -36 328 -44 c 0
 331 -53 332 -61 332 -71 c 0
 332 -78 331 -86 330 -94 c 0
 329 -97 329 -100 328 -104 c 0
 327 -108 327 -110 326 -110 c 2
 326 -111 l 1
 325 -111 324 -112 321 -113 c 0
 319 -115 317 -116 315 -116 c 0
 312 -118 308 -119 304 -120 c 0
 301 -121 297 -122 294 -123 c 0
 292 -124 290 -124 288 -125 c 0
 286 -125 284 -125 282 -125 c 2
 281 -125 l 1
 286 -116 290 -107 292 -98 c 0
 295 -89 296 -79 296 -69 c 0
 296 -49 291 -30 282 -11 c 1
352 -70 m 2
 352 -59 351 -49 348 -39 c 0
 344 -30 340 -20 333 -11 c 1
 360 -11 l 2
 360 -11 361 -11 362 -11 c 0
 363 -11 364 -11 365 -11 c 1
 366 -12 l 2
 366 -12 366 -12 367 -13 c 0
 367 -13 367 -13 368 -14 c 0
 369 -14 369 -15 369 -15 c 1
 374 -19 378 -24 381 -30 c 0
 384 -37 385 -43 385 -49 c 0
 385 -54 384 -59 383 -62 c 0
 382 -66 381 -70 378 -74 c 1
 378 -75 l 1
 378 -76 377 -76 376 -77 c 0
 376 -77 375 -78 374 -78 c 0
 368 -83 368 -83 363 -87 c 0
 359 -90 355 -93 351 -95 c 2
 351 -94 351 -93 351 -90 c 0
 351 -88 352 -86 352 -86 c 1
 352 -85 352 -83 352 -82 c 0
 352 -80 352 -79 352 -78 c 2
 352 -70 l 2
396 -14 m 1
 399 -14 l 1
 399 -14 401 -14 403 -14 c 0
 405 -14 407 -15 408 -15 c 1
 408 -15 409 -15 412 -16 c 0
 414 -16 416 -16 418 -17 c 0
 421 -17 423 -18 425 -18 c 0
 428 -18 429 -19 431 -19 c 1
 431 -19 432 -19 432 -20 c 2
 433 -20 l 1
 433 -21 432 -21 432 -22 c 0
 431 -23 430 -24 429 -24 c 0
 428 -26 428 -26 425 -29 c 0
 421 -33 421 -33 418 -37 c 0
 414 -41 414 -41 410 -44 c 0
 407 -48 407 -48 406 -49 c 1
 405 -43 404 -37 403 -31 c 0
 401 -26 399 -20 396 -14 c 1
EndSplineSet
EndChar

StartChar: uFF397
Encoding: 1045399 1045399 183
Width: 367
VWidth: 444
Flags: HW
LayerCount: 2
Fore
SplineSet
462 -17 m 2
 461 -17 461 -17 461 -17 c 0
 460 -17 l 1
 459 -16 458 -16 456 -15 c 0
 455 -14 453 -14 450 -13 c 0
 448 -12 446 -11 444 -11 c 0
 442 -10 441 -10 441 -10 c 2
 430 -5 418 -2 406 0 c 0
 395 3 383 5 371 6 c 1
 367 8 l 1
 329 10 l 1
 0 10 l 2
 0 10 -2 10 -4 9 c 0
 -7 8 -9 8 -11 7 c 0
 -17 5 -23 2 -29 -2 c 0
 -34 -6 -39 -10 -44 -15 c 0
 -47 -18 -49 -22 -52 -28 c 0
 -54 -33 -55 -38 -56 -42 c 2
 -56 -50 l 1
 -56 -57 l 2
 -56 -60 -55 -63 -54 -65 c 0
 -53 -70 -53 -70 -52 -74 c 0
 -47 -84 -41 -93 -32 -100 c 0
 -22 -108 -12 -111 0 -111 c 0
 5 -111 10 -111 16 -109 c 0
 21 -108 26 -105 31 -102 c 0
 35 -99 39 -95 42 -91 c 0
 44 -86 46 -81 46 -75 c 0
 46 -69 44 -63 42 -58 c 0
 39 -53 35 -49 31 -44 c 0
 25 -39 18 -37 10 -37 c 0
 4 -37 -1 -39 -6 -43 c 0
 -12 -47 -14 -53 -14 -58 c 0
 -14 -65 -11 -69 -4 -69 c 0
 -2 -69 0 -68 2 -67 c 0
 3 -66 4 -64 5 -63 c 0
 6 -61 6 -61 7 -59 c 0
 8 -58 9 -58 11 -58 c 0
 14 -58 18 -60 21 -64 c 0
 24 -68 26 -72 26 -75 c 0
 26 -78 25 -80 23 -82 c 0
 21 -84 19 -86 16 -87 c 0
 13 -88 10 -89 7 -90 c 0
 4 -91 1 -91 -1 -91 c 0
 -1 -91 -2 -91 -4 -91 c 0
 -5 -91 -5 -90 -6 -90 c 2
 -7 -90 l 2
 -8 -90 l 0
 -17 -88 -23 -82 -28 -74 c 0
 -33 -66 -36 -58 -36 -50 c 0
 -36 -43 -34 -38 -32 -34 c 0
 -29 -30 -25 -26 -20 -21 c 0
 -17 -18 -13 -16 -9 -14 c 0
 -5 -12 -1 -11 4 -10 c 1
 12 -10 l 2
 19 -10 26 -11 33 -13 c 0
 40 -15 46 -17 53 -21 c 0
 64 -26 75 -32 85 -39 c 0
 95 -46 105 -53 114 -61 c 0
 115 -62 116 -63 119 -65 c 0
 122 -68 123 -69 124 -70 c 0
 125 -71 125 -71 129 -75 c 0
 133 -78 133 -78 137 -83 c 0
 142 -87 142 -87 146 -91 c 0
 150 -94 150 -94 151 -95 c 0
 170 -112 190 -126 212 -137 c 0
 234 -148 257 -154 283 -154 c 0
 304 -154 325 -150 345 -142 c 0
 365 -133 383 -122 400 -109 c 0
 400 -109 401 -108 402 -107 c 0
 404 -105 404 -105 407 -103 c 0
 409 -101 409 -101 412 -99 c 0
 413 -98 414 -97 415 -97 c 0
 416 -96 417 -95 419 -93 c 0
 421 -91 422 -90 423 -90 c 1
 467 -42 l 1
 467 -42 468 -43 470 -44 c 0
 472 -45 474 -46 476 -47 c 0
 486 -53 496 -60 505 -67 c 0
 514 -75 522 -83 530 -92 c 0
 540 -105 549 -118 555 -132 c 0
 561 -145 564 -161 564 -177 c 0
 564 -185 564 -192 562 -200 c 0
 561 -208 559 -215 556 -222 c 0
 555 -226 553 -229 552 -233 c 0
 550 -237 548 -241 547 -244 c 0
 543 -250 539 -255 533 -260 c 0
 528 -265 522 -268 516 -272 c 0
 509 -275 503 -277 496 -279 c 0
 488 -280 481 -281 475 -281 c 0
 462 -281 450 -279 438 -274 c 0
 427 -270 417 -262 409 -253 c 0
 404 -247 401 -241 398 -234 c 0
 396 -228 395 -221 395 -214 c 256
 395 -207 396 -201 398 -195 c 0
 400 -189 403 -183 407 -178 c 0
 411 -174 416 -170 421 -167 c 0
 427 -164 433 -163 440 -163 c 0
 443 -163 447 -163 450 -164 c 0
 453 -164 456 -166 459 -167 c 0
 462 -169 464 -171 466 -173 c 0
 468 -176 468 -178 468 -182 c 0
 468 -184 468 -185 468 -186 c 0
 468 -188 468 -188 467 -190 c 1
 465 -188 464 -186 462 -185 c 0
 460 -185 458 -184 456 -184 c 0
 452 -184 449 -185 446 -188 c 0
 444 -190 443 -193 443 -197 c 2
 443 -200 l 1
 443 -201 444 -202 444 -203 c 0
 445 -204 446 -205 446 -206 c 0
 447 -207 449 -210 452 -212 c 0
 455 -215 458 -216 460 -216 c 2
 464 -216 l 2
 465 -216 467 -216 468 -216 c 0
 468 -217 469 -216 471 -216 c 0
 477 -213 482 -208 484 -202 c 0
 487 -195 488 -189 488 -182 c 2
 488 -176 l 2
 488 -175 488 -173 488 -172 c 0
 487 -170 487 -169 486 -168 c 0
 483 -162 479 -157 474 -153 c 0
 470 -149 464 -146 458 -145 c 0
 457 -144 456 -144 455 -144 c 0
 454 -144 453 -144 453 -143 c 1
 452 -143 452 -143 451 -143 c 2
 449 -143 l 1
 432 -143 l 2
 431 -143 431 -143 430 -143 c 0
 429 -143 429 -143 428 -143 c 1
 419 -145 412 -148 405 -153 c 0
 399 -157 393 -162 389 -169 c 0
 384 -175 381 -182 378 -190 c 0
 376 -197 375 -205 375 -214 c 0
 375 -225 377 -235 381 -245 c 0
 385 -255 391 -264 398 -271 c 0
 406 -279 414 -285 424 -290 c 0
 433 -295 444 -298 455 -300 c 0
 456 -300 458 -300 460 -301 c 0
 462 -301 464 -301 464 -301 c 2
 474 -301 l 1
 484 -301 l 2
 490 -301 495 -300 500 -299 c 0
 505 -297 511 -296 516 -294 c 0
 531 -289 543 -281 552 -270 c 0
 562 -259 569 -247 574 -232 c 0
 577 -225 579 -218 581 -210 c 0
 583 -203 584 -196 584 -189 c 2
 584 -178 l 1
 584 -165 l 2
 584 -164 584 -164 584 -162 c 0
 584 -161 584 -160 584 -159 c 0
 580 -137 572 -116 559 -97 c 0
 546 -78 531 -61 513 -47 c 0
 509 -44 506 -41 502 -39 c 0
 499 -37 495 -34 491 -32 c 0
 490 -32 489 -31 486 -30 c 0
 484 -28 483 -28 483 -27 c 2
 482 -26 l 1
 485 -23 l 1
 485 -22 486 -21 489 -19 c 0
 491 -17 493 -14 496 -12 c 0
 499 -9 501 -6 504 -3 c 0
 507 -1 509 1 511 3 c 0
 515 7 520 11 525 15 c 0
 533 22 533 22 540 27 c 0
 554 37 569 46 586 52 c 0
 602 59 619 64 636 67 c 0
 637 67 638 67 641 68 c 0
 643 68 644 68 645 68 c 0
 646 68 649 68 652 69 c 0
 655 69 657 69 660 69 c 0
 663 69 666 70 669 70 c 0
 671 70 673 70 673 70 c 0
 674 70 674 70 676 70 c 0
 679 70 681 70 683 70 c 0
 685 70 688 70 690 70 c 0
 693 70 693 70 696 70 c 0
 697 70 697 70 700 70 c 256
 702 70 704 70 707 70 c 0
 709 70 711 70 713 70 c 256
 716 70 716 70 718 70 c 0
 727 69 737 68 746 67 c 0
 755 66 765 64 774 61 c 0
 776 60 779 60 782 58 c 0
 786 57 786 57 790 55 c 0
 791 55 791 55 795 53 c 0
 799 51 799 51 800 50 c 0
 801 50 801 50 802 50 c 0
 802 50 803 50 804 50 c 0
 807 50 809 51 811 53 c 0
 813 54 814 57 814 60 c 0
 814 62 813 65 812 66 c 2
 811 67 811 67 810 68 c 0
 810 68 809 68 809 69 c 1
 792 78 774 84 754 87 c 0
 735 89 716 91 697 91 c 2
 687 91 l 2
 676 91 665 90 654 90 c 0
 644 89 633 88 623 86 c 0
 614 83 614 83 606 81 c 0
 600 80 594 78 588 76 c 0
 567 68 547 58 529 44 c 0
 511 31 494 16 478 0 c 0
 478 0 477 -2 475 -3 c 0
 473 -6 473 -6 470 -8 c 0
 468 -11 468 -11 465 -14 c 0
 464 -15 463 -17 462 -17 c 2
131 -49 m 1
 123 -41 114 -34 105 -28 c 0
 97 -22 88 -16 78 -10 c 1
 136 -10 l 1
 136 -11 l 2
 137 -12 137 -12 137 -12 c 1
 137 -13 137 -13 138 -13 c 2
 138 -14 l 2
 138 -15 138 -16 139 -17 c 0
 139 -18 139 -19 139 -19 c 0
 139 -20 139 -20 139 -21 c 0
 139 -22 140 -22 140 -22 c 2
 140 -26 l 2
 140 -35 137 -42 132 -48 c 2
 132 -49 l 1
 131 -49 l 1
160 -26 m 0
 160 -24 160 -24 160 -22 c 256
 160 -20 160 -19 160 -19 c 1
 160 -18 159 -17 159 -15 c 0
 159 -13 159 -12 159 -12 c 2
 159 -10 l 1
 175 -10 l 1
 175 -10 175 -11 176 -12 c 0
 176 -13 177 -14 177 -15 c 0
 179 -20 181 -25 182 -30 c 0
 183 -36 184 -41 184 -46 c 0
 184 -53 183 -60 180 -66 c 0
 177 -72 173 -77 169 -83 c 1
 168 -83 168 -83 167 -82 c 0
 166 -81 165 -80 164 -80 c 0
 164 -79 163 -78 161 -76 c 0
 159 -74 157 -73 157 -73 c 0
 155 -70 155 -70 151 -67 c 2
 147 -63 l 1
 153 -56 157 -47 159 -37 c 1
 159 -37 160 -36 160 -35 c 256
 160 -34 160 -34 160 -34 c 1
 160 -34 160 -33 160 -30 c 256
 160 -27 160 -27 160 -26 c 0
204 -47 m 2
 204 -42 204 -37 204 -34 c 0
 203 -30 202 -25 201 -21 c 1
 200 -20 200 -18 199 -15 c 0
 198 -12 198 -11 197 -10 c 1
 223 -10 l 1
 224 -13 225 -15 226 -17 c 0
 228 -21 228 -21 230 -24 c 0
 233 -30 236 -36 238 -41 c 0
 239 -46 240 -53 240 -59 c 0
 240 -66 239 -73 238 -80 c 0
 237 -87 236 -93 233 -99 c 0
 232 -101 231 -103 230 -105 c 0
 229 -107 227 -109 226 -111 c 0
 225 -112 225 -112 222 -114 c 0
 220 -117 220 -117 219 -118 c 1
 213 -115 208 -112 202 -109 c 0
 197 -106 192 -102 187 -98 c 2
 185 -97 l 1
 185 -96 l 1
 188 -92 191 -88 194 -84 c 0
 196 -80 199 -76 200 -71 c 0
 201 -69 202 -66 203 -63 c 0
 204 -60 204 -58 204 -55 c 2
 204 -47 l 2
246 -10 m 1
 270 -10 l 1
 271 -10 l 2
 271 -11 271 -11 271 -11 c 1
 272 -12 l 0
 273 -13 273 -13 273 -14 c 1
 281 -25 287 -36 293 -46 c 0
 298 -57 300 -70 300 -84 c 0
 300 -92 299 -101 297 -109 c 0
 295 -117 292 -125 288 -132 c 1
 288 -133 288 -133 288 -133 c 256
 288 -133 288 -134 287 -134 c 1
 282 -134 l 2
 275 -134 269 -134 263 -132 c 0
 256 -131 250 -130 244 -128 c 0
 243 -128 242 -128 241 -127 c 2
 240 -127 l 1
 240 -126 l 1
 247 -117 253 -106 256 -94 c 0
 259 -83 260 -71 260 -59 c 0
 260 -50 259 -42 257 -34 c 0
 254 -26 251 -18 246 -10 c 1
296 -10 m 1
 320 -10 l 2
 321 -10 321 -10 321 -10 c 1
 321 -11 322 -12 323 -12 c 1
 330 -17 335 -24 338 -32 c 0
 342 -40 345 -48 347 -56 c 0
 347 -57 348 -58 348 -60 c 0
 349 -62 349 -63 349 -63 c 2
 350 -67 350 -70 350 -74 c 0
 351 -77 351 -80 351 -84 c 0
 351 -89 351 -89 351 -93 c 0
 351 -96 350 -99 350 -102 c 1
 349 -103 349 -106 348 -110 c 0
 347 -115 347 -117 346 -118 c 1
 346 -119 345 -119 345 -119 c 0
 344 -119 344 -120 344 -120 c 1
 339 -122 333 -124 328 -126 c 0
 323 -128 318 -129 312 -130 c 1
 312 -129 l 1
 315 -121 317 -114 319 -107 c 0
 320 -99 320 -92 320 -83 c 0
 320 -80 320 -76 320 -72 c 0
 320 -68 320 -65 319 -61 c 0
 316 -51 313 -43 310 -35 c 0
 306 -27 301 -19 296 -10 c 1
372 -83 m 0
 372 -74 370 -64 368 -55 c 0
 365 -46 362 -37 359 -27 c 0
 357 -24 356 -22 355 -19 c 0
 353 -16 353 -16 351 -12 c 2
 353 -12 356 -12 358 -12 c 0
 360 -13 362 -13 363 -15 c 0
 366 -17 369 -20 371 -22 c 0
 373 -24 376 -27 379 -30 c 0
 385 -36 389 -43 390 -51 c 0
 392 -60 393 -68 393 -76 c 2
 393 -81 l 2
 393 -82 393 -83 393 -85 c 0
 393 -86 393 -88 393 -88 c 1
 392 -89 389 -91 386 -94 c 0
 383 -97 380 -98 379 -99 c 2
 379 -99 378 -100 376 -101 c 0
 373 -103 373 -103 372 -104 c 2
 371 -104 l 2
 371 -105 371 -105 370 -105 c 1
 370 -103 l 2
 370 -100 370 -97 371 -93 c 0
 371 -90 372 -87 372 -83 c 0
397 -19 m 1
 398 -19 l 2
 399 -19 l 2
 400 -19 l 2
 402 -20 405 -21 410 -22 c 0
 414 -23 416 -24 417 -24 c 0
 426 -26 435 -29 444 -33 c 2
 445 -33 445 -33 446 -33 c 2
 447 -34 l 1
 446 -35 l 1
 414 -69 l 1
 414 -68 414 -65 414 -62 c 0
 413 -58 413 -56 412 -55 c 0
 412 -48 410 -42 407 -36 c 0
 404 -31 401 -25 397 -19 c 1
EndSplineSet
EndChar

StartChar: uFF398
Encoding: 1045400 1045400 184
Width: 547
VWidth: 444
Flags: HW
LayerCount: 2
Fore
SplineSet
156 82 m 0
 156 74 157 67 160 62 c 0
 163 57 168 51 173 46 c 0
 177 43 183 40 188 37 c 0
 194 35 200 34 206 34 c 0
 211 34 215 35 219 37 c 0
 223 39 227 41 230 45 c 0
 233 48 236 52 238 56 c 0
 240 60 241 65 241 69 c 0
 241 75 239 80 235 85 c 0
 231 89 226 91 220 91 c 0
 217 91 215 91 212 90 c 0
 210 88 208 87 206 84 c 0
 204 82 203 80 203 78 c 0
 202 76 202 73 202 71 c 2
 202 66 l 1
 203 66 203 66 203 65 c 0
 203 65 203 64 204 64 c 0
 205 62 206 61 207 60 c 0
 208 59 209 59 211 59 c 2
 216 59 l 1
 213 56 209 54 205 54 c 0
 200 54 196 56 192 59 c 0
 187 61 184 65 180 68 c 0
 179 70 178 72 177 75 c 0
 176 77 176 80 176 82 c 0
 176 86 177 90 180 94 c 1
 180 95 180 95 180 96 c 2
 181 96 l 2
 182 98 182 98 185 100 c 0
 187 102 188 103 189 104 c 2
 193 107 198 110 203 111 c 0
 208 113 213 114 218 114 c 0
 226 114 232 112 237 110 c 0
 242 107 247 103 252 98 c 0
 256 94 259 88 261 82 c 0
 262 76 263 70 263 64 c 0
 263 53 260 43 254 35 c 0
 249 26 241 20 230 15 c 1
 230 15 229 15 228 14 c 0
 226 14 225 13 225 13 c 1
 224 13 223 13 222 13 c 0
 221 12 221 12 220 12 c 1
 219 11 216 11 213 11 c 0
 210 10 208 10 208 10 c 2
 0 10 l 2
 0 10 -1 10 -2 9 c 0
 -3 9 -3 8 -4 8 c 2
 -5 7 -6 6 -7 4 c 0
 -7 3 -8 2 -8 0 c 0
 -8 -2 -7 -4 -7 -5 c 0
 -6 -6 -5 -7 -4 -9 c 0
 -3 -10 -2 -10 -1 -10 c 2
 467 -10 l 2
 468 -10 471 -10 474 -10 c 0
 478 -9 481 -9 485 -9 c 0
 489 -9 493 -9 496 -8 c 0
 500 -8 502 -8 504 -8 c 2
 515 -8 l 1
 525 -8 l 2
 526 -8 528 -8 531 -9 c 0
 534 -9 538 -9 542 -10 c 0
 547 -10 547 -10 552 -10 c 0
 556 -11 559 -11 560 -11 c 0
 572 -13 584 -14 596 -17 c 0
 608 -20 619 -23 630 -28 c 0
 647 -36 662 -46 676 -58 c 0
 685 -66 693 -75 700 -85 c 0
 706 -94 711 -105 714 -117 c 0
 715 -121 715 -125 716 -128 c 0
 716 -132 716 -136 716 -140 c 2
 716 -150 l 2
 716 -154 715 -158 714 -163 c 0
 713 -167 712 -171 711 -175 c 0
 704 -193 694 -207 680 -218 c 0
 665 -228 649 -234 630 -234 c 0
 617 -234 605 -231 594 -226 c 0
 583 -221 573 -214 564 -205 c 0
 556 -196 551 -186 548 -174 c 1
 548 -174 548 -173 548 -172 c 2
 548 -171 l 1
 548 -165 l 1
 548 -158 l 2
 548 -155 548 -152 549 -149 c 0
 551 -146 552 -143 553 -140 c 0
 555 -137 558 -133 561 -130 c 0
 568 -122 576 -116 583 -113 c 0
 591 -110 600 -108 610 -108 c 2
 618 -108 l 2
 621 -109 623 -109 626 -110 c 0
 628 -110 631 -111 633 -112 c 0
 639 -114 644 -118 648 -122 c 0
 652 -127 654 -133 654 -139 c 0
 654 -145 652 -151 647 -156 c 0
 642 -162 637 -164 631 -164 c 0
 629 -164 627 -164 625 -163 c 0
 623 -162 621 -161 620 -159 c 1
 620 -158 621 -158 622 -158 c 2
 623 -158 l 2
 624 -158 624 -158 624 -158 c 1
 628 -158 l 2
 634 -158 637 -155 637 -149 c 0
 637 -144 636 -141 633 -140 c 0
 630 -138 626 -138 622 -138 c 0
 615 -138 609 -140 605 -144 c 0
 601 -148 599 -153 599 -160 c 2
 599 -164 l 2
 600 -168 603 -172 608 -176 c 0
 613 -180 618 -183 622 -184 c 0
 623 -184 l 2
 624 -184 l 1
 630 -184 l 2
 640 -184 649 -182 655 -176 c 0
 662 -171 667 -164 672 -156 c 0
 673 -153 674 -150 674 -148 c 0
 675 -145 675 -142 675 -139 c 2
 675 -133 l 2
 674 -130 674 -127 672 -124 c 0
 671 -121 670 -119 668 -116 c 0
 663 -106 654 -99 643 -94 c 0
 633 -90 621 -88 610 -88 c 0
 604 -88 598 -88 592 -89 c 0
 586 -90 580 -92 574 -95 c 0
 561 -101 550 -110 540 -123 c 0
 531 -135 527 -149 527 -164 c 0
 527 -174 528 -183 532 -192 c 0
 536 -200 540 -208 546 -215 c 0
 552 -222 559 -229 567 -234 c 0
 575 -240 583 -244 592 -247 c 0
 598 -250 605 -251 611 -252 c 0
 617 -253 624 -254 630 -254 c 0
 646 -254 660 -251 673 -245 c 0
 686 -239 698 -231 707 -220 c 0
 717 -210 724 -198 729 -185 c 0
 734 -171 737 -157 737 -141 c 0
 737 -125 734 -110 728 -96 c 0
 722 -81 714 -68 703 -56 c 0
 697 -50 692 -45 686 -40 c 0
 680 -35 674 -30 668 -26 c 0
 651 -14 632 -6 613 -1 c 0
 593 4 574 8 554 10 c 0
 553 10 551 10 549 10 c 0
 547 11 544 11 542 11 c 0
 539 11 537 11 534 12 c 0
 532 12 531 12 530 12 c 1
 529 12 527 12 523 12 c 256
 517 12 517 12 514 12 c 256
 511 12 511 12 505 12 c 256
 501 12 498 12 498 12 c 1
 496 12 494 12 490 12 c 0
 487 11 483 11 479 11 c 0
 475 11 472 11 468 10 c 0
 465 10 462 10 461 10 c 2
 261 10 l 1
 268 18 274 26 278 35 c 0
 282 44 284 54 284 65 c 0
 284 72 282 80 280 87 c 0
 278 95 275 101 270 108 c 0
 266 114 261 119 255 123 c 0
 249 127 242 130 234 132 c 0
 231 133 228 133 226 133 c 0
 223 133 220 134 217 134 c 2
 209 134 l 2
 209 134 207 133 205 133 c 0
 203 132 201 132 200 132 c 0
 194 130 188 128 183 125 c 0
 178 122 173 118 169 114 c 0
 165 109 162 105 159 99 c 0
 157 94 156 88 156 82 c 0
108 51 m 0
 108 50 109 50 109 50 c 1
 109 47 111 45 115 42 c 0
 118 40 121 39 123 39 c 0
 127 39 130 41 132 43 c 1
 132 44 132 44 133 45 c 0
 133 46 133 47 134 47 c 1
 134 47 134 48 135 48 c 0
 136 49 136 49 136 50 c 0
 137 50 137 51 138 53 c 0
 138 54 138 55 138 56 c 0
 138 59 137 61 136 62 c 0
 134 64 133 66 131 67 c 0
 129 69 127 69 125 69 c 0
 124 69 123 69 122 69 c 0
 121 68 120 68 120 67 c 2
 110 58 l 2
 109 57 109 56 109 55 c 0
 109 53 108 52 108 51 c 0
32 53 m 0
 32 50 32 47 34 45 c 0
 36 43 39 42 42 42 c 2
 44 42 l 2
 45 42 46 42 48 42 c 0
 50 42 51 43 52 43 c 2
 54 43 55 44 57 45 c 0
 58 47 59 48 60 50 c 1
 62 51 63 53 63 57 c 0
 63 61 62 63 60 65 c 0
 58 66 56 67 52 68 c 1
 48 68 l 1
 44 68 l 2
 42 68 40 68 39 67 c 0
 38 66 37 64 36 63 c 0
 33 60 32 57 32 53 c 0
71 56 m 2
 71 53 l 1
 71 51 73 49 76 46 c 0
 78 44 80 42 82 42 c 1
 82 42 83 41 85 41 c 0
 86 41 87 41 88 40 c 1
 89 40 l 2
 91 40 93 41 94 42 c 0
 96 42 97 44 99 45 c 1
 99 46 100 46 100 47 c 0
 101 48 102 48 102 49 c 0
 103 49 103 50 103 51 c 0
 103 52 104 53 104 54 c 0
 104 58 102 61 100 62 c 0
 97 64 95 65 92 66 c 0
 89 68 86 68 84 68 c 0
 83 68 82 68 81 68 c 0
 80 68 79 67 78 66 c 0
 77 66 76 65 75 64 c 0
 74 63 73 62 72 61 c 0
 72 60 71 58 71 56 c 2
EndSplineSet
EndChar

StartChar: uFF399
Encoding: 1045401 1045401 185
Width: 559
VWidth: 444
Flags: HW
LayerCount: 2
Fore
SplineSet
514 120 m 0
 514 108 517 96 523 86 c 0
 529 76 537 67 547 60 c 0
 552 57 557 54 563 52 c 0
 569 50 575 49 581 49 c 0
 588 49 595 50 602 52 c 0
 609 54 616 57 622 62 c 0
 628 66 633 71 636 77 c 0
 640 83 642 90 642 98 c 0
 642 103 641 108 639 112 c 0
 636 119 631 125 625 129 c 0
 620 133 612 135 604 135 c 0
 599 135 594 135 589 133 c 0
 584 132 579 129 574 127 c 0
 570 124 566 120 563 116 c 0
 560 112 559 107 559 102 c 0
 559 98 560 93 564 88 c 0
 567 84 571 82 576 82 c 0
 579 82 581 82 583 84 c 0
 585 86 586 88 586 91 c 0
 586 94 585 96 584 97 c 0
 582 100 582 100 580 102 c 1
 579 102 l 1
 579 103 579 103 580 103 c 2
 580 104 580 104 580 104 c 1
 587 111 594 115 604 115 c 2
 608 115 l 1
 613 114 616 111 618 108 c 0
 620 105 621 101 621 97 c 2
 621 93 l 2
 621 92 621 91 621 90 c 0
 620 90 620 89 620 89 c 0
 617 84 613 80 608 77 c 0
 604 74 599 72 594 71 c 0
 591 70 589 70 587 70 c 0
 585 70 583 70 581 70 c 2
 575 70 l 1
 571 70 568 71 566 73 c 0
 562 75 562 75 558 78 c 0
 551 83 545 89 541 97 c 0
 537 104 535 112 535 121 c 0
 535 130 537 138 540 145 c 0
 544 152 549 158 556 165 c 0
 560 168 565 171 571 174 c 0
 577 176 583 178 588 178 c 0
 588 178 589 178 591 178 c 0
 592 178 594 178 595 178 c 0
 600 178 604 178 609 177 c 0
 614 176 618 175 622 173 c 0
 628 170 632 167 636 164 c 0
 641 160 645 156 649 152 c 0
 649 152 650 151 651 150 c 0
 652 148 652 147 653 147 c 0
 659 139 663 130 666 121 c 0
 670 112 671 102 671 93 c 0
 671 88 671 83 670 78 c 0
 670 73 668 69 666 64 c 0
 663 59 661 55 658 51 c 0
 654 47 651 44 647 40 c 0
 641 34 634 30 626 26 c 0
 619 22 611 20 603 18 c 0
 594 15 586 14 578 13 c 0
 569 12 561 11 553 11 c 0
 552 11 552 11 548 11 c 0
 546 11 544 11 542 11 c 0
 539 11 537 10 535 10 c 256
 532 10 532 10 531 10 c 2
 202 10 l 1
 201 11 l 2
 200 11 l 1
 198 13 195 15 193 18 c 0
 192 20 190 22 190 25 c 0
 189 28 189 30 189 33 c 0
 189 33 189 34 189 36 c 2
 189 38 l 2
 189 40 190 43 191 46 c 0
 193 49 194 52 196 54 c 0
 201 60 208 65 215 68 c 0
 221 71 229 72 238 72 c 0
 239 72 239 72 242 72 c 256
 244 72 245 72 245 72 c 1
 246 72 247 72 248 72 c 0
 250 71 250 71 251 71 c 2
 252 71 l 2
 255 71 257 72 259 74 c 0
 261 76 262 79 262 82 c 0
 262 86 261 88 258 90 c 0
 256 91 252 92 249 92 c 0
 248 92 247 92 245 92 c 0
 243 93 241 93 241 93 c 2
 237 93 l 2
 231 93 225 92 220 91 c 2
 219 91 218 91 217 90 c 0
 216 90 215 90 215 90 c 1
 214 90 213 89 211 89 c 0
 209 88 207 88 207 87 c 1
 206 87 l 1
 203 89 200 90 196 92 c 0
 193 93 189 94 186 94 c 2
 178 94 l 1
 170 94 l 1
 165 93 161 92 158 90 c 0
 154 87 150 85 147 82 c 1
 145 82 142 82 138 82 c 0
 134 82 132 82 131 82 c 0
 130 82 129 81 128 81 c 0
 128 81 127 81 126 81 c 2
 117 79 109 75 102 70 c 0
 95 65 89 58 85 49 c 0
 83 46 83 43 82 41 c 0
 82 38 82 35 82 32 c 0
 82 28 82 24 83 21 c 0
 84 19 85 15 87 11 c 1
 87 10 l 1
 0 10 l 2
 -1 10 l 0
 -2 9 -2 9 -3 9 c 1
 -3 8 -4 8 -4 7 c 0
 -5 6 -5 6 -6 6 c 0
 -7 5 -7 4 -7 3 c 0
 -7 2 -7 2 -7 0 c 0
 -7 -6 -5 -9 0 -10 c 1
 2 -10 2 -10 8 -10 c 0
 12 -10 17 -10 21 -10 c 0
 26 -10 30 -10 34 -10 c 0
 40 -10 40 -10 42 -10 c 0
 48 -11 53 -11 58 -12 c 0
 63 -13 68 -14 73 -14 c 0
 84 -17 95 -20 106 -25 c 0
 116 -30 125 -37 133 -46 c 0
 138 -51 141 -57 144 -64 c 0
 147 -71 148 -77 148 -84 c 0
 148 -90 147 -96 144 -100 c 0
 142 -105 138 -109 134 -112 c 0
 130 -115 125 -117 120 -118 c 0
 115 -120 109 -121 104 -121 c 256
 98 -121 93 -120 88 -119 c 0
 83 -117 78 -115 73 -112 c 0
 72 -111 71 -110 70 -110 c 0
 69 -109 68 -108 68 -107 c 0
 66 -105 65 -102 64 -98 c 0
 62 -95 62 -92 62 -89 c 0
 62 -85 63 -83 65 -81 c 0
 67 -79 70 -78 73 -76 c 0
 76 -75 79 -74 84 -74 c 2
 87 -74 l 1
 90 -76 l 2
 92 -77 93 -78 95 -80 c 0
 96 -82 97 -83 97 -86 c 0
 97 -86 97 -86 97 -87 c 256
 97 -88 97 -88 96 -88 c 1
 94 -88 93 -87 92 -87 c 0
 92 -87 91 -86 89 -86 c 0
 85 -86 83 -88 81 -90 c 0
 79 -92 79 -95 79 -98 c 0
 79 -102 80 -105 82 -108 c 0
 85 -110 88 -112 92 -112 c 0
 94 -112 97 -111 100 -110 c 0
 105 -108 109 -105 112 -101 c 0
 115 -97 117 -92 117 -86 c 0
 117 -77 114 -69 107 -63 c 0
 100 -56 92 -53 83 -53 c 0
 80 -53 77 -53 74 -54 c 0
 71 -55 71 -55 66 -57 c 0
 59 -59 53 -63 48 -68 c 0
 43 -74 41 -80 41 -88 c 0
 41 -91 41 -94 42 -97 c 0
 42 -100 43 -103 44 -106 c 0
 45 -108 46 -110 47 -112 c 0
 49 -116 49 -116 50 -118 c 1
 51 -119 52 -120 52 -120 c 1
 58 -128 66 -133 76 -136 c 0
 85 -140 94 -142 104 -142 c 0
 112 -142 120 -140 128 -138 c 0
 136 -135 143 -132 149 -127 c 0
 155 -122 160 -116 163 -109 c 0
 167 -102 168 -94 168 -85 c 0
 168 -72 166 -61 161 -51 c 0
 155 -40 148 -31 140 -23 c 0
 139 -23 138 -22 137 -21 c 0
 135 -19 134 -19 133 -18 c 0
 133 -18 132 -17 131 -17 c 0
 130 -16 130 -16 129 -15 c 2
 129 -15 128 -14 126 -13 c 0
 124 -12 123 -11 123 -11 c 1
 122 -10 l 1
 559 -9 l 2
 559 -9 562 -9 566 -9 c 0
 570 -8 573 -8 575 -8 c 0
 591 -6 607 -3 623 2 c 0
 629 5 635 8 641 11 c 0
 647 14 652 18 658 22 c 0
 660 24 663 26 665 29 c 0
 669 33 669 33 672 36 c 0
 677 41 681 47 684 54 c 0
 687 60 689 67 690 74 c 0
 691 75 691 76 691 78 c 0
 691 80 692 81 692 82 c 2
 692 91 l 1
 692 102 l 2
 691 107 690 112 689 117 c 0
 687 125 687 125 684 132 c 0
 683 135 681 139 680 142 c 0
 678 146 676 149 674 152 c 0
 666 166 654 177 641 186 c 0
 627 195 612 199 595 199 c 0
 584 199 574 197 564 193 c 0
 554 189 546 183 538 176 c 0
 531 169 525 161 521 151 c 0
 516 141 514 131 514 120 c 0
153 40 m 0
 153 43 153 45 153 47 c 0
 153 49 154 51 154 54 c 0
 156 60 159 65 162 68 c 0
 166 72 171 74 178 74 c 0
 181 74 183 74 185 73 c 1
 180 67 175 60 173 54 c 0
 170 49 168 41 168 33 c 0
 168 29 169 25 170 22 c 0
 171 18 172 15 173 11 c 1
 173 10 l 1
 163 10 l 2
 162 10 162 11 162 12 c 0
 161 13 161 13 160 14 c 1
 158 18 156 23 155 27 c 0
 153 31 153 35 153 40 c 0
102 33 m 0
 102 37 103 40 105 44 c 0
 107 47 110 50 113 53 c 0
 116 55 120 57 124 59 c 0
 127 61 131 62 135 62 c 1
 135 61 l 2
 135 60 134 59 134 58 c 0
 134 57 133 56 133 55 c 0
 132 51 132 46 132 42 c 0
 132 33 134 24 137 14 c 0
 137 14 137 13 138 12 c 0
 138 12 138 11 138 10 c 1
 117 10 l 2
 116 11 l 0
 115 12 114 12 113 13 c 0
 110 15 107 18 105 21 c 0
 103 25 102 29 102 33 c 0
EndSplineSet
EndChar

StartChar: uFF39A
Encoding: 1045402 1045402 186
Width: 267
VWidth: 444
Flags: HW
LayerCount: 2
Fore
SplineSet
46 61 m 0
 46 57 46 54 47 51 c 0
 48 47 50 44 52 42 c 2
 52 41 53 41 54 39 c 0
 56 38 57 37 57 37 c 0
 57 37 58 36 58 35 c 0
 58 34 59 34 59 34 c 1
 61 31 64 29 68 29 c 0
 77 29 84 32 90 38 c 0
 96 44 99 52 99 61 c 0
 99 69 96 75 90 80 c 0
 85 85 78 87 70 87 c 256
 63 87 57 84 52 80 c 0
 48 75 46 68 46 61 c 0
112 65 m 0
 112 56 115 49 122 42 c 2
 123 42 l 2
 124 41 124 41 124 41 c 0
 125 40 125 40 126 39 c 0
 127 39 128 38 128 38 c 1
 130 37 l 2
 130 36 131 36 132 35 c 2
 133 35 l 1
 144 35 l 1
 148 37 l 1
 148 37 149 38 151 40 c 0
 154 43 154 43 156 45 c 0
 158 47 160 50 161 53 c 0
 161 57 162 60 162 63 c 2
 162 69 l 1
 162 70 l 2
 161 70 161 71 161 71 c 0
 160 76 157 80 153 83 c 0
 148 85 144 87 139 87 c 0
 136 87 136 87 134 87 c 0
 133 87 132 87 130 86 c 0
 125 85 121 83 117 79 c 0
 113 75 112 70 112 65 c 0
178 60 m 0
 178 54 180 49 184 45 c 0
 187 41 192 38 197 35 c 0
 198 35 200 34 201 34 c 0
 203 33 204 33 206 32 c 1
 206 32 208 32 209 31 c 0
 211 30 212 30 213 30 c 2
 215 30 l 2
 217 30 220 31 222 32 c 0
 223 34 225 35 227 38 c 0
 229 40 231 43 231 45 c 0
 232 48 232 51 232 54 c 0
 232 62 230 69 225 74 c 0
 219 80 213 83 205 83 c 0
 198 83 192 81 186 77 c 0
 181 72 178 67 178 60 c 0
66 61 m 0
 66 65 68 67 71 67 c 2
 72 67 l 1
 74 66 76 66 77 65 c 0
 78 64 78 62 78 60 c 0
 78 58 78 57 77 55 c 0
 77 53 76 53 74 53 c 0
 71 53 70 53 68 55 c 0
 67 56 66 58 66 61 c 0
132 64 m 0
 132 65 133 66 134 66 c 0
 137 66 137 66 138 66 c 2
 140 66 l 1
 141 66 142 65 142 63 c 0
 142 62 141 61 141 59 c 0
 140 57 139 57 138 57 c 1
 137 57 135 58 134 60 c 0
 133 61 132 63 132 64 c 0
199 59 m 2
 199 60 200 61 201 62 c 0
 203 63 204 63 205 63 c 0
 207 63 209 62 210 60 c 0
 212 58 212 56 212 54 c 0
 212 53 l 1
 209 55 206 55 205 55 c 0
 203 55 201 56 199 59 c 2
-7 0 m 0
 -7 -1 -7 -3 -6 -4 c 0
 -6 -6 -5 -7 -4 -8 c 2
 -3 -8 -2 -9 -1 -9 c 2
 0 -10 l 1
 268 -10 l 2
 269 -10 271 -9 272 -7 c 0
 273 -5 274 -4 275 -2 c 1
 275 0 l 2
 275 2 274 4 274 5 c 0
 273 6 272 7 270 9 c 1
 269 9 l 1
 269 9 269 10 268 10 c 1
 0 10 l 2
 -2 10 -4 9 -5 6 c 0
 -7 4 -7 2 -7 0 c 0
EndSplineSet
EndChar

StartChar: uFF39B
Encoding: 1045403 1045403 187
Width: 311
VWidth: 444
Flags: HW
LayerCount: 2
Fore
SplineSet
266 350 m 0
 266 348 266 347 266 345 c 0
 267 344 267 343 268 341 c 2
 268 341 268 340 269 339 c 0
 269 337 270 337 270 336 c 256
 270 336 270 335 270 334 c 0
 271 333 271 333 271 332 c 0
 271 331 272 331 272 331 c 1
 278 324 285 321 293 321 c 0
 299 321 303 322 307 324 c 0
 310 326 314 328 317 332 c 0
 319 334 320 336 320 339 c 0
 321 341 321 344 321 346 c 0
 321 354 319 360 313 365 c 0
 307 371 301 373 293 373 c 0
 286 373 280 371 274 367 c 0
 269 363 266 357 266 350 c 0
289 351 m 2
 289 352 l 1
 289 352 290 353 291 352 c 0
 292 352 292 352 293 352 c 256
 293 352 294 352 295 352 c 0
 296 353 296 352 297 352 c 2
 297 351 298 351 299 350 c 0
 299 349 300 349 300 349 c 1
 300 348 l 2
 301 347 301 347 301 346 c 2
 301 345 301 343 299 343 c 0
 297 342 296 342 295 342 c 2
 293 342 l 1
 293 345 292 347 291 348 c 2
 291 349 291 349 290 350 c 0
 289 351 289 351 289 351 c 2
180 308 m 0
 180 303 181 298 183 294 c 0
 185 290 188 286 192 283 c 1
 192 283 193 283 194 282 c 0
 195 281 l 1
 195 281 196 281 197 280 c 0
 199 278 199 278 199 278 c 0
 206 272 214 269 224 269 c 0
 229 269 235 270 240 272 c 0
 245 274 250 277 254 280 c 0
 258 283 261 287 263 292 c 0
 265 297 267 302 267 308 c 0
 267 319 263 329 255 336 c 0
 247 344 238 348 227 348 c 0
 221 348 215 347 210 345 c 0
 204 343 199 341 195 337 c 0
 190 334 187 330 184 325 c 0
 181 320 180 314 180 308 c 0
67 106 m 0
 59 106 51 107 43 109 c 0
 35 110 28 114 23 121 c 0
 20 123 19 126 19 130 c 0
 19 133 20 135 21 137 c 0
 22 138 25 139 28 139 c 0
 29 139 31 139 33 138 c 0
 34 138 36 138 38 138 c 0
 41 138 44 139 46 142 c 0
 47 142 47 143 47 143 c 2
 48 144 l 1
 48 151 l 1
 47 152 l 2
 47 152 47 152 47 153 c 0
 45 156 42 158 38 159 c 0
 34 159 31 160 28 160 c 0
 19 160 12 157 7 152 c 0
 1 146 -1 139 -1 130 c 0
 -1 121 1 113 7 107 c 0
 13 101 20 96 28 92 c 0
 32 90 37 88 42 88 c 0
 48 87 53 86 57 86 c 0
 58 86 58 85 58 85 c 1
 58 85 58 84 59 84 c 2
 59 83 l 2
 62 77 65 72 66 66 c 0
 68 60 69 54 69 48 c 0
 69 44 69 39 68 35 c 0
 67 31 66 27 64 23 c 0
 63 21 62 18 60 15 c 0
 59 12 58 10 57 10 c 2
 0 10 l 2
 -1 10 -3 9 -5 8 c 0
 -7 7 -8 6 -8 4 c 2
 -9 3 -9 3 -9 2 c 0
 -9 1 -9 1 -9 0 c 0
 -9 -5 -7 -8 -3 -10 c 1
 -2 -10 l 2
 -1 -10 l 1
 311 -10 l 2
 313 -10 314 -10 315 -9 c 0
 316 -8 317 -7 318 -6 c 0
 319 -5 320 -3 320 -1 c 0
 320 4 317 7 313 9 c 2
 312 10 l 2
 311 10 l 1
 174 10 l 1
 174 13 174 15 175 18 c 0
 176 20 176 23 176 26 c 2
 176 35 l 1
 176 45 l 2
 176 45 176 46 176 47 c 0
 176 49 176 49 176 50 c 0
 173 61 170 72 164 81 c 0
 159 91 153 100 146 109 c 1
 146 109 146 109 147 110 c 0
 148 110 l 1
 148 111 149 112 152 114 c 0
 155 117 157 118 157 118 c 1
 158 119 158 119 160 121 c 0
 162 123 164 124 165 126 c 0
 168 128 168 128 170 130 c 0
 172 131 173 133 174 133 c 2
 174 134 l 2
 175 134 175 134 176 134 c 1
 179 131 182 128 185 124 c 0
 187 121 188 117 188 112 c 0
 188 111 189 110 189 109 c 0
 189 108 189 107 188 106 c 0
 187 105 186 103 185 102 c 0
 183 102 182 101 181 100 c 0
 179 99 178 97 177 96 c 0
 176 95 176 93 176 91 c 0
 176 88 177 85 179 84 c 0
 181 82 183 81 186 81 c 0
 188 81 189 81 191 82 c 0
 192 83 194 83 195 84 c 0
 205 91 209 100 209 111 c 0
 209 119 208 126 204 132 c 0
 200 138 196 144 191 149 c 1
 198 156 l 1
 199 156 l 1
 199 156 199 156 199 155 c 0
 200 155 200 155 200 154 c 0
 202 152 204 150 205 148 c 0
 207 147 208 144 210 142 c 0
 212 140 213 137 215 133 c 0
 217 130 218 127 218 124 c 256
 218 122 217 120 215 119 c 0
 213 118 211 116 211 114 c 2
 211 111 l 2
 211 104 214 101 220 101 c 0
 221 101 222 101 223 101 c 0
 224 101 224 101 225 102 c 0
 228 103 231 105 233 109 c 0
 236 112 237 116 238 119 c 2
 238 124 l 2
 238 133 235 141 230 148 c 0
 222 159 222 159 215 170 c 0
 214 170 214 171 214 171 c 2
 213 171 l 1
 222 180 l 1
 223 181 l 1
 223 181 223 181 223 180 c 2
 224 180 l 1
 224 180 225 180 226 180 c 0
 227 179 228 179 228 179 c 1
 229 179 l 2
 229 178 l 1
 234 172 237 166 238 158 c 0
 240 151 241 144 241 137 c 0
 241 135 243 134 245 132 c 0
 246 131 248 130 250 130 c 0
 256 130 259 133 260 138 c 1
 260 145 l 2
 260 155 259 164 255 173 c 0
 252 183 246 191 240 198 c 1
 242 200 242 200 248 206 c 0
 254 211 254 211 260 218 c 0
 267 224 267 224 273 230 c 0
 279 236 279 236 281 238 c 0
 308 263 339 283 373 300 c 0
 384 305 395 309 406 313 c 0
 417 317 429 320 440 323 c 0
 454 326 468 327 483 327 c 0
 487 327 491 327 494 327 c 0
 497 327 501 326 505 326 c 0
 516 323 526 319 534 314 c 0
 543 308 551 302 559 294 c 0
 563 289 567 282 570 275 c 0
 572 267 574 260 574 254 c 0
 574 250 574 247 573 244 c 0
 573 241 572 237 571 234 c 0
 569 227 565 220 561 214 c 0
 556 207 551 202 545 198 c 0
 542 195 538 194 534 194 c 2
 530 194 l 2
 528 194 525 196 522 199 c 0
 519 201 517 204 517 206 c 1
 519 208 521 209 523 211 c 0
 524 212 525 214 525 217 c 0
 525 223 521 227 515 227 c 0
 511 227 509 226 506 224 c 0
 504 223 502 221 500 218 c 0
 498 215 496 212 496 208 c 0
 496 203 498 198 500 194 c 0
 502 190 505 186 508 183 c 0
 512 180 516 178 521 176 c 0
 525 174 530 173 535 173 c 0
 542 173 549 175 554 179 c 0
 560 183 565 187 570 193 c 0
 576 199 581 205 585 213 c 0
 588 221 591 229 593 237 c 0
 593 240 594 242 594 245 c 0
 594 247 594 250 594 253 c 2
 594 261 l 2
 594 267 592 273 590 278 c 0
 588 283 586 289 584 294 c 0
 581 298 578 302 575 306 c 0
 571 310 568 314 564 318 c 0
 554 328 541 335 527 340 c 0
 513 346 498 348 484 348 c 0
 471 348 458 347 445 345 c 0
 433 342 420 339 408 335 c 0
 393 331 379 325 365 319 c 0
 352 312 338 305 325 297 c 0
 324 297 323 296 322 295 c 0
 320 294 319 293 317 292 c 0
 314 290 314 290 312 289 c 0
 309 287 309 287 308 286 c 0
 306 285 304 284 302 282 c 0
 299 280 297 279 297 278 c 1
 294 276 294 276 290 272 c 0
 285 268 285 268 280 264 c 0
 276 260 276 260 272 257 c 0
 269 255 268 254 268 254 c 2
 154 142 l 2
 141 130 127 121 114 115 c 0
 101 109 85 106 67 106 c 0
200 308 m 0
 200 311 200 314 202 316 c 0
 204 319 206 321 209 322 c 0
 212 324 214 326 218 327 c 0
 221 328 223 328 226 328 c 0
 231 328 236 326 240 322 c 0
 245 318 247 313 247 307 c 0
 247 303 245 300 242 297 c 0
 238 294 235 292 231 291 c 2
 230 291 230 290 229 290 c 2
 228 290 l 1
 224 290 l 2
 221 290 218 290 215 291 c 0
 213 292 211 294 209 297 c 0
 208 299 208 299 208 301 c 0
 207 302 206 303 205 304 c 1
 204 305 203 305 201 306 c 0
 200 306 200 307 200 308 c 0
18 221 m 2
 18 214 l 2
 19 210 19 206 20 201 c 0
 21 197 23 193 24 189 c 0
 29 181 34 173 41 166 c 0
 48 159 56 154 66 151 c 0
 71 150 75 149 79 148 c 0
 83 148 87 148 92 148 c 256
 97 148 102 148 107 149 c 0
 112 149 117 151 121 153 c 0
 122 153 124 154 126 155 c 0
 129 156 131 157 131 157 c 1
 131 157 132 158 134 158 c 0
 135 159 136 159 136 159 c 1
 144 162 150 165 156 170 c 0
 162 175 166 181 170 188 c 0
 174 194 178 201 180 208 c 0
 182 216 183 223 183 230 c 0
 183 248 176 262 163 274 c 0
 154 283 143 288 130 292 c 0
 118 295 106 296 93 296 c 0
 90 296 87 296 84 296 c 0
 81 296 77 295 74 295 c 0
 65 293 57 290 50 285 c 0
 43 280 38 275 33 268 c 0
 28 262 25 254 22 246 c 0
 19 238 18 230 18 221 c 2
498 270 m 0
 498 263 499 258 502 253 c 0
 503 252 504 250 505 249 c 0
 506 247 506 246 506 246 c 1
 508 243 511 241 515 240 c 0
 519 239 522 239 525 239 c 0
 531 239 535 240 539 242 c 0
 543 244 547 248 551 252 c 0
 553 254 555 257 556 260 c 0
 556 264 557 267 557 270 c 2
 557 275 l 1
 557 277 556 278 555 280 c 0
 555 281 554 282 553 284 c 1
 550 289 546 292 541 294 c 0
 536 295 531 296 525 296 c 2
 520 296 l 1
 519 296 518 296 516 295 c 0
 515 295 514 295 513 294 c 0
 508 292 504 289 502 284 c 0
 499 280 498 275 498 270 c 0
39 221 m 0
 39 232 41 242 47 252 c 0
 52 261 60 268 70 272 c 0
 74 274 77 275 81 275 c 0
 85 276 89 276 93 276 c 0
 100 276 108 275 116 274 c 0
 124 272 132 270 139 266 c 0
 146 262 152 258 156 252 c 0
 161 246 163 238 163 230 c 0
 163 222 162 215 159 208 c 0
 156 201 152 195 147 190 c 0
 146 189 144 188 143 186 c 0
 141 185 140 184 138 183 c 1
 138 183 136 183 135 183 c 0
 133 183 132 182 131 182 c 2
 130 182 l 0
 130 181 129 181 128 181 c 1
 128 181 127 180 125 179 c 0
 124 177 123 177 122 176 c 0
 121 175 119 174 118 174 c 0
 117 173 115 172 114 171 c 0
 108 169 101 168 92 168 c 0
 76 168 63 173 53 182 c 0
 44 192 39 205 39 221 c 0
519 269 m 0
 519 274 521 276 526 276 c 0
 528 276 530 275 532 275 c 0
 535 274 536 272 536 270 c 256
 536 268 536 266 535 265 c 2
 534 264 534 263 533 263 c 0
 532 262 532 262 532 262 c 1
 529 262 l 2
 528 262 527 261 526 261 c 0
 525 260 524 260 523 260 c 0
 521 260 520 261 520 264 c 0
 519 266 519 268 519 269 c 0
112 92 m 1
 127 98 l 1
 127 98 128 97 129 96 c 0
 130 95 130 95 131 94 c 0
 138 86 144 77 149 67 c 0
 154 57 156 47 156 36 c 0
 156 32 156 28 155 24 c 0
 155 19 153 15 152 11 c 1
 151 11 l 2
 151 10 l 1
 128 10 l 1
 128 13 l 2
 128 13 128 15 129 19 c 0
 129 22 130 25 130 25 c 2
 130 33 l 1
 130 43 l 2
 129 51 127 59 124 68 c 0
 120 77 116 85 112 91 c 1
 112 92 l 1
81 86 m 1
 82 86 83 87 84 87 c 0
 85 87 86 87 87 87 c 2
 88 87 l 1
 91 87 l 1
 96 79 100 71 104 62 c 0
 108 53 110 44 110 34 c 0
 110 31 110 31 110 29 c 0
 110 27 109 26 109 23 c 0
 109 21 108 19 108 15 c 2
 107 10 l 1
 81 10 l 1
 83 15 85 19 86 24 c 0
 88 29 89 34 89 38 c 2
 89 48 l 1
 89 58 l 2
 89 63 88 68 86 72 c 0
 85 77 83 82 81 86 c 1
EndSplineSet
EndChar

StartChar: uFF39C
Encoding: 1045404 1045404 188
Width: 494
VWidth: 444
Flags: HW
LayerCount: 2
Fore
SplineSet
-9 0 m 0
 -9 -6 -6 -9 0 -10 c 0
 25 -11 48 -14 70 -21 c 0
 91 -28 112 -39 133 -54 c 0
 133 -54 135 -55 136 -56 c 0
 139 -58 139 -58 141 -60 c 0
 144 -62 144 -62 146 -63 c 0
 148 -65 149 -65 149 -66 c 0
 150 -67 151 -68 153 -69 c 0
 156 -71 156 -71 158 -74 c 0
 161 -76 161 -76 163 -78 c 0
 165 -79 166 -80 166 -80 c 2
 312 -220 l 1
 412 -302 l 2
 413 -304 416 -306 422 -310 c 0
 430 -317 430 -317 440 -324 c 0
 451 -331 451 -331 460 -339 c 0
 467 -344 472 -347 476 -350 c 0
 478 -351 478 -351 486 -356 c 0
 493 -361 493 -361 502 -367 c 0
 511 -373 511 -373 520 -378 c 0
 528 -384 528 -384 532 -386 c 0
 533 -387 535 -388 537 -390 c 0
 540 -391 543 -393 546 -395 c 0
 551 -398 551 -398 555 -400 c 0
 558 -402 560 -403 562 -403 c 0
 563 -404 563 -404 565 -405 c 0
 568 -406 568 -406 571 -408 c 0
 573 -409 575 -410 577 -411 c 0
 579 -412 580 -413 581 -413 c 0
 593 -419 606 -424 619 -428 c 0
 633 -432 646 -434 660 -434 c 0
 664 -434 669 -433 674 -432 c 0
 680 -431 684 -430 688 -428 c 0
 693 -425 696 -422 699 -418 c 0
 702 -414 703 -409 703 -404 c 0
 703 -400 702 -396 699 -393 c 0
 697 -390 693 -388 689 -386 c 2
 689 -386 689 -386 688 -386 c 2
 687 -386 l 1
 682 -386 l 1
 676 -386 l 1
 671 -387 668 -390 668 -395 c 0
 668 -399 670 -402 673 -404 c 1
 674 -405 l 2
 675 -405 l 2
 676 -405 677 -406 679 -406 c 0
 680 -406 682 -406 682 -406 c 1
 679 -410 l 1
 675 -411 l 2
 675 -412 674 -412 673 -412 c 2
 672 -413 l 1
 659 -413 l 2
 659 -413 659 -413 658 -413 c 0
 658 -413 658 -414 657 -414 c 1
 655 -413 653 -413 650 -413 c 2
 646 -412 l 2
 637 -411 627 -409 618 -406 c 0
 609 -403 600 -399 592 -395 c 0
 590 -394 588 -393 586 -392 c 0
 582 -390 582 -390 578 -389 c 0
 575 -387 575 -387 572 -386 c 0
 570 -385 569 -384 569 -384 c 2
 568 -383 565 -382 562 -380 c 0
 557 -377 557 -377 552 -374 c 0
 546 -370 546 -370 541 -368 c 0
 536 -365 536 -365 534 -363 c 0
 530 -361 530 -361 524 -357 c 0
 517 -353 517 -353 511 -349 c 0
 505 -345 505 -345 501 -342 c 0
 498 -339 496 -338 496 -338 c 1
 496 -337 l 1
 498 -337 500 -336 502 -336 c 0
 503 -335 505 -335 507 -334 c 0
 514 -331 519 -328 523 -323 c 0
 528 -318 530 -312 530 -305 c 0
 530 -300 529 -296 527 -293 c 0
 525 -290 522 -287 519 -284 c 0
 518 -282 516 -281 514 -281 c 0
 512 -280 510 -280 508 -280 c 0
 502 -280 498 -282 494 -286 c 0
 490 -290 488 -295 488 -300 c 0
 488 -308 491 -312 498 -312 c 0
 501 -312 504 -311 505 -309 c 0
 507 -307 508 -305 508 -302 c 1
 509 -303 509 -303 509 -304 c 0
 510 -304 510 -305 510 -306 c 0
 510 -308 508 -310 504 -312 c 0
 501 -314 498 -316 496 -316 c 1
 490 -316 l 2
 482 -316 475 -315 467 -312 c 0
 459 -309 452 -306 446 -302 c 0
 446 -302 445 -301 444 -300 c 0
 442 -300 441 -299 441 -298 c 0
 439 -297 437 -296 436 -294 c 0
 434 -293 432 -292 430 -291 c 1
 368 -242 l 1
 367 -240 l 1
 371 -241 375 -241 380 -242 c 0
 384 -242 388 -242 392 -242 c 0
 405 -242 417 -241 430 -238 c 0
 444 -236 456 -231 467 -226 c 0
 479 -220 489 -212 497 -202 c 0
 505 -193 510 -181 512 -167 c 1
 512 -158 l 2
 512 -154 512 -150 512 -147 c 0
 511 -143 511 -140 510 -136 c 0
 508 -131 506 -126 503 -122 c 0
 500 -118 496 -114 492 -110 c 0
 491 -109 490 -108 488 -107 c 0
 487 -106 485 -105 484 -105 c 0
 478 -101 472 -98 465 -96 c 0
 459 -94 452 -94 445 -94 c 0
 438 -94 431 -95 425 -97 c 0
 419 -99 413 -103 406 -107 c 0
 400 -112 395 -117 391 -123 c 0
 387 -129 385 -136 385 -144 c 256
 385 -152 388 -159 392 -166 c 0
 396 -174 403 -177 412 -177 c 0
 421 -177 428 -174 434 -169 c 0
 440 -164 443 -157 443 -148 c 2
 443 -144 l 1
 442 -140 439 -137 437 -137 c 0
 434 -136 431 -136 427 -136 c 0
 423 -136 420 -136 418 -138 c 0
 415 -139 414 -142 414 -146 c 0
 414 -150 416 -153 418 -155 c 1
 416 -156 415 -156 413 -156 c 2
 411 -156 l 1
 409 -155 407 -153 407 -150 c 0
 406 -148 406 -145 406 -143 c 0
 406 -139 407 -135 410 -132 c 0
 413 -129 416 -126 420 -123 c 0
 424 -120 428 -118 432 -116 c 0
 436 -115 441 -114 446 -114 c 0
 455 -114 463 -116 472 -121 c 0
 480 -125 486 -132 489 -140 c 0
 491 -143 491 -145 492 -149 c 0
 492 -152 492 -155 492 -158 c 0
 492 -166 490 -174 487 -180 c 0
 483 -187 478 -193 473 -198 c 0
 467 -203 460 -207 453 -210 c 0
 445 -213 438 -215 431 -217 c 0
 419 -220 406 -222 393 -222 c 0
 385 -222 377 -221 369 -220 c 0
 361 -219 353 -216 346 -213 c 2
 345 -213 l 2
 345 -213 345 -213 344 -213 c 1
 344 -212 343 -211 341 -210 c 0
 340 -210 339 -209 339 -209 c 1
 337 -208 335 -207 333 -205 c 0
 328 -202 328 -202 323 -199 c 0
 318 -195 318 -195 314 -192 c 0
 311 -191 309 -189 308 -188 c 0
 307 -188 307 -187 306 -187 c 0
 305 -186 305 -186 304 -185 c 0
 304 -185 303 -184 302 -183 c 0
 301 -182 l 1
 318 -172 331 -160 340 -145 c 0
 349 -131 356 -114 360 -96 c 0
 361 -91 362 -85 363 -80 c 0
 363 -74 363 -68 363 -62 c 2
 363 -50 l 2
 363 -44 362 -37 360 -31 c 0
 359 -24 357 -18 355 -11 c 1
 355 -10 l 1
 495 -10 l 2
 495 -10 496 -10 497 -10 c 0
 498 -9 499 -9 499 -8 c 0
 502 -6 503 -3 503 0 c 0
 503 2 502 4 501 7 c 0
 499 9 497 10 494 10 c 2
 0 10 l 2
 -3 10 -5 9 -6 7 c 0
 -8 4 -9 2 -9 0 c 0
152 -42 m 1
 135 -29 118 -19 100 -11 c 1
 160 -11 l 1
 160 -12 l 2
 161 -13 161 -14 161 -15 c 2
 161 -21 l 2
 161 -24 161 -27 160 -30 c 0
 160 -33 158 -36 156 -38 c 0
 155 -39 155 -40 154 -40 c 0
 154 -41 153 -42 153 -42 c 2
 152 -42 l 1
182 -21 m 0
 182 -21 182 -20 182 -19 c 0
 181 -18 181 -17 181 -17 c 0
 181 -17 181 -15 181 -14 c 0
 181 -13 181 -11 181 -11 c 1
 203 -11 l 2
 204 -11 l 1
 204 -12 204 -12 204 -14 c 0
 204 -15 204 -16 204 -16 c 1
 205 -17 205 -18 205 -19 c 0
 205 -19 205 -20 206 -21 c 0
 206 -22 206 -23 206 -23 c 256
 206 -24 206 -25 206 -27 c 0
 206 -29 206 -30 207 -31 c 2
 207 -38 205 -44 202 -52 c 0
 201 -56 199 -59 196 -63 c 0
 194 -66 191 -69 187 -70 c 1
 186 -70 l 1
 169 -55 l 1
 177 -46 182 -34 182 -21 c 0
227 -31 m 0
 227 -28 227 -25 226 -22 c 0
 226 -18 225 -15 225 -12 c 1
 225 -11 l 1
 241 -11 l 2
 242 -11 242 -11 242 -12 c 2
 243 -13 l 2
 247 -26 250 -39 250 -54 c 0
 250 -60 249 -66 248 -72 c 0
 248 -79 246 -85 243 -90 c 0
 242 -93 241 -95 240 -97 c 0
 239 -99 237 -102 236 -103 c 2
 228 -110 l 1
 227 -110 l 1
 202 -86 l 1
 203 -85 l 2
 203 -85 204 -84 205 -84 c 0
 206 -83 206 -82 207 -82 c 1
 207 -81 208 -81 209 -80 c 0
 210 -79 210 -78 211 -78 c 0
 211 -78 211 -77 212 -76 c 0
 213 -75 l 0
 222 -62 227 -48 227 -31 c 0
264 -11 m 1
 289 -11 l 1
 290 -11 l 1
 291 -13 291 -14 292 -15 c 0
 292 -16 293 -17 293 -18 c 2
 293 -19 294 -20 294 -21 c 0
 294 -23 295 -23 295 -24 c 2
 295 -25 295 -26 296 -28 c 0
 297 -31 297 -32 297 -33 c 1
 297 -33 298 -35 298 -37 c 0
 298 -39 299 -41 299 -42 c 1
 300 -45 300 -49 300 -53 c 0
 301 -57 301 -61 301 -65 c 0
 301 -72 300 -80 299 -87 c 0
 298 -95 295 -102 293 -109 c 0
 290 -116 286 -123 282 -129 c 0
 277 -135 272 -140 266 -145 c 0
 265 -145 265 -145 265 -146 c 2
 264 -146 l 1
 263 -146 l 2
 263 -145 263 -145 262 -145 c 2
 243 -126 l 1
 243 -125 l 1
 247 -121 251 -117 254 -112 c 0
 258 -107 261 -102 263 -97 c 0
 265 -89 267 -82 268 -76 c 0
 269 -69 270 -62 270 -54 c 0
 270 -47 269 -39 269 -32 c 0
 268 -25 266 -18 264 -11 c 1
321 -66 m 0
 321 -50 319 -34 315 -20 c 1
 315 -19 314 -18 314 -16 c 0
 313 -14 313 -12 312 -12 c 1
 312 -11 l 1
 332 -11 l 2
 332 -12 333 -12 333 -13 c 0
 334 -14 334 -15 334 -15 c 1
 334 -15 334 -16 335 -17 c 0
 335 -18 336 -19 336 -20 c 1
 336 -20 336 -21 337 -23 c 0
 337 -24 337 -25 337 -25 c 1
 338 -26 338 -27 339 -30 c 0
 339 -32 340 -33 340 -34 c 1
 341 -39 341 -39 342 -44 c 0
 342 -48 343 -51 343 -54 c 1
 343 -55 343 -56 343 -58 c 256
 343 -61 343 -61 343 -63 c 0
 343 -72 342 -82 340 -91 c 0
 339 -100 336 -109 332 -118 c 0
 329 -122 327 -126 324 -131 c 0
 322 -135 319 -139 316 -143 c 0
 315 -143 315 -144 314 -145 c 0
 313 -146 311 -148 310 -149 c 0
 309 -150 307 -151 306 -152 c 0
 305 -153 304 -154 304 -155 c 0
 301 -157 298 -159 295 -162 c 0
 292 -164 289 -165 285 -167 c 1
 285 -167 284 -166 283 -165 c 0
 282 -164 282 -164 281 -163 c 2
 280 -162 l 1
 280 -161 l 1
 280 -160 l 2
 281 -159 282 -159 283 -158 c 0
 284 -156 285 -156 285 -155 c 0
 286 -154 286 -154 289 -152 c 0
 292 -149 292 -149 292 -148 c 0
 293 -148 293 -148 294 -146 c 0
 295 -146 296 -145 296 -144 c 2
 305 -133 311 -121 315 -107 c 0
 319 -94 321 -80 321 -66 c 0
EndSplineSet
EndChar

StartChar: uFF39D
Encoding: 1045405 1045405 189
Width: 331
VWidth: 444
Flags: HW
LayerCount: 2
Fore
SplineSet
-8 0 m 0
 -8 -1 -8 -2 -8 -3 c 0
 -8 -4 -8 -5 -7 -6 c 2
 -1 -11 l 1
 -1 -12 0 -12 1 -12 c 0
 1 -12 2 -12 2 -13 c 1
 32 -13 63 -15 93 -21 c 0
 94 -21 96 -21 100 -22 c 0
 104 -23 106 -23 107 -24 c 0
 123 -28 139 -32 153 -37 c 0
 168 -43 183 -49 197 -56 c 0
 201 -58 204 -60 207 -62 c 0
 212 -65 212 -65 216 -68 c 0
 220 -71 224 -73 227 -75 c 0
 231 -77 235 -79 238 -82 c 0
 251 -93 261 -106 268 -121 c 0
 276 -136 280 -151 280 -168 c 0
 280 -188 274 -205 263 -218 c 0
 252 -231 237 -240 217 -246 c 0
 208 -249 197 -250 187 -250 c 0
 177 -250 168 -249 161 -246 c 0
 154 -243 147 -238 140 -230 c 0
 138 -228 136 -225 135 -222 c 0
 132 -218 132 -218 130 -213 c 0
 128 -207 127 -201 127 -195 c 0
 127 -182 131 -173 139 -166 c 0
 148 -160 158 -157 169 -157 c 0
 173 -157 178 -157 183 -158 c 0
 189 -159 193 -161 196 -164 c 0
 199 -167 202 -170 204 -173 c 0
 206 -176 207 -180 207 -185 c 256
 207 -189 205 -194 201 -197 c 0
 197 -201 193 -202 188 -202 c 0
 184 -202 181 -201 178 -197 c 1
 178 -197 178 -197 178 -196 c 2
 179 -196 l 1
 182 -195 184 -194 186 -193 c 0
 188 -192 189 -189 189 -185 c 0
 189 -179 186 -175 180 -175 c 0
 174 -175 169 -177 164 -181 c 0
 160 -185 157 -190 157 -196 c 0
 157 -204 161 -211 167 -215 c 0
 174 -220 181 -222 188 -222 c 0
 199 -222 208 -219 216 -211 c 0
 224 -204 228 -194 228 -184 c 0
 228 -178 226 -173 224 -168 c 0
 219 -158 213 -151 206 -146 c 0
 198 -141 189 -138 179 -136 c 1
 169 -136 l 1
 160 -136 l 2
 154 -137 148 -138 141 -141 c 0
 130 -146 121 -154 116 -162 c 0
 110 -171 107 -182 107 -194 c 2
 107 -201 l 2
 107 -205 107 -209 108 -213 c 0
 110 -217 111 -221 112 -224 c 0
 120 -240 130 -252 142 -259 c 0
 154 -267 169 -271 187 -271 c 0
 196 -271 205 -270 214 -268 c 0
 223 -266 231 -264 240 -260 c 0
 248 -256 256 -252 263 -246 c 0
 270 -241 276 -235 281 -228 c 0
 284 -224 286 -221 288 -217 c 0
 291 -211 291 -211 294 -205 c 2
 294 -205 294 -205 295 -205 c 1
 299 -211 303 -217 307 -223 c 0
 311 -229 316 -235 321 -239 c 0
 327 -244 333 -247 339 -250 c 0
 346 -253 353 -254 360 -254 c 0
 363 -254 365 -254 368 -254 c 0
 371 -254 373 -253 376 -252 c 0
 379 -252 382 -251 384 -250 c 0
 387 -248 389 -247 390 -245 c 0
 393 -241 394 -236 394 -230 c 0
 394 -225 392 -221 388 -217 c 0
 385 -213 380 -210 375 -210 c 0
 373 -210 371 -211 370 -211 c 2
 370 -212 l 2
 369 -212 369 -212 368 -212 c 1
 368 -213 368 -213 366 -214 c 0
 365 -215 365 -216 364 -217 c 1
 363 -218 362 -220 361 -221 c 0
 360 -223 359 -225 359 -227 c 0
 359 -229 359 -230 360 -231 c 0
 360 -232 360 -233 361 -234 c 1
 360 -234 l 2
 353 -234 346 -232 340 -227 c 0
 333 -223 328 -218 324 -212 c 0
 323 -212 323 -211 322 -210 c 2
 320 -208 l 1
 320 -207 l 1
 321 -207 l 2
 322 -207 322 -207 323 -208 c 0
 324 -208 325 -208 325 -208 c 0
 326 -208 327 -208 328 -209 c 0
 330 -209 331 -209 331 -210 c 1
 340 -210 l 1
 349 -210 l 1
 349 -209 350 -209 351 -209 c 0
 352 -209 353 -209 353 -209 c 2
 360 -207 366 -205 371 -202 c 0
 376 -199 380 -194 383 -188 c 0
 384 -186 384 -184 384 -182 c 0
 384 -180 384 -178 384 -176 c 2
 384 -170 l 2
 384 -170 384 -169 384 -168 c 0
 384 -167 384 -167 384 -166 c 1
 382 -162 380 -159 376 -156 c 0
 373 -153 369 -152 364 -152 c 0
 359 -152 354 -154 350 -159 c 0
 348 -161 348 -164 348 -168 c 0
 348 -168 348 -169 348 -170 c 2
 348 -172 l 1
 348 -174 349 -177 352 -180 c 0
 354 -182 357 -184 359 -185 c 1
 358 -185 358 -185 358 -186 c 0
 358 -186 358 -186 357 -186 c 2
 355 -187 352 -188 349 -189 c 0
 346 -189 343 -189 340 -189 c 0
 337 -189 334 -189 332 -188 c 0
 329 -188 326 -187 323 -185 c 1
 323 -185 322 -185 322 -184 c 0
 321 -184 l 1
 320 -183 319 -182 317 -180 c 0
 316 -178 315 -177 314 -177 c 2
 311 -173 309 -169 308 -166 c 0
 306 -163 305 -160 304 -157 c 0
 302 -154 301 -151 300 -148 c 1
 301 -148 l 1
 307 -150 312 -151 317 -152 c 0
 321 -153 327 -154 332 -154 c 2
 340 -154 l 2
 345 -153 349 -151 354 -148 c 0
 359 -144 362 -139 363 -134 c 2
 363 -134 364 -134 364 -133 c 2
 364 -132 l 1
 364 -126 l 2
 364 -122 363 -117 362 -112 c 0
 360 -108 358 -103 354 -100 c 0
 353 -100 352 -99 349 -99 c 0
 347 -99 345 -98 344 -98 c 0
 341 -98 337 -99 332 -100 c 0
 328 -102 325 -104 324 -107 c 0
 323 -109 323 -110 322 -111 c 0
 322 -113 322 -114 322 -115 c 0
 322 -121 324 -125 328 -127 c 0
 332 -129 337 -131 341 -132 c 1
 340 -133 338 -133 336 -133 c 0
 335 -133 333 -134 331 -134 c 0
 323 -134 316 -132 308 -128 c 0
 300 -124 293 -120 288 -114 c 1
 283 -104 283 -104 277 -95 c 0
 273 -89 269 -84 264 -78 c 0
 261 -75 257 -72 254 -69 c 0
 251 -67 248 -64 244 -61 c 0
 243 -61 242 -60 240 -59 c 0
 239 -58 237 -57 237 -56 c 1
 236 -56 235 -55 232 -53 c 0
 229 -52 228 -51 227 -50 c 0
 227 -50 225 -49 223 -48 c 0
 221 -47 220 -46 220 -46 c 0
 207 -38 194 -31 180 -26 c 0
 167 -20 153 -15 139 -10 c 1
 331 -10 l 2
 332 -10 333 -10 334 -10 c 0
 338 -7 340 -4 340 0 c 0
 340 5 338 8 334 10 c 1
 333 10 333 10 333 10 c 2
 332 10 l 1
 0 10 l 2
 -1 10 -3 9 -4 8 c 0
 -5 7 -6 6 -7 5 c 0
 -8 5 -8 4 -8 3 c 0
 -8 2 -8 1 -8 0 c 0
342 -132 m 0
 343 -131 l 0
 342 -130 l 0
 341 -130 341 -131 341 -131 c 0
 341 -131 341 -132 342 -132 c 0
EndSplineSet
EndChar

StartChar: uFF39E
Encoding: 1045406 1045406 190
Width: 286
VWidth: 444
Flags: HW
LayerCount: 2
Fore
SplineSet
-9 0 m 0
 -9 -4 -8 -7 -5 -8 c 1
 -5 -9 -4 -9 -3 -10 c 2
 -1 -10 l 1
 98 -10 l 2
 98 -10 100 -11 102 -11 c 0
 105 -12 107 -12 109 -13 c 2
 123 -16 135 -21 147 -30 c 0
 159 -38 169 -48 178 -59 c 0
 187 -71 194 -83 199 -97 c 0
 204 -110 207 -124 207 -138 c 0
 207 -154 203 -168 196 -180 c 0
 189 -191 179 -201 165 -210 c 0
 154 -217 141 -221 128 -221 c 0
 116 -221 104 -218 93 -212 c 0
 82 -206 73 -198 66 -188 c 0
 64 -185 62 -181 62 -178 c 0
 61 -175 60 -171 60 -167 c 2
 60 -161 l 1
 61 -160 l 2
 61 -159 61 -159 61 -158 c 0
 65 -145 73 -135 85 -128 c 0
 92 -124 101 -122 110 -122 c 0
 116 -122 123 -123 130 -125 c 0
 138 -127 143 -131 146 -137 c 0
 148 -139 149 -141 149 -143 c 0
 149 -145 149 -147 149 -150 c 2
 149 -155 l 2
 149 -158 148 -161 146 -163 c 0
 143 -166 141 -168 139 -170 c 0
 137 -172 134 -173 130 -173 c 0
 128 -173 127 -173 126 -173 c 1
 123 -171 l 1
 125 -171 126 -170 127 -169 c 0
 128 -168 129 -167 130 -166 c 0
 131 -165 132 -164 132 -163 c 0
 132 -162 132 -162 132 -161 c 0
 132 -157 130 -153 126 -149 c 0
 123 -146 119 -144 115 -144 c 0
 111 -144 108 -145 105 -148 c 0
 102 -151 100 -154 99 -157 c 2
 99 -158 98 -159 98 -160 c 2
 98 -165 l 1
 98 -170 l 2
 98 -171 99 -171 99 -173 c 2
 100 -176 101 -178 103 -180 c 0
 104 -183 107 -185 109 -187 c 0
 112 -189 115 -191 118 -192 c 0
 122 -193 126 -193 129 -193 c 0
 135 -193 141 -192 146 -190 c 0
 151 -187 155 -184 159 -180 c 0
 162 -176 165 -171 167 -166 c 0
 169 -160 170 -155 170 -149 c 0
 170 -137 166 -127 159 -120 c 0
 151 -112 142 -107 132 -104 c 0
 128 -103 125 -102 121 -102 c 0
 118 -102 114 -102 111 -102 c 0
 107 -102 103 -102 100 -102 c 0
 96 -102 93 -103 89 -104 c 0
 86 -104 84 -105 81 -107 c 0
 78 -108 76 -109 73 -111 c 0
 64 -117 55 -125 49 -135 c 0
 43 -144 40 -155 40 -167 c 0
 40 -181 44 -193 53 -205 c 0
 61 -217 73 -226 86 -232 c 0
 99 -238 113 -241 128 -241 c 0
 134 -241 139 -241 145 -240 c 0
 150 -239 155 -238 160 -235 c 2
 175 -228 l 2
 181 -225 188 -220 194 -214 c 0
 201 -208 208 -200 213 -191 c 0
 218 -182 222 -173 224 -163 c 0
 226 -158 226 -154 227 -150 c 0
 227 -147 227 -142 227 -137 c 2
 227 -127 l 2
 227 -122 226 -117 225 -112 c 0
 224 -107 222 -102 221 -97 c 0
 219 -92 217 -87 215 -81 c 0
 213 -76 210 -71 208 -66 c 0
 207 -65 207 -64 206 -63 c 0
 205 -61 204 -60 204 -60 c 0
 196 -48 187 -37 176 -26 c 1
 175 -25 174 -25 173 -24 c 0
 172 -23 171 -22 171 -22 c 0
 169 -20 169 -20 164 -16 c 0
 158 -12 158 -12 156 -10 c 1
 286 -10 l 1
 287 -10 l 2
 288 -10 288 -10 288 -10 c 2
 293 -8 295 -5 295 0 c 0
 295 2 294 4 293 5 c 0
 291 8 289 10 286 10 c 2
 0 10 l 2
 -3 10 -5 9 -7 7 c 0
 -8 5 -9 2 -9 0 c 0
EndSplineSet
EndChar

StartChar: uFF3A0
Encoding: 1045408 1045408 192
Width: 261
VWidth: 444
Flags: HW
LayerCount: 2
Fore
SplineSet
124 42 m 0
 124 45 123 48 122 51 c 0
 121 54 119 57 118 59 c 0
 113 69 107 77 99 84 c 1
 99 84 98 84 98 85 c 0
 97 85 97 86 96 86 c 0
 91 90 86 93 79 97 c 0
 73 101 67 105 61 109 c 0
 55 114 51 119 47 124 c 0
 43 130 41 137 41 144 c 0
 41 148 42 152 43 156 c 0
 44 160 46 164 48 168 c 0
 49 170 51 172 52 174 c 0
 54 176 56 177 57 179 c 0
 65 186 73 190 83 192 c 0
 93 193 103 194 112 194 c 0
 118 194 124 194 129 194 c 0
 135 193 140 193 146 193 c 0
 156 193 165 195 174 198 c 0
 184 201 192 206 199 213 c 0
 201 215 203 218 204 222 c 0
 205 224 205 226 205 227 c 256
 205 229 205 231 206 232 c 2
 206 233 206 234 206 235 c 0
 207 235 207 236 208 237 c 0
 209 239 211 241 212 243 c 0
 213 244 215 245 218 245 c 0
 221 245 223 244 225 242 c 0
 227 240 228 238 228 235 c 2
 228 234 l 2
 228 233 228 231 227 228 c 0
 227 224 226 221 226 218 c 0
 226 214 225 211 225 208 c 0
 225 204 224 202 224 201 c 0
 220 176 214 151 207 126 c 0
 199 102 188 79 172 58 c 0
 167 50 161 43 154 36 c 0
 144 26 144 26 133 17 c 0
 132 15 130 15 129 14 c 0
 128 13 126 13 125 11 c 1
 124 10 l 1
 262 10 l 2
 262 10 263 10 264 10 c 0
 265 9 266 9 266 8 c 1
 269 7 270 4 270 0 c 0
 270 -2 269 -5 268 -7 c 0
 266 -9 264 -10 261 -10 c 2
 0 -10 l 2
 -4 -10 -6 -8 -8 -5 c 1
 -8 -4 -9 -4 -9 -4 c 2
 -9 -3 l 1
 -9 4 l 1
 -8 5 l 2
 -8 6 l 1
 -7 7 l 0
 -6 8 -6 8 -5 8 c 1
 -5 9 -4 9 -3 10 c 2
 -1 10 l 1
 68 10 l 2
 68 10 69 11 71 11 c 0
 73 11 75 11 76 12 c 0
 86 14 95 18 105 23 c 0
 106 24 107 25 108 26 c 0
 109 27 110 28 112 29 c 2
 114 30 116 31 118 32 c 0
 121 33 123 35 123 36 c 2
 124 37 124 38 124 39 c 256
 124 41 124 41 124 42 c 0
115 123 m 0
 116 123 118 123 120 122 c 0
 121 121 123 119 124 118 c 0
 132 111 137 104 141 96 c 0
 144 89 147 80 148 70 c 1
 148 70 148 69 148 67 c 256
 148 65 149 64 149 63 c 2
 149 62 l 1
 150 63 151 64 151 65 c 0
 151 66 151 66 152 67 c 0
 153 72 155 77 156 82 c 0
 158 87 158 92 158 98 c 0
 158 104 157 110 155 116 c 0
 153 122 150 127 146 132 c 2
 140 138 l 2
 139 138 139 139 139 141 c 2
 139 143 l 1
 141 145 142 146 144 146 c 0
 145 146 147 146 147 145 c 2
 156 136 l 1
 157 135 l 2
 157 135 157 134 158 134 c 0
 158 134 158 133 159 132 c 0
 159 131 160 131 160 130 c 0
 163 125 166 119 167 114 c 0
 168 108 169 101 169 95 c 1
 174 106 176 117 176 127 c 0
 176 131 176 135 175 139 c 0
 174 142 173 146 171 150 c 0
 169 152 168 153 166 155 c 0
 164 156 164 158 164 161 c 0
 164 164 165 166 168 166 c 0
 171 166 173 164 175 162 c 0
 177 160 178 157 180 155 c 2
 180 155 181 154 182 152 c 0
 182 150 183 149 183 148 c 0
 183 148 184 147 184 146 c 0
 184 144 185 143 185 143 c 0
 185 141 186 140 186 138 c 0
 186 135 186 134 187 132 c 1
 187 133 l 2
 187 133 187 133 187 134 c 1
 188 134 188 136 189 138 c 0
 189 140 190 142 190 142 c 0
 191 143 191 144 191 146 c 0
 192 148 192 148 193 150 c 0
 193 152 193 153 194 155 c 0
 194 156 194 157 194 157 c 0
 195 159 195 162 196 165 c 0
 197 170 197 170 198 175 c 0
 199 178 200 181 200 183 c 0
 201 185 201 187 201 187 c 1
 199 186 197 185 196 184 c 0
 194 183 192 183 191 182 c 0
 185 180 180 178 174 176 c 0
 168 174 162 173 156 173 c 2
 145 173 l 2
 140 173 134 173 129 173 c 0
 123 173 117 174 112 174 c 0
 107 174 103 173 98 173 c 0
 94 173 89 172 85 171 c 0
 81 170 77 168 73 165 c 0
 70 163 67 159 64 155 c 0
 63 152 62 148 62 144 c 0
 62 141 63 138 64 135 c 0
 66 133 68 131 71 128 c 1
 71 128 72 127 74 125 c 0
 76 124 78 123 78 122 c 0
 79 122 79 121 81 120 c 0
 82 120 83 119 84 118 c 0
 84 118 85 118 86 117 c 0
 88 115 88 115 91 114 c 0
 94 112 94 112 96 111 c 0
 97 110 99 109 99 109 c 0
 100 109 101 108 103 106 c 0
 107 104 107 104 108 103 c 0
 108 103 108 103 109 102 c 0
 110 102 110 102 110 102 c 1
 122 91 131 80 137 67 c 1
 137 69 l 2
 137 73 137 77 135 82 c 0
 133 88 131 94 128 98 c 0
 125 102 121 107 116 111 c 0
 115 111 115 112 114 112 c 0
 113 113 113 113 112 113 c 1
 112 114 111 114 111 115 c 2
 110 116 l 1
 110 117 l 2
 109 117 109 118 109 118 c 0
 109 121 110 122 110 122 c 0
 111 123 112 123 115 123 c 0
EndSplineSet
EndChar

StartChar: uFF3A1
Encoding: 1045409 1045409 193
Width: 369
VWidth: 444
Flags: HW
LayerCount: 2
Fore
SplineSet
-7 0 m 0
 -7 1 -7 3 -6 4 c 0
 -6 6 -5 7 -4 8 c 0
 -3 8 -2 9 -1 9 c 2
 0 10 l 1
 75 10 l 2
 75 10 76 10 78 10 c 0
 80 10 82 11 84 11 c 0
 87 11 87 11 90 12 c 0
 92 12 94 12 96 13 c 0
 109 14 121 19 134 25 c 0
 146 32 157 39 167 47 c 0
 167 48 169 49 172 52 c 0
 175 54 177 56 178 58 c 1
 179 58 180 58 180 59 c 1
 176 62 171 64 166 65 c 0
 164 66 164 66 160 67 c 0
 155 69 155 69 150 70 c 0
 146 72 143 73 140 74 c 0
 137 74 135 75 134 75 c 0
 128 77 121 80 115 84 c 0
 109 87 103 91 98 96 c 0
 93 101 89 106 86 112 c 0
 83 119 81 125 81 133 c 2
 81 138 l 2
 81 140 82 143 82 144 c 0
 83 147 83 147 84 150 c 0
 86 155 89 160 92 164 c 0
 96 169 100 173 105 176 c 0
 109 180 114 183 120 186 c 0
 125 189 130 191 135 192 c 0
 141 193 147 194 153 194 c 0
 162 194 171 193 180 191 c 0
 188 189 197 188 206 188 c 0
 219 188 231 191 243 198 c 0
 255 204 265 212 273 221 c 0
 276 224 278 228 279 232 c 0
 280 236 281 239 284 242 c 1
 284 243 284 243 285 244 c 0
 286 245 286 245 286 246 c 0
 287 246 288 247 289 247 c 0
 290 247 291 247 292 247 c 0
 295 247 298 246 299 244 c 0
 301 242 302 239 302 236 c 0
 302 234 301 231 300 228 c 2
 300 228 300 227 300 226 c 0
 299 224 299 223 299 223 c 1
 298 221 298 218 298 216 c 256
 298 213 298 213 298 210 c 0
 298 202 298 196 300 189 c 0
 301 183 303 176 305 169 c 0
 307 163 309 157 312 152 c 0
 316 143 316 143 319 135 c 0
 322 130 324 124 326 118 c 0
 328 112 329 106 329 100 c 0
 329 88 325 77 317 68 c 0
 310 59 301 54 290 51 c 0
 278 49 268 47 257 47 c 0
 248 47 239 48 231 49 c 0
 223 51 215 53 206 55 c 1
 205 55 l 1
 199 49 193 44 187 38 c 0
 181 32 174 27 168 22 c 0
 167 21 165 20 163 18 c 0
 160 17 158 15 157 15 c 2
 157 15 156 14 154 13 c 0
 152 12 151 12 151 11 c 1
 151 11 151 11 150 11 c 0
 150 10 150 10 149 10 c 1
 369 10 l 1
 370 10 l 2
 370 9 370 9 371 9 c 1
 374 7 376 4 376 0 c 0
 376 -2 375 -4 374 -6 c 0
 373 -9 371 -10 369 -10 c 2
 0 -10 l 2
 -2 -10 -4 -9 -5 -6 c 0
 -7 -4 -7 -2 -7 0 c 0
220 73 m 1
 220 72 l 1
 221 72 l 2
 222 72 222 72 222 72 c 0
 225 71 228 71 230 70 c 0
 233 70 236 69 238 69 c 2
 239 69 240 69 241 68 c 0
 242 68 243 68 244 68 c 0
 244 68 246 68 248 68 c 0
 250 68 252 68 252 68 c 2
 257 68 l 2
 263 68 268 68 274 69 c 0
 281 70 286 72 291 74 c 0
 297 76 301 80 304 84 c 0
 307 88 309 94 309 101 c 0
 309 104 308 106 308 109 c 0
 307 110 307 112 306 114 c 0
 305 116 305 118 305 118 c 1
 288 156 l 2
 287 156 287 158 286 161 c 0
 285 163 285 165 284 166 c 0
 283 168 283 171 282 174 c 0
 281 178 280 181 280 182 c 1
 279 181 279 180 279 180 c 1
 278 179 277 177 276 175 c 0
 275 173 274 170 273 167 c 0
 272 165 271 162 270 160 c 0
 269 157 268 155 268 154 c 1
 267 153 266 152 266 151 c 2
 266 150 l 1
 278 150 l 2
 279 150 280 150 281 149 c 0
 282 148 282 147 282 146 c 0
 282 143 281 142 280 141 c 0
 279 141 277 140 275 140 c 1
 261 140 l 1
 259 135 l 1
 261 135 263 135 266 135 c 0
 268 135 271 134 273 134 c 1
 273 133 273 133 274 133 c 256
 274 133 274 133 275 133 c 0
 275 132 275 132 276 132 c 0
 277 131 277 131 277 130 c 2
 277 129 l 2
 277 125 275 123 272 123 c 0
 270 123 269 123 267 124 c 0
 265 124 264 124 262 124 c 0
 261 124 260 124 259 124 c 2
 257 124 l 2
 257 124 257 124 256 124 c 0
 255 123 255 123 254 123 c 0
 253 123 252 123 252 122 c 1
 251 121 250 120 249 117 c 0
 248 114 247 112 246 111 c 1
 246 111 246 111 245 110 c 0
 245 109 l 1
 261 109 l 2
 261 109 262 109 263 109 c 0
 264 109 265 109 266 109 c 0
 268 108 270 108 274 107 c 0
 278 106 280 104 280 101 c 0
 280 98 278 96 274 96 c 0
 272 96 270 97 268 97 c 0
 266 98 264 98 262 98 c 2
 255 98 l 1
 249 98 l 2
 249 98 248 98 246 98 c 0
 244 98 243 97 243 97 c 1
 241 97 240 97 238 96 c 0
 237 96 236 95 236 94 c 1
 220 73 l 1
101 134 m 256
 101 129 102 125 105 121 c 0
 107 117 110 113 113 110 c 0
 117 107 121 104 125 102 c 0
 129 99 133 97 137 96 c 0
 138 96 138 96 143 94 c 0
 148 93 148 93 153 91 c 0
 156 90 160 89 163 88 c 0
 166 87 168 86 169 86 c 0
 173 85 177 83 181 81 c 0
 187 78 187 78 193 75 c 2
 194 75 194 74 194 74 c 1
 198 78 l 2
 199 79 199 80 199 82 c 0
 199 84 199 84 199 86 c 0
 199 91 198 97 195 102 c 0
 191 109 191 109 186 116 c 1
 185 117 l 1
 185 117 185 117 185 118 c 0
 185 122 187 123 191 123 c 0
 193 123 194 122 196 120 c 1
 196 120 197 118 199 116 c 0
 200 113 201 112 202 111 c 1
 203 109 205 106 206 103 c 0
 208 100 209 96 209 93 c 1
 210 93 l 1
 210 94 l 2
 211 95 211 95 212 95 c 0
 212 97 212 97 214 99 c 0
 216 102 216 102 218 105 c 0
 220 107 220 107 221 110 c 0
 222 111 223 112 223 113 c 1
 223 113 223 113 224 114 c 2
 224 115 l 1
 224 116 l 2
 224 117 224 117 224 118 c 0
 223 119 223 119 222 121 c 0
 221 123 221 123 220 124 c 0
 218 129 214 133 210 136 c 0
 206 140 202 144 199 148 c 0
 198 148 198 149 198 151 c 0
 198 154 200 155 203 155 c 0
 205 155 207 155 208 153 c 0
 210 152 212 150 213 149 c 2
 214 148 216 146 218 144 c 0
 221 141 223 139 224 138 c 1
 224 138 224 138 225 137 c 0
 225 136 225 136 226 135 c 2
 226 135 227 133 228 132 c 0
 230 130 230 129 231 128 c 2
 231 128 231 128 231 127 c 1
 231 128 232 129 233 130 c 0
 233 132 234 132 234 133 c 1
 235 134 236 137 238 141 c 0
 241 146 241 146 242 148 c 1
 242 149 l 2
 242 150 241 150 241 151 c 0
 240 153 240 153 237 157 c 0
 235 160 233 161 233 162 c 0
 232 163 232 164 231 164 c 0
 231 165 230 166 230 166 c 2
 230 167 230 168 230 169 c 256
 230 170 230 170 230 170 c 1
 229 170 l 1
 229 170 228 170 226 170 c 0
 224 169 223 169 223 169 c 0
 222 169 220 169 218 168 c 0
 215 168 214 168 213 168 c 2
 207 168 l 2
 203 168 203 168 200 168 c 256
 197 168 195 168 192 168 c 0
 186 169 180 170 173 171 c 0
 166 173 160 173 153 173 c 0
 150 173 147 173 144 172 c 0
 141 172 138 171 135 170 c 0
 132 169 128 167 124 164 c 0
 120 162 116 160 113 156 c 0
 109 153 107 150 104 146 c 0
 102 142 101 138 101 134 c 256
238 173 m 1
 238 172 238 172 239 171 c 256
 240 171 241 169 243 166 c 0
 245 163 247 162 247 161 c 2
 248 161 l 1
 248 161 248 162 249 163 c 0
 249 164 249 164 250 165 c 1
 250 166 251 168 253 172 c 0
 254 176 255 179 256 180 c 2
 256 181 257 181 257 182 c 1
 255 181 255 181 250 179 c 0
 245 176 245 176 244 175 c 1
 243 175 242 175 241 174 c 0
 239 174 239 173 238 173 c 1
EndSplineSet
EndChar

StartChar: uFF3A2
Encoding: 1045410 1045410 194
Width: 310
VWidth: 444
Flags: HW
LayerCount: 2
Fore
SplineSet
188 -74 m 1
 203 -10 l 1
 184 -10 l 1
 171 -64 l 2
 170 -65 170 -66 169 -66 c 0
 168 -67 167 -67 166 -67 c 0
 164 -67 163 -66 161 -65 c 0
 161 -64 161 -64 161 -63 c 256
 161 -62 161 -62 161 -62 c 2
 173 -10 l 1
 0 -10 l 1
 -1 -10 l 2
 -1 -10 -1 -10 -2 -10 c 1
 -5 -7 -7 -4 -7 0 c 0
 -7 4 -6 6 -4 8 c 1
 -3 8 -2 9 -1 9 c 2
 0 10 l 1
 68 10 l 2
 69 10 70 10 72 10 c 0
 74 11 76 11 77 11 c 0
 83 13 88 14 92 16 c 0
 97 18 102 20 107 23 c 1
 107 23 108 23 108 24 c 0
 109 24 109 24 110 25 c 1
 110 25 111 25 112 26 c 0
 112 27 113 28 113 28 c 1
 114 29 115 29 116 29 c 0
 117 30 118 30 119 30 c 2
 119 31 l 2
 120 31 120 31 120 32 c 2
 121 32 122 33 123 33 c 0
 124 34 125 35 125 35 c 1
 126 37 126 39 126 42 c 0
 126 43 126 45 126 46 c 0
 125 48 125 50 124 51 c 0
 122 56 119 61 116 66 c 0
 113 70 110 75 106 79 c 0
 105 80 105 80 103 82 c 0
 101 84 101 84 101 84 c 0
 96 88 90 92 83 96 c 0
 77 100 70 104 64 108 c 0
 59 113 53 118 49 123 c 0
 45 129 43 136 43 144 c 0
 43 148 44 152 45 156 c 0
 46 159 48 163 50 167 c 0
 51 170 53 172 55 174 c 0
 58 177 58 177 62 181 c 0
 66 185 72 188 80 190 c 0
 88 192 95 193 101 194 c 2
 115 194 l 2
 121 194 127 193 132 193 c 0
 138 193 144 193 150 193 c 0
 159 193 169 195 178 198 c 0
 187 201 195 206 202 214 c 0
 204 216 205 219 206 223 c 0
 207 225 207 226 207 228 c 0
 207 229 208 231 208 233 c 1
 208 233 208 233 208 234 c 256
 209 234 l 2
 210 237 211 239 213 242 c 0
 215 244 217 245 220 245 c 0
 224 245 227 244 228 242 c 0
 229 240 230 237 230 234 c 2
 230 230 l 2
 228 204 223 179 217 154 c 0
 211 129 202 105 190 82 c 0
 184 71 178 61 170 52 c 0
 162 43 154 34 146 26 c 0
 145 25 145 25 144 24 c 0
 143 23 142 22 140 21 c 0
 139 19 138 18 137 18 c 0
 136 17 135 16 135 16 c 0
 133 15 132 14 131 13 c 0
 130 12 128 11 127 11 c 1
 127 11 127 11 126 11 c 2
 126 10 l 1
 178 10 l 1
 190 60 l 2
 191 63 193 64 196 64 c 0
 199 64 200 62 200 59 c 2
 200 57 l 1
 189 10 l 1
 208 10 l 1
 222 72 l 2
 223 75 225 77 228 77 c 0
 231 77 232 75 232 71 c 2
 232 69 l 1
 219 10 l 1
 232 10 l 1
 245 68 l 2
 245 70 247 71 250 71 c 0
 253 71 255 70 255 66 c 2
 255 65 l 1
 243 10 l 1
 310 10 l 2
 310 10 311 10 311 9 c 0
 312 9 313 8 313 8 c 1
 316 6 317 4 317 0 c 0
 317 -4 315 -7 312 -10 c 1
 311 -10 311 -10 310 -10 c 1
 238 -10 l 1
 225 -63 l 2
 225 -66 223 -67 220 -67 c 0
 217 -67 215 -65 215 -62 c 2
 215 -60 l 1
 227 -10 l 1
 214 -10 l 1
 198 -76 l 2
 197 -78 196 -79 193 -79 c 0
 190 -79 188 -78 188 -74 c 1
116 124 m 0
 118 124 119 123 121 122 c 0
 121 121 123 120 124 119 c 0
 125 118 126 118 126 118 c 1
 135 109 142 101 145 92 c 0
 148 84 150 74 151 61 c 1
 152 62 153 62 153 63 c 0
 153 64 153 65 154 66 c 1
 155 70 156 74 158 77 c 0
 159 81 160 85 160 89 c 2
 160 97 l 1
 160 105 l 2
 160 105 160 106 160 107 c 0
 160 107 160 108 160 109 c 1
 158 115 156 120 153 124 c 0
 150 129 146 133 142 138 c 1
 141 138 141 139 141 141 c 0
 141 144 143 146 146 146 c 0
 148 146 149 145 149 145 c 0
 157 138 163 130 166 122 c 0
 169 115 171 106 172 95 c 1
 174 100 175 105 177 111 c 0
 178 116 179 122 179 127 c 0
 179 132 178 136 177 141 c 0
 176 145 173 150 170 153 c 0
 170 153 169 154 168 155 c 0
 168 157 167 157 167 157 c 1
 166 158 166 158 166 159 c 0
 166 159 166 160 166 161 c 0
 166 164 168 166 171 166 c 0
 173 166 175 164 177 162 c 0
 184 153 188 143 189 132 c 1
 190 132 190 134 191 136 c 0
 192 139 192 140 192 141 c 1
 192 142 193 144 194 146 c 0
 194 148 195 151 196 153 c 0
 196 156 197 158 197 160 c 0
 198 163 198 164 199 165 c 0
 199 166 199 168 200 170 c 0
 200 173 200 173 201 176 c 0
 202 178 202 180 202 182 c 0
 203 183 203 184 203 185 c 2
 203 187 l 1
 199 185 199 185 196 183 c 0
 194 182 191 181 188 180 c 0
 182 177 175 175 168 174 c 0
 162 173 155 173 148 173 c 0
 142 173 137 173 131 173 c 0
 126 173 120 174 115 174 c 0
 108 174 101 173 95 172 c 0
 89 172 83 170 77 166 c 0
 77 166 77 166 76 166 c 2
 76 165 l 2
 74 164 72 162 70 160 c 0
 69 159 67 157 66 154 c 1
 65 152 65 152 64 149 c 0
 64 147 64 146 64 144 c 0
 64 139 66 134 70 130 c 0
 75 126 79 123 83 121 c 0
 84 120 85 119 88 117 c 0
 91 116 93 114 96 112 c 0
 99 110 102 108 104 107 c 0
 107 105 109 104 110 103 c 0
 110 103 110 103 111 102 c 0
 112 102 l 0
 118 97 123 91 128 85 c 0
 132 79 136 73 140 66 c 1
 140 67 l 2
 140 72 139 78 137 84 c 0
 134 91 132 96 128 100 c 2
 128 101 126 102 124 105 c 0
 120 109 120 109 118 110 c 0
 117 112 115 113 114 114 c 0
 112 115 112 116 112 118 c 0
 112 122 113 124 116 124 c 0
EndSplineSet
EndChar

StartChar: uFF3A3
Encoding: 1045411 1045411 195
Width: 238
VWidth: 444
Flags: HW
LayerCount: 2
Fore
SplineSet
28 -166 m 0
 28 -156 30 -146 34 -137 c 0
 38 -128 44 -120 52 -114 c 0
 56 -111 59 -108 64 -106 c 0
 68 -104 72 -103 76 -101 c 0
 77 -101 78 -100 80 -100 c 0
 83 -99 85 -98 88 -97 c 0
 91 -96 94 -95 96 -94 c 0
 99 -93 100 -93 101 -93 c 0
 105 -91 108 -90 111 -88 c 0
 114 -86 117 -83 120 -80 c 0
 121 -79 122 -79 122 -78 c 256
 122 -77 121 -76 120 -75 c 0
 113 -62 104 -49 93 -37 c 0
 83 -26 69 -17 54 -13 c 0
 53 -13 53 -13 52 -12 c 0
 51 -12 50 -12 49 -11 c 1
 48 -11 47 -11 45 -10 c 2
 42 -10 l 1
 0 -10 l 1
 -1 -10 l 2
 -2 -9 l 2
 -7 -7 -9 -4 -9 1 c 0
 -9 5 -7 8 -3 10 c 1
 -2 10 l 2
 -1 10 l 1
 240 10 l 2
 241 10 243 10 245 8 c 0
 246 6 247 5 248 3 c 1
 248 0 l 2
 248 -3 247 -5 246 -6 c 0
 244 -8 242 -9 239 -10 c 1
 94 -10 l 1
 95 -11 96 -13 97 -13 c 0
 99 -14 100 -15 101 -16 c 0
 105 -21 110 -25 114 -30 c 0
 118 -34 121 -39 125 -44 c 0
 125 -45 126 -45 127 -47 c 0
 128 -49 128 -49 130 -51 c 0
 131 -54 131 -54 133 -56 c 0
 134 -58 134 -58 135 -59 c 0
 135 -60 136 -61 137 -62 c 0
 138 -64 138 -65 139 -66 c 1
 140 -66 140 -67 140 -67 c 256
 140 -68 140 -68 141 -69 c 0
 143 -70 143 -70 143 -71 c 1
 144 -72 144 -73 145 -75 c 0
 145 -76 146 -78 147 -79 c 2
 147 -80 148 -81 148 -82 c 0
 150 -85 150 -85 151 -87 c 0
 152 -90 152 -90 154 -92 c 0
 155 -93 155 -94 156 -94 c 0
 159 -101 164 -107 169 -113 c 0
 175 -119 180 -124 186 -130 c 0
 189 -133 193 -136 197 -139 c 0
 202 -142 206 -145 211 -148 c 0
 216 -150 221 -152 226 -154 c 0
 232 -155 237 -156 241 -156 c 0
 244 -156 246 -156 248 -156 c 0
 250 -155 253 -155 255 -154 c 0
 255 -154 256 -154 258 -154 c 0
 260 -153 261 -153 261 -153 c 2
 263 -153 l 2
 266 -153 268 -154 270 -155 c 0
 272 -157 273 -160 273 -163 c 0
 273 -166 272 -168 270 -169 c 0
 269 -171 267 -172 265 -173 c 0
 262 -174 260 -174 257 -175 c 0
 255 -175 252 -176 251 -177 c 0
 243 -180 236 -185 228 -190 c 0
 226 -192 226 -192 221 -196 c 0
 216 -200 216 -200 210 -205 c 0
 204 -210 204 -210 199 -214 c 0
 194 -218 194 -218 192 -219 c 0
 189 -221 186 -223 183 -225 c 0
 180 -227 177 -228 173 -230 c 0
 163 -233 153 -236 144 -238 c 0
 134 -240 124 -242 113 -242 c 0
 100 -242 88 -239 76 -235 c 0
 64 -231 54 -224 45 -214 c 0
 43 -212 41 -209 39 -206 c 0
 36 -201 36 -201 34 -197 c 0
 32 -192 30 -187 30 -182 c 0
 29 -176 28 -171 28 -166 c 0
49 -167 m 2
 49 -171 50 -175 50 -179 c 0
 51 -182 52 -186 54 -190 c 0
 56 -196 60 -200 64 -204 c 0
 69 -208 73 -212 79 -214 c 0
 84 -217 90 -219 96 -220 c 0
 102 -221 108 -222 114 -222 c 256
 120 -222 126 -221 131 -220 c 0
 137 -219 143 -218 149 -216 c 0
 154 -215 159 -213 164 -211 c 0
 170 -210 175 -207 179 -204 c 2
 218 -173 l 1
 217 -173 217 -173 217 -172 c 2
 216 -172 l 2
 216 -172 214 -171 211 -170 c 0
 209 -169 207 -169 206 -168 c 0
 205 -168 205 -168 203 -166 c 0
 200 -165 200 -165 199 -165 c 0
 189 -159 180 -153 172 -145 c 1
 169 -146 167 -148 165 -150 c 0
 163 -152 161 -155 160 -158 c 0
 159 -161 157 -164 156 -167 c 0
 156 -170 155 -173 155 -175 c 0
 155 -176 155 -177 154 -178 c 0
 154 -180 154 -181 154 -181 c 256
 154 -182 l 0
 154 -183 l 1
 153 -184 151 -185 149 -185 c 0
 147 -185 145 -184 145 -183 c 0
 144 -182 144 -181 144 -179 c 0
 144 -174 145 -168 147 -161 c 0
 149 -155 152 -149 156 -145 c 0
 156 -145 157 -143 159 -141 c 0
 161 -139 163 -138 163 -137 c 1
 163 -137 162 -136 162 -135 c 0
 161 -134 160 -134 160 -134 c 2
 159 -133 l 1
 159 -132 l 1
 158 -133 l 2
 157 -133 157 -134 156 -134 c 1
 154 -135 154 -135 150 -139 c 0
 147 -141 146 -142 145 -142 c 2
 137 -151 l 2
 134 -154 132 -157 131 -161 c 0
 130 -165 129 -169 128 -173 c 0
 128 -174 128 -175 128 -178 c 0
 127 -181 127 -183 127 -184 c 0
 126 -187 125 -188 122 -188 c 0
 119 -188 117 -186 117 -182 c 2
 117 -181 l 2
 117 -180 117 -179 117 -176 c 0
 118 -174 118 -172 118 -172 c 0
 119 -165 121 -158 124 -152 c 0
 127 -146 131 -141 136 -136 c 0
 137 -136 138 -135 139 -134 c 0
 140 -133 142 -132 143 -131 c 0
 144 -130 146 -129 147 -128 c 0
 148 -127 149 -126 149 -126 c 2
 151 -124 l 1
 151 -123 149 -122 148 -120 c 0
 147 -117 145 -116 145 -115 c 0
 144 -115 144 -114 143 -114 c 0
 142 -114 142 -115 142 -115 c 1
 139 -116 136 -117 134 -118 c 0
 132 -120 130 -121 128 -124 c 0
 122 -129 117 -134 112 -141 c 0
 107 -147 104 -153 101 -160 c 0
 101 -162 100 -164 99 -167 c 0
 99 -169 98 -171 98 -174 c 0
 98 -174 98 -176 98 -179 c 0
 97 -181 97 -183 97 -184 c 1
 97 -187 95 -188 92 -188 c 256
 90 -188 88 -186 87 -183 c 1
 87 -179 l 2
 87 -174 88 -169 89 -165 c 0
 90 -160 92 -156 94 -151 c 0
 99 -142 104 -133 111 -124 c 0
 118 -116 127 -110 137 -105 c 1
 137 -104 l 2
 137 -104 136 -103 136 -102 c 0
 135 -100 134 -99 133 -98 c 1
 125 -104 117 -109 107 -112 c 0
 107 -113 105 -113 103 -114 c 0
 100 -115 98 -115 95 -116 c 0
 92 -117 89 -118 87 -119 c 0
 84 -120 83 -120 82 -121 c 0
 75 -123 69 -126 64 -130 c 0
 59 -135 55 -140 52 -147 c 0
 51 -149 51 -151 50 -153 c 0
 50 -155 49 -157 49 -158 c 2
 49 -167 l 2
EndSplineSet
EndChar

